<?xml version="1.0" encoding="utf-8"?>
<!-- Generator: Adobe Illustrator 23.0.3, SVG Export Plug-In . SVG Version: 6.00 Build 0)  -->
<svg version="1.1" id="Layer_1" xmlns="http://www.w3.org/2000/svg" xmlns:xlink="http://www.w3.org/1999/xlink" x="0px" y="0px"
	 viewBox="0 0 1440.5 94.6" style="enable-background:new 0 0 1440.5 94.6;" xml:space="preserve">
<style type="text/css">
	.st0{clip-path:url(#SVGID_2_);}
	.st1{fill:#F4E191;}
	.st2{fill:#F0CDBE;}
	.st3{fill:#AB7B61;}
	.st4{fill:#FFFFFF;}
	.st5{opacity:0.1;}
	.st6{fill:none;stroke:#AB7B61;stroke-miterlimit:10;}
	.st7{clip-path:url(#SVGID_4_);}
	.st8{clip-path:url(#SVGID_6_);}
	.st9{clip-path:url(#SVGID_8_);}
	.st10{clip-path:url(#SVGID_10_);}
	.st11{clip-path:url(#SVGID_12_);}
	.st12{fill:#F89B6C;}
	.st13{clip-path:url(#SVGID_14_);}
	.st14{clip-path:url(#SVGID_16_);}
	.st15{fill:#F6E294;}
	.st16{clip-path:url(#SVGID_18_);}
	.st17{clip-path:url(#SVGID_20_);}
	.st18{clip-path:url(#SVGID_22_);}
	.st19{clip-path:url(#SVGID_24_);}
	.st20{clip-path:url(#SVGID_26_);}
	.st21{clip-path:url(#SVGID_28_);}
	.st22{clip-path:url(#SVGID_30_);}
	.st23{fill:#956038;}
	.st24{fill:#D5894F;}
	.st25{fill:#A66B3D;}
	.st26{fill:#B97644;}
</style>
<title>triplebarAsset 5</title>
<g>
	<g id="Layer_1-2">
		<g id="Sand">
			<g>
				<defs>
					<path id="SVGID_1_" d="M0.5,31.4c131.7-14,238.9-13.7,313.1-10.7c125.8,5.1,311,17.4,441.3,10.6c28.7-1.5,59.3-4.8,95.8-10.6
						c48.7-7.8,106.2-20,190.3-15c90.4,5.3,148.4,21.4,197.9,29.6c46.8,7.7,114.9,12.6,201.6-3.9v63.2H0.5L0.5,31.4z"/>
				</defs>
				<clipPath id="SVGID_2_">
					<use xlink:href="#SVGID_1_"  style="overflow:visible;"/>
				</clipPath>
				<g class="st0">
					<rect x="0.5" y="4.5" class="st1" width="1440" height="964.1"/>
					<g id="sand-2">
						<g id="sand-3">
							<path class="st2" d="M1290.1,158.7c0.2-2-1.4-3.8-3.4-4c-2-0.2-3.8,1.4-4,3.4s1.4,3.8,3.4,4c0.1,0,0.2,0,0.3,0
								C1288.4,162.1,1290,160.6,1290.1,158.7z"/>
							<path class="st3" d="M1261.2,149.7c0.1-1.4-0.9-2.6-2.4-2.7c-1.4-0.1-2.6,0.9-2.7,2.4s0.9,2.6,2.4,2.7c0.1,0,0.1,0,0.2,0
								C1260,152.2,1261.2,151.1,1261.2,149.7z"/>
							<path class="st3" d="M1281.6,138.7c0.1-1.7-1.2-3.2-2.9-3.4c-1.7-0.1-3.2,1.2-3.4,2.9c-0.1,1.7,1.2,3.2,2.9,3.4
								c0.1,0,0.2,0,0.2,0C1280.1,141.7,1281.5,140.4,1281.6,138.7z"/>
							<path class="st3" d="M1341,140.1c0.2-2.5-1.7-4.7-4.2-4.9c-2.5-0.2-4.7,1.7-4.9,4.2c-0.2,2.5,1.7,4.7,4.2,4.9
								c0.1,0,0.2,0,0.3,0C1338.9,144.4,1340.9,142.5,1341,140.1z"/>
							<path class="st3" d="M348.2,64.4c0.1-1.3-0.8-2.3-2.1-2.4c-1.3-0.1-2.3,0.8-2.4,2.1c-0.1,1.3,0.8,2.3,2.1,2.4
								c0.1,0,0.1,0,0.2,0C347.2,66.5,348.2,65.6,348.2,64.4C348.2,64.4,348.2,64.4,348.2,64.4z"/>
							<path class="st2" d="M418.4,107c0.2-2.7-1.8-5.1-4.5-5.3c-2.7-0.2-5.1,1.8-5.3,4.5s1.8,5.1,4.5,5.3c0.1,0,0.3,0,0.4,0
								C416.1,111.6,418.3,109.6,418.4,107z"/>
							<path class="st3" d="M466,31.2c0.1-1-0.7-1.9-1.7-2c-1-0.1-1.9,0.7-2,1.7c-0.1,1,0.7,1.9,1.7,2c0,0,0.1,0,0.1,0
								C465.1,33,465.9,32.2,466,31.2C466,31.2,466,31.2,466,31.2z"/>
							<path class="st3" d="M742.3,94c0.2-2.5-1.7-4.7-4.2-4.9c-2.5-0.2-4.7,1.7-4.9,4.2c-0.2,2.5,1.7,4.7,4.2,4.9
								c0.1,0,0.2,0,0.4,0C740.2,98.3,742.2,96.5,742.3,94z"/>
							<path class="st3" d="M751.3,88.8c0.1-1-0.7-2-1.7-2c-1-0.1-2,0.7-2,1.7c-0.1,1,0.7,2,1.7,2c0.1,0,0.1,0,0.2,0
								C750.5,90.6,751.3,89.8,751.3,88.8C751.3,88.8,751.3,88.8,751.3,88.8z"/>
							<path class="st2" d="M738.5,77c0.1-1.5-1-2.7-2.4-2.9c-1.5-0.1-2.7,1-2.9,2.4c-0.1,1.5,1,2.7,2.4,2.9c0.1,0,0.1,0,0.2,0
								C737.3,79.5,738.5,78.4,738.5,77C738.5,77,738.5,77,738.5,77z"/>
							<path class="st3" d="M766.4,111.5c0.1-0.8-0.6-1.6-1.4-1.6c-0.8-0.1-1.6,0.6-1.6,1.4c-0.1,0.8,0.6,1.6,1.4,1.6
								c0,0,0.1,0,0.1,0C765.7,112.9,766.4,112.3,766.4,111.5z"/>
							<path class="st3" d="M603.4,145.3c0.2-2.2-1.5-4.1-3.7-4.3s-4.1,1.5-4.3,3.7c-0.2,2.2,1.5,4.1,3.7,4.3c0.1,0,0.2,0,0.3,0
								C601.5,149.1,603.3,147.5,603.4,145.3C603.4,145.3,603.4,145.3,603.4,145.3z"/>
							<path class="st2" d="M1097.1,63.1c0.2-2.2-1.5-4.1-3.7-4.3c-2.2-0.2-4.1,1.5-4.3,3.7c-0.2,2.2,1.5,4.1,3.7,4.3
								c0.1,0,0.2,0,0.3,0C1095.2,66.8,1097,65.2,1097.1,63.1z"/>
							<path class="st3" d="M1120.8,72.5c0.1-1.6-1-2.9-2.6-3.1c-1.6-0.1-2.9,1-3.1,2.6c-0.1,1.6,1,2.9,2.6,3.1c0.1,0,0.2,0,0.2,0
								C1119.5,75.2,1120.8,74,1120.8,72.5C1120.8,72.5,1120.8,72.5,1120.8,72.5z"/>
							<path class="st3" d="M1378.9,256.9c0.1-1.6-1-2.9-2.6-3.1c-1.6-0.1-2.9,1-3.1,2.6c-0.1,1.6,1,2.9,2.6,3.1c0.1,0,0.1,0,0.2,0
								C1377.6,259.5,1378.9,258.4,1378.9,256.9z"/>
							<path class="st2" d="M1412.9,202c0.1-1.6-1-2.9-2.6-3c-1.6-0.1-2.9,1-3,2.6c-0.1,1.6,1,2.9,2.6,3c0.1,0,0.1,0,0.2,0
								C1411.6,204.7,1412.8,203.5,1412.9,202C1412.9,202,1412.9,202,1412.9,202z"/>
							<path class="st2" d="M301.7,138c0.2-2.8-1.9-5.3-4.7-5.5c-2.8-0.2-5.3,1.9-5.5,4.7s1.9,5.3,4.7,5.5c0.1,0,0.3,0,0.4,0
								C299.3,142.8,301.6,140.7,301.7,138z"/>
							<path class="st3" d="M949.9,39c0.1-1.6-1-2.9-2.6-3.1c-1.6-0.1-2.9,1-3.1,2.6c-0.1,1.6,1,2.9,2.6,3.1c0.1,0,0.1,0,0.2,0
								C948.6,41.7,949.9,40.5,949.9,39z"/>
							<path class="st3" d="M1003.9,123.3c0.2-2.7-1.8-5-4.4-5.2c-2.7-0.2-5,1.8-5.2,4.4c-0.2,2.7,1.8,5,4.4,5.2c0.1,0,0.3,0,0.4,0
								C1001.6,127.9,1003.8,125.9,1003.9,123.3z"/>
							<ellipse class="st2" cx="1426.3" cy="52.3" rx="3.1" ry="2.9"/>
						</g>
						<g id="sand-4">
							<path class="st2" d="M1099,916.3c0.2-2-1.4-3.8-3.4-4c-2-0.2-3.8,1.4-4,3.4c-0.2,2,1.4,3.8,3.4,4c0.1,0,0.2,0,0.3,0
								C1097.3,919.8,1099,918.3,1099,916.3z"/>
							<path class="st4" d="M913.5,679c0.2-2-1.4-3.8-3.4-4c-2-0.2-3.8,1.4-4,3.4c-0.2,2,1.4,3.8,3.4,4c0.1,0,0.2,0,0.3,0
								C911.8,682.5,913.4,681,913.5,679z"/>
							<path class="st4" d="M315.2,360.3c0.2-2-1.4-3.8-3.4-4c-2-0.2-3.8,1.4-4,3.4c-0.2,2,1.4,3.8,3.4,4c0.1,0,0.2,0,0.3,0
								C313.5,363.7,315.1,362.2,315.2,360.3z"/>
							<path class="st4" d="M748.7,223.4c0.2-2-1.4-3.8-3.4-4c-2-0.2-3.8,1.4-4,3.4c-0.2,2,1.4,3.8,3.4,4c0.1,0,0.2,0,0.3,0
								C746.9,226.8,748.6,225.3,748.7,223.4C748.7,223.4,748.7,223.4,748.7,223.4z"/>
							<path class="st4" d="M676.3,379.8c0.2-2-1.4-3.8-3.4-4c-2-0.2-3.8,1.4-4,3.4s1.4,3.8,3.4,4c0.1,0,0.2,0,0.3,0
								C674.5,383.3,676.2,381.8,676.3,379.8z"/>
							<path class="st4" d="M643.3,680c0.2-2-1.4-3.8-3.4-4c-2-0.2-3.8,1.4-4,3.4c-0.2,2,1.4,3.8,3.4,4c0.1,0,0.2,0,0.3,0
								C641.6,683.5,643.3,682,643.3,680z"/>
							<path class="st2" d="M1425.6,537.6c0.2-2-1.4-3.8-3.4-4c-2-0.2-3.8,1.4-4,3.4s1.4,3.8,3.4,4c0.1,0,0.2,0,0.3,0
								C1423.9,541.1,1425.5,539.6,1425.6,537.6z"/>
							<path class="st2" d="M1369.1,602c0.2-2-1.4-3.8-3.4-4c-2-0.2-3.8,1.4-4,3.4c-0.2,2,1.4,3.8,3.4,4c0.1,0,0.2,0,0.3,0
								C1367.4,605.5,1369.1,604,1369.1,602C1369.1,602,1369.1,602,1369.1,602z"/>
							<path class="st2" d="M690.7,870.5c0.2-2-1.4-3.8-3.4-4c-2-0.2-3.8,1.4-4,3.4c-0.2,2,1.4,3.8,3.4,4c0.1,0,0.2,0,0.3,0
								C689,874,690.6,872.5,690.7,870.5z"/>
							<path class="st2" d="M833.5,947.7c0.2-2-1.4-3.8-3.4-4c-2-0.2-3.8,1.4-4,3.4c-0.2,2,1.4,3.8,3.4,4c0.1,0,0.2,0,0.3,0
								C831.7,951.2,833.4,949.7,833.5,947.7z"/>
							<path class="st3" d="M1070.2,907.4c0.1-1.4-0.9-2.6-2.4-2.7c-1.4-0.1-2.6,0.9-2.7,2.4c-0.1,1.4,0.9,2.6,2.4,2.7
								c0.1,0,0.1,0,0.2,0C1069,909.8,1070.1,908.8,1070.2,907.4C1070.2,907.4,1070.2,907.4,1070.2,907.4z"/>
							<path class="st3" d="M1440.5,607.9c0.1-1.4-0.9-2.6-2.4-2.7c-1.4-0.1-2.6,0.9-2.7,2.4c-0.1,1.4,0.9,2.6,2.4,2.7
								c0.1,0,0.1,0,0.2,0C1439.3,610.3,1440.4,609.3,1440.5,607.9C1440.5,607.9,1440.5,607.9,1440.5,607.9z"/>
							<path class="st3" d="M1051.7,456.4c0.1-1.4-0.9-2.6-2.3-2.8c-1.4-0.1-2.6,0.9-2.8,2.3c-0.1,1.4,0.9,2.6,2.3,2.8
								c0.1,0,0.1,0,0.2,0C1050.5,458.8,1051.6,457.8,1051.7,456.4z"/>
							<path class="st3" d="M838.8,477.7c0.1-1.4-0.9-2.6-2.4-2.8s-2.6,0.9-2.8,2.4s0.9,2.6,2.4,2.8c0.1,0,0.1,0,0.2,0
								C837.6,480.1,838.8,479,838.8,477.7z"/>
							<path class="st3" d="M1081.6,318.3c0.1-1.4-0.9-2.6-2.4-2.7c-1.4-0.1-2.6,0.9-2.7,2.4s0.9,2.6,2.4,2.7c0.1,0,0.1,0,0.2,0
								C1080.4,320.7,1081.5,319.6,1081.6,318.3z"/>
							<path class="st3" d="M1049.1,283.1c0.1-1.4-0.9-2.6-2.3-2.8c-1.4-0.1-2.6,0.9-2.8,2.3s0.9,2.6,2.3,2.8c0.1,0,0.1,0,0.2,0
								C1047.9,285.5,1049.1,284.5,1049.1,283.1z"/>
							<path class="st3" d="M1162.8,254.2c0.1-1.4-0.9-2.6-2.4-2.7c-1.4-0.1-2.6,0.9-2.7,2.4s0.9,2.6,2.4,2.7c0.1,0,0.1,0,0.2,0
								C1161.6,256.7,1162.8,255.6,1162.8,254.2C1162.8,254.3,1162.8,254.3,1162.8,254.2z"/>
							<path class="st3" d="M1343.6,555c0.1-1.4-0.9-2.6-2.4-2.8c-1.4-0.1-2.6,0.9-2.8,2.4c-0.1,1.4,0.9,2.6,2.4,2.8
								c0.1,0,0.1,0,0.2,0C1342.4,557.4,1343.5,556.4,1343.6,555z"/>
							<path class="st3" d="M1381.5,565.3c0.1-1.4-0.9-2.6-2.4-2.8c-1.4-0.1-2.6,0.9-2.8,2.4c-0.1,1.4,0.9,2.6,2.4,2.8
								c0.1,0,0.1,0,0.2,0C1380.3,567.7,1381.4,566.6,1381.5,565.3C1381.5,565.3,1381.5,565.3,1381.5,565.3z"/>
							<path class="st3" d="M1371.7,710.6c0.1-1.7-1.2-3.2-2.9-3.4s-3.2,1.2-3.4,2.9s1.2,3.2,2.9,3.4c0.1,0,0.2,0,0.2,0
								C1370.2,713.5,1371.6,712.2,1371.7,710.6C1371.7,710.6,1371.7,710.6,1371.7,710.6z"/>
							<path class="st3" d="M1421.9,851.1c0.2-2.5-1.7-4.7-4.2-4.9c-2.5-0.2-4.7,1.7-4.9,4.2c-0.2,2.5,1.7,4.7,4.2,4.9
								c0.1,0,0.2,0,0.3,0C1419.8,855.4,1421.8,853.5,1421.9,851.1z"/>
							<path class="st3" d="M1119.7,409.7c0.2-2.5-1.7-4.7-4.2-4.9c-2.5-0.2-4.7,1.7-4.9,4.2c-0.2,2.5,1.7,4.7,4.2,4.9
								c0.1,0,0.2,0,0.3,0C1117.6,414,1119.6,412.1,1119.7,409.7z"/>
							<path class="st3" d="M157.2,822.1c0.1-1.3-0.8-2.3-2.1-2.4c-1.3-0.1-2.3,0.8-2.4,2.1c-0.1,1.3,0.8,2.3,2.1,2.4
								c0.1,0,0.1,0,0.2,0C156.1,824.2,157.1,823.3,157.2,822.1C157.2,822.1,157.2,822.1,157.2,822.1z"/>
							<path class="st2" d="M270.7,919.7c0.2-2.7-1.8-5.1-4.5-5.3c-2.7-0.2-5.1,1.8-5.3,4.5c-0.2,2.7,1.8,5.1,4.5,5.3
								c0.1,0,0.3,0,0.4,0C268.4,924.4,270.6,922.3,270.7,919.7z"/>
							<path class="st3" d="M39.8,827.6c0.1-1-0.7-2-1.7-2.1s-2,0.7-2.1,1.7s0.7,2,1.7,2.1c0.1,0,0.1,0,0.2,0
								C38.9,829.3,39.8,828.6,39.8,827.6z"/>
							<path class="st3" d="M540.8,951.8c0.2-2.5-1.7-4.7-4.2-4.9c-2.5-0.2-4.7,1.7-4.9,4.2c-0.2,2.5,1.7,4.7,4.2,4.9
								c0.1,0,0.2,0,0.3,0C538.7,956.1,540.7,954.2,540.8,951.8z"/>
							<path class="st3" d="M560.3,846.5c0.1-1-0.7-1.9-1.7-2c-1-0.1-1.9,0.7-2,1.7c-0.1,1,0.7,1.9,1.7,2c0,0,0.1,0,0.1,0
								C559.4,848.3,560.3,847.5,560.3,846.5C560.3,846.5,560.3,846.5,560.3,846.5z"/>
							<path class="st2" d="M547.5,834.6c0.1-1.5-1-2.7-2.4-2.9c-1.5-0.1-2.7,1-2.9,2.4s1,2.7,2.4,2.9c0.1,0,0.1,0,0.2,0
								C546.2,837.1,547.4,836,547.5,834.6C547.5,834.6,547.5,834.6,547.5,834.6z"/>
							<path class="st3" d="M575.4,869.2c0.1-0.8-0.6-1.6-1.4-1.6s-1.6,0.6-1.6,1.4s0.6,1.6,1.4,1.6c0,0,0.1,0,0.1,0
								C574.7,870.6,575.3,870,575.4,869.2C575.4,869.2,575.4,869.2,575.4,869.2z"/>
							<path class="st3" d="M445.4,387c0.1-1-0.7-2-1.7-2s-2,0.7-2,1.7s0.7,2,1.7,2c0.1,0,0.1,0,0.2,0
								C444.5,388.8,445.3,388,445.4,387z"/>
							<path class="st3" d="M460.5,409.7c0.1-0.8-0.6-1.6-1.4-1.6c-0.8-0.1-1.6,0.6-1.6,1.4c-0.1,0.8,0.6,1.6,1.4,1.6
								c0,0,0.1,0,0.1,0C459.8,411.1,460.4,410.5,460.5,409.7z"/>
							<path class="st3" d="M404.8,414c0.1-0.8-0.6-1.6-1.4-1.6c-0.8-0.1-1.6,0.6-1.6,1.4c-0.1,0.8,0.6,1.6,1.4,1.6c0,0,0.1,0,0.1,0
								C404.1,415.4,404.8,414.8,404.8,414z"/>
							<path class="st3" d="M450.7,465.1c0.1-0.8-0.5-1.6-1.4-1.6c-0.8-0.1-1.6,0.5-1.6,1.4c-0.1,0.8,0.5,1.6,1.4,1.6
								c0,0,0.1,0,0.1,0C450,466.5,450.6,465.9,450.7,465.1z"/>
							<ellipse class="st3" cx="706.5" cy="254.2" rx="1.5" ry="1.4"/>
							<path class="st3" d="M741.2,251.9c0.1-0.8-0.5-1.6-1.4-1.6c-0.8-0.1-1.6,0.5-1.6,1.4c-0.1,0.8,0.5,1.6,1.4,1.6
								c0,0,0.1,0,0.1,0C740.5,253.3,741.2,252.7,741.2,251.9z"/>
							<path class="st3" d="M721.7,238c0.1-0.8-0.6-1.6-1.4-1.6c-0.8-0.1-1.6,0.6-1.6,1.4c-0.1,0.8,0.6,1.6,1.4,1.6c0,0,0.1,0,0.1,0
								C721,239.4,721.7,238.8,721.7,238z"/>
							<path class="st3" d="M725.5,251.9c0.1-0.8-0.5-1.6-1.4-1.6c-0.8-0.1-1.6,0.5-1.6,1.4c-0.1,0.8,0.5,1.6,1.4,1.6
								c0,0,0.1,0,0.1,0C724.7,253.3,725.4,252.7,725.5,251.9z"/>
							<path class="st3" d="M918.8,220c0.1-0.8-0.6-1.6-1.4-1.6c-0.8-0.1-1.6,0.6-1.6,1.4c-0.1,0.8,0.6,1.6,1.4,1.6c0,0,0.1,0,0.1,0
								C918.1,221.4,918.8,220.8,918.8,220z"/>
							<path class="st3" d="M1064.9,226.7c0.1-0.8-0.6-1.6-1.4-1.6c-0.8-0.1-1.6,0.6-1.6,1.4c-0.1,0.8,0.6,1.6,1.4,1.6
								c0,0,0.1,0,0.1,0C1064.2,228.2,1064.9,227.5,1064.9,226.7z"/>
							<path class="st3" d="M809.9,629.5c0.1-1-0.7-1.9-1.8-2c-1-0.1-1.9,0.7-2,1.8c-0.1,1,0.7,1.9,1.8,2c0,0,0.1,0,0.1,0
								C809,631.3,809.9,630.6,809.9,629.5C809.9,629.6,809.9,629.5,809.9,629.5z"/>
							<path class="st3" d="M579.4,628.9c0.1-1-0.7-1.9-1.8-2c-1-0.1-1.9,0.7-2,1.8c-0.1,1,0.7,1.9,1.8,2c0,0,0.1,0,0.1,0
								C578.5,630.7,579.4,629.9,579.4,628.9C579.4,628.9,579.4,628.9,579.4,628.9z"/>
							<path class="st2" d="M745,626.5c0.1-1.5-1-2.7-2.4-2.8c-1.5-0.1-2.7,1-2.8,2.4c-0.1,1.5,1,2.7,2.4,2.8c0.1,0,0.1,0,0.2,0
								C743.8,629,744.9,627.9,745,626.5C745,626.5,745,626.5,745,626.5z"/>
							<path class="st3" d="M772.9,661c0.1-0.8-0.6-1.6-1.4-1.6c-0.8-0.1-1.6,0.6-1.6,1.4c-0.1,0.8,0.6,1.6,1.4,1.6c0,0,0.1,0,0.1,0
								C772.2,662.5,772.9,661.8,772.9,661z"/>
							<path class="st3" d="M325.8,874.2c0.2-2.2-1.5-4.1-3.7-4.3s-4.1,1.5-4.3,3.7s1.5,4.1,3.7,4.3c0.1,0,0.2,0,0.3,0
								C323.9,878,325.7,876.3,325.8,874.2C325.8,874.2,325.8,874.2,325.8,874.2z"/>
							<path class="st3" d="M460.9,622.3c0.2-2.2-1.4-4.1-3.6-4.3c-2.2-0.2-4.1,1.4-4.3,3.6c-0.2,2.2,1.4,4.1,3.6,4.3
								c0.1,0,0.2,0,0.3,0C459,626,460.8,624.4,460.9,622.3C460.9,622.3,460.9,622.3,460.9,622.3z"/>
							<path class="st2" d="M906.1,820.7c0.2-2.2-1.5-4.1-3.7-4.3c-2.2-0.2-4.1,1.5-4.3,3.7c-0.2,2.2,1.5,4.1,3.7,4.3
								c0.1,0,0.2,0,0.3,0C904.2,824.5,906,822.9,906.1,820.7z"/>
							<path class="st3" d="M971.6,794c0.1-1.6-1-2.9-2.6-3.1c-1.6-0.1-2.9,1-3.1,2.6c-0.1,1.6,1,2.9,2.6,3.1c0.1,0,0.1,0,0.2,0
								C970.3,796.7,971.5,795.5,971.6,794z"/>
							<path class="st4" d="M427,543.6c0.1-1.6-1-2.9-2.6-3.1c-1.6-0.1-2.9,1-3.1,2.6c-0.1,1.6,1,2.9,2.6,3.1c0.1,0,0.1,0,0.2,0
								C425.7,546.3,426.9,545.1,427,543.6z"/>
							<path class="st3" d="M347,588c0.1-1.6-1-2.9-2.6-3.1c-1.6-0.1-2.9,1-3.1,2.6c-0.1,1.6,1,2.9,2.6,3.1c0.1,0,0.1,0,0.2,0
								C345.7,590.7,346.9,589.5,347,588z"/>
							<path class="st3" d="M1399,902.1c0.1-1.6-1-2.9-2.6-3.1c-1.6-0.1-2.9,1-3.1,2.6c-0.1,1.6,1,2.9,2.6,3.1c0.1,0,0.1,0,0.2,0
								C1397.7,904.8,1398.9,903.6,1399,902.1z"/>
							<path class="st2" d="M1221.8,959.7c0.1-1.6-1-2.9-2.6-3c-1.6-0.1-2.9,1-3,2.6c-0.1,1.6,1,2.9,2.6,3c0.1,0,0.1,0,0.2,0
								C1220.5,962.4,1221.8,961.2,1221.8,959.7z"/>
							<path class="st2" d="M12.8,782.4c0.2-2.8-1.9-5.3-4.7-5.5s-5.3,1.9-5.5,4.7c-0.2,2.8,1.9,5.3,4.7,5.5c0.1,0,0.3,0,0.4,0
								C10.4,787.2,12.7,785.1,12.8,782.4z"/>
							<path class="st3" d="M758.9,796.6c0.1-1.6-1-2.9-2.6-3.1c-1.6-0.1-2.9,1-3.1,2.6c-0.1,1.6,1,2.9,2.6,3.1c0.1,0,0.1,0,0.2,0
								C757.5,799.3,758.8,798.2,758.9,796.6z"/>
							<path class="st3" d="M812.8,881c0.2-2.6-1.8-5-4.4-5.2c-2.6-0.2-5,1.8-5.2,4.4c-0.2,2.6,1.8,5,4.4,5.2c0.1,0,0.2,0,0.4,0
								C810.6,885.5,812.7,883.6,812.8,881z"/>
							<path class="st2" d="M1402.1,810c0.1-1.7-1.1-3.2-2.9-3.4s-3.2,1.1-3.4,2.9s1.1,3.2,2.9,3.4c0.1,0,0.2,0,0.2,0
								C1400.7,812.9,1402.1,811.7,1402.1,810C1402.1,810,1402.1,810,1402.1,810z"/>
							<path class="st4" d="M890,574.1c0.1-1.7-1.2-3.2-2.9-3.4s-3.2,1.2-3.4,2.9c-0.1,1.7,1.2,3.2,2.9,3.4c0.1,0,0.2,0,0.3,0
								C888.6,577,890,575.7,890,574.1z"/>
						</g>
					</g>
					<g id="sand-5" class="st5">
						<path class="st6" d="M114,155c0.3,2.5-1.4,4.8-4,5.2s-4.8-1.4-5.2-4c-0.3-2.5,1.4-4.8,4-5.2c0.2,0,0.4,0,0.6,0
							C111.8,150.9,113.8,152.7,114,155"/>
						<path class="st6" d="M445.8,80.7c0.3,2.5-1.4,4.9-4,5.2c-2.5,0.3-4.9-1.4-5.2-4s1.4-4.9,4-5.2c0.2,0,0.4,0,0.6,0
							C443.6,76.6,445.6,78.4,445.8,80.7"/>
						<path class="st6" d="M527.1,296.1c0.3,2.5-1.4,4.8-4,5.2c-2.5,0.3-4.8-1.4-5.2-4c-0.3-2.5,1.4-4.8,4-5.2c0.2,0,0.4,0,0.6,0
							C524.9,292,526.9,293.7,527.1,296.1"/>
						<path class="st6" d="M517.9,464.6c0.3,2.5-1.5,4.8-4,5.1c-2.5,0.3-4.8-1.5-5.1-4c-0.3-2.5,1.5-4.8,4-5.1c0.2,0,0.4,0,0.6,0
							C515.7,460.5,517.8,462.3,517.9,464.6"/>
						<path class="st6" d="M35.6,408.1c0.3,2.5-1.4,4.9-4,5.2s-4.9-1.4-5.2-4c-0.3-2.5,1.4-4.9,4-5.2c0.2,0,0.4,0,0.6,0
							C33.3,404,35.4,405.7,35.6,408.1"/>
						<path class="st6" d="M223.8,656.6c0.3,2.5-1.4,4.8-4,5.2s-4.8-1.4-5.2-4c-0.3-2.5,1.4-4.8,4-5.2c0.2,0,0.4,0,0.6,0
							C221.6,652.5,223.6,654.3,223.8,656.6"/>
						<path class="st6" d="M214.7,612.6c0.3,2.5-1.4,4.8-4,5.2c-2.5,0.3-4.8-1.4-5.2-4c-0.3-2.5,1.4-4.8,4-5.2c0.2,0,0.4,0,0.6,0
							C212.5,608.4,214.5,610.2,214.7,612.6"/>
						<path class="st6" d="M487.5,172.8c0.3,2.5-1.4,4.9-4,5.2c-2.5,0.3-4.9-1.4-5.2-4s1.4-4.9,4-5.2c0.2,0,0.4,0,0.6,0
							C485.3,168.7,487.3,170.5,487.5,172.8"/>
						<path class="st6" d="M259.4,260.9c0.3,2.5-1.4,4.8-4,5.2s-4.8-1.4-5.2-4c-0.3-2.5,1.4-4.8,4-5.2c0.2,0,0.4,0,0.6,0
							C257.2,256.8,259.3,258.6,259.4,260.9"/>
						<path class="st6" d="M186.6,300.1c0.3,2.5-1.4,4.9-4,5.2c-2.5,0.3-4.9-1.4-5.2-4s1.4-4.9,4-5.2c0.2,0,0.4,0,0.6,0
							C184.4,296,186.4,297.8,186.6,300.1"/>
						<path class="st6" d="M210.1,460.6c0.3,2.5-1.4,4.8-4,5.2c-2.5,0.3-4.8-1.4-5.2-4c-0.3-2.5,1.4-4.8,4-5.2c0.2,0,0.4,0,0.6,0
							C207.9,456.5,209.9,458.2,210.1,460.6"/>
						<path class="st6" d="M441.3,416.2c0.3,2.5-1.4,4.8-4,5.2s-4.8-1.4-5.2-4c-0.3-2.5,1.4-4.8,4-5.2c0.2,0,0.4,0,0.6,0
							C439,412.1,441.1,413.8,441.3,416.2"/>
						<path class="st6" d="M450.4,555.8c0.3,2.5-1.4,4.9-4,5.2c-2.5,0.3-4.9-1.4-5.2-4s1.4-4.9,4-5.2c0.2,0,0.4,0,0.6,0
							C448.2,551.7,450.2,553.5,450.4,555.8"/>
						<path class="st6" d="M426.9,635.9c0.3,2.5-1.4,4.8-4,5.2s-4.8-1.4-5.2-4c-0.3-2.5,1.4-4.8,4-5.2c0.2,0,0.4,0,0.6,0
							C424.7,631.8,426.7,633.6,426.9,635.9"/>
						<path class="st6" d="M397.3,572c0.3,2.5-1.4,4.8-4,5.2c-2.5,0.3-4.8-1.4-5.2-4c-0.3-2.5,1.4-4.8,4-5.2c0.2,0,0.4,0,0.6,0
							C395.1,567.9,397.1,569.7,397.3,572"/>
						<path class="st6" d="M349.8,599.1c0.3,2.5-1.5,4.8-4,5.1c-2.5,0.3-4.8-1.5-5.1-4s1.5-4.8,4-5.1c0.2,0,0.4,0,0.6,0
							C347.6,594.9,349.7,596.7,349.8,599.1"/>
						<path class="st6" d="M401.8,532.5c0.3,2.5-1.4,4.8-4,5.2s-4.8-1.4-5.2-4c-0.3-2.5,1.4-4.8,4-5.2c0.2,0,0.4,0,0.6,0
							C399.6,528.4,401.6,530.2,401.8,532.5"/>
						<path class="st6" d="M445.8,300.1c0.3,2.5-1.4,4.8-4,5.2c-2.5,0.3-4.8-1.4-5.2-4c-0.3-2.5,1.4-4.8,4-5.2c0.2,0,0.4,0,0.6,0
							C443.6,296,445.6,297.8,445.8,300.1"/>
						<path class="st6" d="M345.3,357c0.3,2.5-1.4,4.8-4,5.2s-4.8-1.4-5.2-4c-0.3-2.5,1.4-4.8,4-5.2c0.2,0,0.4,0,0.6,0
							C343,352.9,345.1,354.7,345.3,357"/>
						<path class="st6" d="M277.6,559.9c0.3,2.5-1.5,4.8-4,5.1c-2.5,0.3-4.8-1.5-5.1-4c-0.3-2.5,1.5-4.8,4-5.1c0.2,0,0.4,0,0.6,0
							C275.4,555.7,277.4,557.5,277.6,559.9"/>
						<path class="st6" d="M165,568c0.3,2.5-1.4,4.9-4,5.2s-4.9-1.4-5.2-4c-0.3-2.5,1.4-4.9,4-5.2c0.2,0,0.4,0,0.6,0
							C162.8,563.8,164.8,565.6,165,568"/>
						<path class="st6" d="M177.4,635.9c0.3,2.5-1.4,4.9-4,5.2c-2.5,0.3-4.9-1.4-5.2-4c-0.3-2.5,1.4-4.9,4-5.2c0.2,0,0.4,0,0.6,0
							C175.2,631.8,177.2,633.6,177.4,635.9"/>
						<path class="st6" d="M99.3,464.6c0.3,2.5-1.5,4.8-4,5.1c-2.5,0.3-4.8-1.5-5.1-4c-0.3-2.5,1.5-4.8,4-5.1c0.2,0,0.4,0,0.6,0
							C97.1,460.5,99.1,462.3,99.3,464.6"/>
						<path class="st6" d="M56.1,308.2c0.3,2.5-1.4,4.8-4,5.2s-4.8-1.4-5.2-4c-0.3-2.5,1.4-4.8,4-5.2c0.2,0,0.4,0,0.6,0
							C53.9,304.1,56,305.9,56.1,308.2"/>
						<path class="st6" d="M143.4,274.4c0.3,2.5-1.4,4.8-4,5.2s-4.8-1.4-5.2-4c-0.3-2.5,1.4-4.8,4-5.2c0.2,0,0.4,0,0.6,0
							C141.2,270.3,143.3,272,143.4,274.4"/>
						<path class="st6" d="M381.1,118.7c0.3,2.5-1.4,4.8-4,5.2c-2.5,0.3-4.8-1.4-5.2-4c-0.3-2.5,1.4-4.8,4-5.2c0.2,0,0.4,0,0.6,0
							C378.9,114.5,380.9,116.3,381.1,118.7"/>
						<path class="st6" d="M372,82.3c0.3,2.5-1.4,4.9-4,5.2c-2.5,0.3-4.9-1.4-5.2-4s1.4-4.9,4-5.2c0.2,0,0.4,0,0.6,0
							C369.7,78.1,371.8,79.9,372,82.3"/>
						<path class="st6" d="M291.9,146.9c0.3,2.5-1.4,4.8-4,5.2c-2.5,0.3-4.8-1.4-5.2-4c-0.3-2.5,1.4-4.8,4-5.2c0.2,0,0.4,0,0.6,0
							C289.7,142.8,291.7,144.6,291.9,146.9"/>
						<path class="st6" d="M264.4,74.2c0.3,2.5-1.4,4.8-4,5.2c-2.5,0.3-4.8-1.4-5.2-4c-0.3-2.5,1.4-4.8,4-5.2c0.2,0,0.4,0,0.6,0
							C262.2,70.1,264.2,71.8,264.4,74.2"/>
						<path class="st6" d="M214.7,122.7c0.3,2.5-1.4,4.8-4,5.2c-2.5,0.3-4.8-1.4-5.2-4c-0.3-2.5,1.4-4.8,4-5.2c0.2,0,0.4,0,0.6,0
							C212.5,118.6,214.5,120.4,214.7,122.7"/>
						<path class="st6" d="M219.3,193.8c0.3,2.5-1.4,4.9-4,5.2c-2.5,0.3-4.9-1.4-5.2-4s1.4-4.9,4-5.2c0.2,0,0.4,0,0.6,0
							C217.1,189.7,219.1,191.5,219.3,193.8"/>
						<path class="st6" d="M143.4,163.1c0.3,2.5-1.4,4.8-4,5.2s-4.8-1.4-5.2-4c-0.3-2.5,1.4-4.8,4-5.2c0.2,0,0.4,0,0.6,0
							C141.2,159,143.3,160.8,143.4,163.1"/>
						<path class="st6" d="M138.8,122.7c0.3,2.5-1.4,4.8-4,5.2s-4.8-1.4-5.2-4c-0.3-2.5,1.4-4.8,4-5.2c0.2,0,0.4,0,0.6,0
							C136.6,118.6,138.6,120.4,138.8,122.7"/>
						<path class="st6" d="M276.2,320.3c0.3,2.5-1.4,4.9-4,5.2c-2.5,0.3-4.9-1.4-5.2-4s1.4-4.9,4-5.2c0.2,0,0.4,0,0.6,0
							C274,316.2,276,318,276.2,320.3"/>
						<path class="st6" d="M556.5,387.9c0.3,2.5-1.5,4.8-4,5.1c-2.5,0.3-4.8-1.5-5.1-4c-0.3-2.5,1.5-4.8,4-5.1c0.2,0,0.4,0,0.6,0
							C554.3,383.7,556.3,385.5,556.5,387.9"/>
						<path class="st6" d="M138.7,330.2c0.3,2.5-1.4,4.8-4,5.2s-4.8-1.4-5.2-4c-0.3-2.5,1.4-4.8,4-5.2c0.2,0,0.4,0,0.6,0
							C136.5,326.1,138.6,327.8,138.7,330.2"/>
						<path class="st6" d="M291.7,394.2c0.3,2.5-1.4,4.9-4,5.2c-2.5,0.3-4.9-1.4-5.2-4s1.4-4.9,4-5.2c0.2,0,0.4,0,0.6,0
							C289.5,390.1,291.5,391.8,291.7,394.2"/>
						<path class="st6" d="M35.6,90.9c0.3,2.5-1.4,4.8-4,5.2s-4.8-1.4-5.2-4c-0.3-2.5,1.4-4.8,4-5.2c0.2,0,0.4,0,0.6,0
							C33.3,86.8,35.4,88.6,35.6,90.9"/>
						<path class="st6" d="M291.3,367.2c0.3,2.5-1.4,4.8-4,5.2c-2.5,0.3-4.8-1.4-5.2-4c-0.3-2.5,1.4-4.8,4-5.2c0.2,0,0.4,0,0.6,0
							C289.1,363.1,291.2,364.8,291.3,367.2"/>
						<path class="st6" d="M411,316.3c0.3,2.5-1.4,4.9-4,5.2c-2.5,0.3-4.9-1.4-5.2-4s1.4-4.9,4-5.2c0.2,0,0.4,0,0.6,0
							C408.8,312.2,410.9,313.9,411,316.3"/>
						<path class="st6" d="M313.3,207.6c0.3,2.5-1.4,4.8-4,5.2s-4.8-1.4-5.2-4c-0.3-2.5,1.4-4.8,4-5.2c0.2,0,0.4,0,0.6,0
							C311.1,203.4,313.1,205.2,313.3,207.6"/>
						<path class="st6" d="M186.6,274.4c0.3,2.5-1.4,4.9-4,5.2c-2.5,0.3-4.9-1.4-5.2-4s1.4-4.9,4-5.2c0.2,0,0.4,0,0.6,0
							C184.4,270.3,186.4,272,186.6,274.4"/>
						<path class="st6" d="M254.8,414.9c0.3,2.5-1.5,4.8-4,5.1c-2.5,0.3-4.8-1.5-5.1-4c-0.3-2.5,1.5-4.8,4-5.1c0.2,0,0.4,0,0.6,0
							C252.6,410.7,254.7,412.5,254.8,414.9"/>
						<path class="st6" d="M286.8,278.4c0.3,2.5-1.4,4.8-4,5.2c-2.5,0.3-4.8-1.4-5.2-4c-0.3-2.5,1.4-4.8,4-5.2c0.2,0,0.4,0,0.6,0
							C284.5,274.3,286.6,276.1,286.8,278.4"/>
						<path class="st6" d="M319.5,442.1c0.3,2.5-1.4,4.8-4,5.2c-2.5,0.3-4.8-1.4-5.2-4c-0.3-2.5,1.4-4.8,4-5.2c0.2,0,0.4,0,0.6,0
							C317.2,438,319.3,439.8,319.5,442.1"/>
						<path class="st6" d="M238.1,460.6c0.3,2.5-1.4,4.8-4,5.2s-4.8-1.4-5.2-4c-0.3-2.5,1.4-4.8,4-5.2c0.2,0,0.4,0,0.6,0
							C235.9,456.5,237.9,458.2,238.1,460.6"/>
						<path class="st6" d="M177.4,486.9c0.3,2.5-1.4,4.9-4,5.2s-4.9-1.4-5.2-4c-0.3-2.5,1.4-4.9,4-5.2c0.2,0,0.4,0,0.6,0
							C175.2,482.7,177.3,484.5,177.4,486.9"/>
						<path class="st6" d="M508.4,431.6c0.3,2.5-1.4,4.8-4,5.2s-4.8-1.4-5.2-4c-0.3-2.5,1.4-4.8,4-5.2c0.2,0,0.4,0,0.6,0
							C506.2,427.4,508.2,429.2,508.4,431.6"/>
						<path class="st6" d="M31,308.2c0.3,2.5-1.4,4.8-4,5.2s-4.8-1.4-5.2-4c-0.3-2.5,1.4-4.8,4-5.2c0.2,0,0.4,0,0.6,0
							C28.8,304.1,30.8,305.9,31,308.2"/>
						<path class="st6" d="M143.4,394.2c0.3,2.5-1.4,4.8-4,5.2s-4.8-1.4-5.2-4c-0.3-2.5,1.4-4.8,4-5.2c0.2,0,0.4,0,0.6,0
							C141.2,390.1,143.3,391.8,143.4,394.2"/>
						<path class="st6" d="M441.3,256.9c0.3,2.5-1.4,4.9-4,5.2c-2.5,0.3-4.9-1.4-5.2-4s1.4-4.9,4-5.2c0.2,0,0.4,0,0.6,0
							C439,252.7,441.1,254.5,441.3,256.9"/>
						<path class="st6" d="M354.4,408.1c0.3,2.5-1.4,4.8-4,5.2s-4.8-1.4-5.2-4c-0.3-2.5,1.4-4.8,4-5.2c0.2,0,0.4,0,0.6,0
							C352.2,404,354.2,405.7,354.4,408.1"/>
						<path class="st6" d="M205.5,371.2c0.3,2.5-1.4,4.9-4,5.2c-2.5,0.3-4.9-1.4-5.2-4s1.4-4.9,4-5.2c0.2,0,0.4,0,0.6,0
							C203.3,367.1,205.4,368.9,205.5,371.2"/>
						<path class="st6" d="M313.3,176.8c0.3,2.5-1.4,4.8-4,5.2s-4.8-1.4-5.2-4c-0.3-2.5,1.4-4.8,4-5.2c0.2,0,0.4,0,0.6,0
							C311.1,172.7,313.1,174.5,313.3,176.8"/>
						<path class="st6" d="M359,482.8c0.3,2.5-1.4,4.8-4,5.2c-2.5,0.3-4.8-1.4-5.2-4c-0.3-2.5,1.4-4.8,4-5.2c0.2,0,0.4,0,0.6,0
							C356.8,478.7,358.8,480.5,359,482.8"/>
						<path class="st6" d="M313.3,516.4c0.3,2.5-1.4,4.8-4,5.2s-4.8-1.4-5.2-4c-0.3-2.5,1.4-4.8,4-5.2c0.2,0,0.4,0,0.6,0
							C311.1,512.2,313.1,514,313.3,516.4"/>
						<path class="st6" d="M35.6,195.4c0.3,2.5-1.5,4.8-4,5.1c-2.5,0.3-4.8-1.5-5.1-4c-0.3-2.5,1.5-4.8,4-5.1c0.2,0,0.4,0,0.6,0
							C33.3,191.2,35.4,193,35.6,195.4"/>
						<path class="st6" d="M336.1,235.5c0.3,2.5-1.4,4.9-4,5.2c-2.5,0.3-4.9-1.4-5.2-4s1.4-4.9,4-5.2c0.2,0,0.4,0,0.6,0
							C333.9,231.3,335.9,233.1,336.1,235.5"/>
						<path class="st6" d="M92.2,883.3c2.3,0.1,4.2,2,4.1,4.4c-0.1,2.3-2,4.2-4.4,4.1c-2.3-0.1-4.1-1.9-4.1-4.2
							C87.9,885.2,89.8,883.3,92.2,883.3C92.2,883.3,92.2,883.3,92.2,883.3"/>
						<path class="st6" d="M262.1,714.6c2.3,0.1,4.2,2,4.1,4.4c-0.1,2.3-2,4.2-4.4,4.1c-2.3-0.1-4.1-2-4.1-4.2
							C257.8,716.5,259.8,714.6,262.1,714.6C262.1,714.6,262.1,714.6,262.1,714.6"/>
						<path class="st6" d="M244.7,501.1c2.3,0.1,4.2,2,4.1,4.4c-0.1,2.3-2,4.2-4.4,4.1c-2.3-0.1-4.1-1.9-4.1-4.2
							C240.3,502.9,242.3,501,244.7,501.1C244.7,501,244.7,501.1,244.7,501.1"/>
						<path class="st6" d="M426.8,509.5c2.3,0.1,4.2,2,4.1,4.4c-0.1,2.3-2,4.2-4.4,4.1c-2.3-0.1-4.1-1.9-4.1-4.2
							C422.5,511.4,424.4,509.5,426.8,509.5C426.8,509.5,426.8,509.5,426.8,509.5"/>
						<path class="st6" d="M365.7,955.9c2.3,0.1,4.2,2,4.1,4.4c-0.1,2.3-2,4.2-4.4,4.1c-2.3-0.1-4.1-2-4.1-4.2
							C361.4,957.8,363.3,955.9,365.7,955.9C365.7,955.9,365.7,955.9,365.7,955.9"/>
						<path class="st6" d="M634.3,781.6c2.3,0.1,4.2,2,4.1,4.4c-0.1,2.3-2,4.2-4.4,4.1c-2.3-0.1-4.1-1.9-4.1-4.2
							C630,783.5,631.9,781.6,634.3,781.6"/>
						<path class="st6" d="M586.7,790.1c2.3,0.1,4.2,2,4.1,4.4c-0.1,2.3-2,4.2-4.4,4.1c-2.3-0.1-4.1-1.9-4.1-4.2
							C582.3,792,584.3,790.1,586.7,790.1C586.7,790.1,586.7,790.1,586.7,790.1"/>
						<path class="st6" d="M111.4,537.7c2.3,0.1,4.2,2,4.1,4.4c-0.1,2.3-2,4.2-4.4,4.1c-2.3-0.1-4.1-1.9-4.1-4.2
							C107.1,539.6,109.1,537.7,111.4,537.7"/>
						<path class="st6" d="M206.7,748.7c2.3,0.1,4.2,2,4.1,4.4c-0.1,2.3-2,4.2-4.4,4.1c-2.3-0.1-4.1-1.9-4.1-4.2
							C202.3,750.6,204.3,748.7,206.7,748.7C206.7,748.7,206.7,748.7,206.7,748.7"/>
						<path class="st6" d="M249,816.1c2.3,0.1,4.2,2,4.1,4.4c-0.1,2.3-2,4.2-4.4,4.1c-2.3-0.1-4.1-1.9-4.1-4.2
							C244.7,818,246.7,816.1,249,816.1"/>
						<path class="st6" d="M662,927.7c2.3,0.1,4.2,2,4.1,4.4s-2,4.2-4.4,4.1c-2.3-0.1-4.1-2-4.1-4.2
							C657.6,929.6,659.6,927.7,662,927.7C662,927.7,662,927.7,662,927.7"/>
						<path class="st6" d="M572.1,919.2c2.3,0.1,4.2,2,4.1,4.4c-0.1,2.3-2,4.2-4.4,4.1c-2.3-0.1-4.1-1.9-4.1-4.2
							C567.8,921.1,569.7,919.2,572.1,919.2"/>
						<path class="st6" d="M47,955.9c2.3,0.1,4.2,2,4.1,4.4c-0.1,2.3-2,4.2-4.4,4.1c-2.3-0.1-4.1-1.9-4.1-4.2
							C42.7,957.7,44.6,955.8,47,955.9"/>
						<path class="st6" d="M525.4,572c2.3,0.1,4.2,2,4.1,4.4c-0.1,2.3-2,4.2-4.4,4.1c-2.3-0.1-4.1-1.9-4.1-4.2
							C521.1,573.9,523,572,525.4,572"/>
						<path class="st6" d="M612,593.7c2.3,0.1,4.2,2,4.1,4.4c-0.1,2.3-2,4.2-4.4,4.1c-2.3-0.1-4.1-1.9-4.1-4.2
							C607.6,595.6,609.6,593.7,612,593.7"/>
						<path class="st6" d="M542.8,621.2c2.3,0.1,4.2,2,4.1,4.4c-0.1,2.3-2,4.2-4.4,4.1c-2.3-0.1-4.1-1.9-4.1-4.2
							C538.5,623,540.4,621.1,542.8,621.2"/>
						<path class="st6" d="M572.1,665.1c2.3,0.1,4.2,2,4.1,4.4c-0.1,2.3-2,4.2-4.4,4.1c-2.3-0.1-4.1-1.9-4.1-4.2
							C567.8,666.9,569.7,665,572.1,665.1"/>
						<path class="st6" d="M500.2,616.9c2.3,0.1,4.2,2,4.1,4.4c-0.1,2.3-2,4.2-4.4,4.1c-2.3-0.1-4.1-1.9-4.1-4.2
							C495.9,618.8,497.8,616.9,500.2,616.9"/>
						<path class="st6" d="M249,576.2c2.3,0.1,4.2,2,4.1,4.4c-0.1,2.3-2,4.2-4.4,4.1c-2.3-0.1-4.1-1.9-4.1-4.2
							C244.7,578.1,246.7,576.2,249,576.2"/>
						<path class="st6" d="M310.5,669.3c2.3,0.1,4.2,2,4.1,4.4c-0.1,2.3-2,4.2-4.4,4.1c-2.3-0.1-4.1-1.9-4.1-4.2
							C306.2,671.2,308.1,669.3,310.5,669.3"/>
						<path class="st6" d="M529.8,731.9c2.3,0.1,4.2,2,4.1,4.4s-2,4.2-4.4,4.1c-2.3-0.1-4.1-2-4.1-4.2
							C525.4,733.8,527.4,731.9,529.8,731.9C529.8,731.9,529.8,731.9,529.8,731.9"/>
						<path class="st6" d="M538.5,836.1c2.3,0.1,4.2,2,4.1,4.4c-0.1,2.3-2,4.2-4.4,4.1c-2.3-0.1-4.1-1.9-4.1-4.2
							C534.2,838,536.1,836.1,538.5,836.1C538.5,836.1,538.5,836.1,538.5,836.1"/>
						<path class="st6" d="M612,824.6c2.3,0.1,4.2,2,4.1,4.4c-0.1,2.3-2,4.2-4.4,4.1c-2.3-0.1-4.1-1.9-4.1-4.2
							C607.6,826.5,609.6,824.6,612,824.6"/>
						<path class="st6" d="M426.8,896.9c2.3,0.1,4.2,2,4.1,4.4s-2,4.2-4.4,4.1c-2.3-0.1-4.1-1.9-4.1-4.2
							C422.5,898.8,424.4,896.9,426.8,896.9C426.8,896.9,426.8,896.9,426.8,896.9"/>
						<path class="st6" d="M257.8,936.8c2.3,0.1,4.2,2,4.1,4.4c-0.1,2.3-2,4.2-4.4,4.1c-2.3-0.1-4.1-2-4.1-4.2
							C253.5,938.7,255.4,936.8,257.8,936.8C257.8,936.8,257.8,936.8,257.8,936.8"/>
						<path class="st6" d="M221.2,856.1c2.3,0.1,4.2,2,4.1,4.4c-0.1,2.3-2,4.2-4.4,4.1c-2.3-0.1-4.1-1.9-4.1-4.2
							C216.9,857.9,218.8,856,221.2,856.1C221.2,856.1,221.2,856.1,221.2,856.1"/>
						<path class="st6" d="M52.9,636.1c2.3,0.1,4.2,2,4.1,4.4c-0.1,2.3-2,4.2-4.4,4.1c-2.3-0.1-4.1-1.9-4.1-4.2
							C48.6,638,50.5,636.1,52.9,636.1C52.9,636.1,52.9,636.1,52.9,636.1"/>
						<path class="st6" d="M13.6,644.6c2.3,0.1,4.2,2,4.1,4.4c-0.1,2.3-2,4.2-4.4,4.1c-2.3-0.1-4.1-1.9-4.1-4.2
							C9.3,646.5,11.2,644.6,13.6,644.6C13.6,644.6,13.6,644.6,13.6,644.6"/>
						<path class="st6" d="M83.5,718.6c2.3,0.1,4.2,2,4.1,4.4c-0.1,2.3-2,4.2-4.4,4.1c-2.3-0.1-4.1-1.9-4.1-4.2
							C79.2,720.5,81.1,718.6,83.5,718.6C83.5,718.6,83.5,718.6,83.5,718.6"/>
						<path class="st6" d="M4.9,744.1c2.3,0.1,4.2,2,4.1,4.4s-2,4.2-4.4,4.1c-2.3-0.1-4.1-2-4.1-4.2C0.5,746,2.5,744.1,4.9,744.1"/>
						<path class="st6" d="M57.3,790.1c2.3,0.1,4.2,2,4.1,4.4c-0.1,2.3-2,4.2-4.4,4.1c-2.3-0.1-4.1-1.9-4.1-4.2
							C52.9,792,54.9,790.1,57.3,790.1"/>
						<path class="st6" d="M134.2,785.9c2.3,0.1,4.2,2,4.1,4.4s-2,4.2-4.4,4.1c-2.3-0.1-4.1-2-4.1-4.2
							C129.8,787.7,131.8,785.8,134.2,785.9"/>
						<path class="st6" d="M109.7,860.3c2.3,0.1,4.2,2,4.1,4.4c-0.1,2.3-2,4.2-4.4,4.1c-2.3-0.1-4.1-1.9-4.1-4.2
							C105.4,862.2,107.3,860.3,109.7,860.3"/>
						<path class="st6" d="M57.3,860.3c2.3,0.1,4.2,2,4.1,4.4s-2,4.2-4.4,4.1c-2.3-0.1-4.1-2-4.1-4.2
							C53,862.2,54.9,860.3,57.3,860.3"/>
						<path class="st6" d="M495.8,947.4c2.3,0.1,4.2,2,4.1,4.4c-0.1,2.3-2,4.2-4.4,4.1c-2.3-0.1-4.1-1.9-4.1-4.2
							C491.5,949.3,493.5,947.4,495.8,947.4"/>
						<path class="st6" d="M273,677.7c2.3,0.1,4.2,2,4.1,4.4c-0.1,2.3-2,4.2-4.4,4.1c-2.3-0.1-4.1-1.9-4.1-4.2
							C268.7,679.6,270.7,677.7,273,677.7"/>
						<path class="st6" d="M279.2,768.4c2.3,0.1,4.2,2,4.1,4.4c-0.1,2.3-2,4.2-4.4,4.1c-2.3-0.1-4.1-1.9-4.1-4.2
							C274.8,770.3,276.8,768.4,279.2,768.4"/>
						<path class="st6" d="M370.1,790.1c2.3,0.1,4.2,2,4.1,4.4c-0.1,2.3-2,4.2-4.4,4.1c-2.3-0.1-4.1-1.9-4.1-4.2
							C365.7,792,367.7,790.1,370.1,790.1C370.1,790.1,370.1,790.1,370.1,790.1"/>
						<path class="st6" d="M299.3,871.6c2.3,0.1,4.2,2,4.1,4.4c-0.1,2.3-2,4.2-4.4,4.1c-2.3-0.1-4.1-2-4.1-4.2
							C294.9,873.5,296.9,871.6,299.3,871.6"/>
						<path class="st6" d="M350.7,723.7c2.3,0.1,4.2,2,4.1,4.4s-2,4.2-4.4,4.1c-2.3-0.1-4.1-2-4.1-4.2
							C346.4,725.6,348.3,723.7,350.7,723.7"/>
						<path class="st6" d="M266.5,608.4c2.3,0.1,4.2,2,4.1,4.4c-0.1,2.3-2,4.2-4.4,4.1c-2.3-0.1-4.1-2-4.1-4.2
							C262.2,610.3,264.1,608.4,266.5,608.4C266.5,608.4,266.5,608.4,266.5,608.4"/>
						<path class="st6" d="M149,698.9c2.3,0.1,4.2,2,4.1,4.4c-0.1,2.3-2,4.2-4.4,4.1c-2.3-0.1-4.1-1.9-4.1-4.2
							C144.7,700.7,146.6,698.8,149,698.9C149,698.9,149,698.9,149,698.9"/>
						<path class="st6" d="M221.2,816.1c2.3,0.1,4.2,2,4.1,4.4c-0.1,2.3-2,4.2-4.4,4.1c-2.3-0.1-4.1-1.9-4.1-4.2
							C216.9,818,218.8,816.1,221.2,816.1"/>
						<path class="st6" d="M339.4,785.9c2.3,0.1,4.2,2,4.1,4.4c-0.1,2.3-2,4.2-4.4,4.1c-2.3-0.1-4.1-2-4.1-4.2
							C335.1,787.7,337.1,785.8,339.4,785.9"/>
						<path class="st6" d="M179.2,706.7c2.3,0.1,4.2,2,4.1,4.4c-0.1,2.3-2,4.2-4.4,4.1c-2.3-0.1-4.1-2-4.1-4.2
							C174.8,708.6,176.8,706.7,179.2,706.7C179.1,706.7,179.1,706.7,179.2,706.7"/>
						<path class="st6" d="M350.7,682c2.3,0.1,4.2,2,4.1,4.4c-0.1,2.3-2,4.2-4.4,4.1c-2.3-0.1-4.1-1.9-4.1-4.2
							C346.4,683.9,348.3,682,350.7,682C350.7,682,350.7,682,350.7,682"/>
						<path class="st6" d="M422.4,768.4c2.3,0.1,4.2,2,4.1,4.4c-0.1,2.3-2,4.2-4.4,4.1c-2.3-0.1-4.1-1.9-4.1-4.2
							C418.1,770.3,420.1,768.4,422.4,768.4"/>
						<path class="st6" d="M450.8,824.6c2.3,0.1,4.2,2,4.1,4.4c-0.1,2.3-2,4.2-4.4,4.1c-2.3-0.1-4.1-1.9-4.1-4.2
							C446.5,826.5,448.4,824.6,450.8,824.6C450.8,824.6,450.8,824.6,450.8,824.6"/>
						<path class="st6" d="M365.7,509.5c2.3,0.1,4.2,2,4.1,4.4c-0.1,2.3-2,4.2-4.4,4.1c-2.3-0.1-4.1-1.9-4.1-4.2
							C361.4,511.4,363.3,509.5,365.7,509.5"/>
						<path class="st6" d="M257.8,960.1c2.3,0.1,4.2,2,4.1,4.4c-0.1,2.3-2,4.2-4.4,4.1c-2.3-0.1-4.1-1.9-4.1-4.2
							C253.5,962,255.4,960.1,257.8,960.1C257.8,960.1,257.8,960.1,257.8,960.1"/>
						<path class="st6" d="M350.7,856.1c2.3,0.1,4.2,2,4.1,4.4c-0.1,2.3-2,4.2-4.4,4.1c-2.3-0.1-4.1-1.9-4.1-4.2
							C346.4,857.9,348.3,856,350.7,856.1C350.7,856.1,350.7,856.1,350.7,856.1"/>
						<path class="st6" d="M202.3,580.5c2.3,0.1,4.2,2,4.1,4.4c-0.1,2.3-2,4.2-4.4,4.1c-2.3-0.1-4.1-1.9-4.1-4.2
							C198,582.3,199.9,580.4,202.3,580.5C202.3,580.5,202.3,580.5,202.3,580.5"/>
						<path class="st6" d="M365.7,660.8c2.3,0.1,4.2,2,4.1,4.4c-0.1,2.3-2,4.2-4.4,4.1c-2.3-0.1-4.1-1.9-4.1-4.2
							C361.4,662.7,363.3,660.8,365.7,660.8"/>
						<path class="st6" d="M172.8,892.7c2.3,0.1,4.2,2,4.1,4.4c-0.1,2.3-2,4.2-4.4,4.1c-2.3-0.1-4.1-1.9-4.1-4.2
							C168.5,894.5,170.5,892.6,172.8,892.7"/>
						<path class="st6" d="M105.3,648.4c2.3,0.1,4.2,2,4.1,4.4c-0.1,2.3-2,4.2-4.4,4.1c-2.3-0.1-4.1-1.9-4.1-4.2
							C101,650.2,102.9,648.3,105.3,648.4"/>
						<path class="st6" d="M446.5,656.6c2.3,0.1,4.2,2,4.1,4.4c-0.1,2.3-2,4.2-4.4,4.1c-2.3-0.1-4.1-1.9-4.1-4.2
							C442.1,658.5,444.1,656.6,446.5,656.6"/>
						<path class="st6" d="M482.7,698.9c2.3,0.1,4.2,2,4.1,4.4c-0.1,2.3-2,4.2-4.4,4.1c-2.3-0.1-4.1-1.9-4.1-4.2
							C478.4,700.7,480.3,698.8,482.7,698.9C482.7,698.9,482.7,698.9,482.7,698.9"/>
						<path class="st6" d="M431.2,727.7c2.3,0.1,4.2,2,4.1,4.4c-0.1,2.3-2,4.2-4.4,4.1c-2.3-0.1-4.1-1.9-4.1-4.2
							C426.8,729.5,428.8,727.6,431.2,727.7C431.2,727.7,431.2,727.7,431.2,727.7"/>
						<path class="st6" d="M179.1,677.7c2.3,0.1,4.2,2,4.1,4.4c-0.1,2.3-2,4.2-4.4,4.1c-2.3-0.1-4.1-2-4.1-4.2
							C174.8,679.6,176.8,677.7,179.1,677.7C179.1,677.7,179.1,677.7,179.1,677.7"/>
						<path class="st6" d="M1137.5,586.3c-2.3-0.1-4.2-2-4.1-4.4c0.1-2.3,2-4.2,4.4-4.1c2.3,0.1,4.1,2,4.1,4.2
							C1141.9,584.5,1139.9,586.4,1137.5,586.3C1137.6,586.3,1137.5,586.3,1137.5,586.3"/>
						<path class="st6" d="M967.6,755c-2.3-0.1-4.2-2-4.1-4.4s2-4.2,4.4-4.1c2.3,0.1,4.1,2,4.1,4.2C972,753.1,970,755,967.6,755
							C967.6,755,967.6,755,967.6,755"/>
						<path class="st6" d="M985.1,968.6c-2.3-0.1-4.2-2-4.1-4.4c0.1-2.3,2-4.2,4.4-4.1c2.3,0.1,4.1,1.9,4.1,4.2
							C989.4,966.7,987.5,968.6,985.1,968.6C985.1,968.6,985.1,968.6,985.1,968.6"/>
						<path class="st6" d="M803,960.1c-2.3-0.1-4.2-2-4.1-4.4s2-4.2,4.4-4.1c2.3,0.1,4.1,1.9,4.1,4.2
							C807.3,958.2,805.4,960.1,803,960.1C803,960.1,803,960.1,803,960.1"/>
						<path class="st6" d="M864.1,513.7c-2.3-0.1-4.2-2-4.1-4.4s2-4.2,4.4-4.1c2.3,0.1,4.1,2,4.1,4.2
							C868.4,511.9,866.4,513.8,864.1,513.7C864.1,513.7,864.1,513.7,864.1,513.7"/>
						<path class="st6" d="M595.4,688c-2.3-0.1-4.2-2-4.1-4.4s2-4.2,4.4-4.1c2.3,0.1,4.1,1.9,4.1,4.2
							C599.8,686.1,597.8,688,595.4,688C595.5,688,595.5,688,595.4,688"/>
						<path class="st6" d="M643.1,679.5c-2.3-0.1-4.2-2-4.1-4.4c0.1-2.3,2-4.2,4.4-4.1c2.3,0.1,4.1,1.9,4.1,4.2
							C647.4,677.6,645.5,679.5,643.1,679.5C643.1,679.5,643.1,679.5,643.1,679.5"/>
						<path class="st6" d="M1118.3,931.9c-2.3-0.1-4.2-2-4.1-4.4s2-4.2,4.4-4.1c2.3,0.1,4.1,1.9,4.1,4.2
							C1122.7,930.1,1120.7,932,1118.3,931.9"/>
						<path class="st6" d="M1023.1,720.9c-2.3-0.1-4.2-2-4.1-4.4s2-4.2,4.4-4.1c2.3,0.1,4.1,1.9,4.1,4.2
							C1027.4,719.1,1025.5,721,1023.1,720.9C1023.1,720.9,1023.1,720.9,1023.1,720.9"/>
						<path class="st6" d="M980.7,653.5c-2.3-0.1-4.2-2-4.1-4.4s2-4.2,4.4-4.1c2.3,0.1,4.1,1.9,4.1,4.2
							C985.1,651.6,983.1,653.5,980.7,653.5"/>
						<path class="st6" d="M807.3,675.3c-2.3-0.1-4.2-2-4.1-4.4c0.1-2.3,2-4.2,4.4-4.1c2.3,0.1,4.1,2,4.1,4.2
							C811.7,673.4,809.7,675.3,807.3,675.3C807.3,675.3,807.3,675.3,807.3,675.3"/>
						<path class="st6" d="M855.3,889.2c-2.3-0.1-4.2-2-4.1-4.4s2-4.2,4.4-4.1c2.3,0.1,4.1,1.9,4.1,4.2
							C859.7,887.3,857.7,889.2,855.3,889.2C855.3,889.2,855.3,889.2,855.3,889.2"/>
						<path class="st6" d="M704.4,897.6c-2.3-0.1-4.2-2-4.1-4.4s2-4.2,4.4-4.1c2.3,0.1,4.1,2,4.1,4.2
							C708.7,895.8,706.7,897.7,704.4,897.6"/>
						<path class="st6" d="M617.8,875.9c-2.3-0.1-4.2-2-4.1-4.4c0.1-2.3,2-4.2,4.4-4.1c2.3,0.1,4.1,2,4.1,4.2
							C622.2,874,620.2,875.9,617.8,875.9C617.8,875.9,617.8,875.9,617.8,875.9"/>
						<path class="st6" d="M686.9,848.5c-2.3-0.1-4.2-2-4.1-4.4c0.1-2.3,2-4.2,4.4-4.1c2.3,0.1,4.1,1.9,4.1,4.2
							C691.2,846.6,689.3,848.5,686.9,848.5"/>
						<path class="st6" d="M657.6,804.6c-2.3-0.1-4.2-2-4.1-4.4c0.1-2.3,2-4.2,4.4-4.1c2.3,0.1,4.1,2,4.1,4.2
							C662,802.7,660,804.6,657.6,804.6C657.6,804.6,657.6,804.6,657.6,804.6"/>
						<path class="st6" d="M729.6,852.7c-2.3-0.1-4.2-2-4.1-4.4s2-4.2,4.4-4.1c2.3,0.1,4.1,2,4.1,4.2
							C733.9,850.9,732,852.8,729.6,852.7"/>
						<path class="st6" d="M980.7,893.4c-2.3-0.1-4.2-2-4.1-4.4s2-4.2,4.4-4.1c2.3,0.1,4.1,1.9,4.1,4.2
							C985.1,891.5,983.1,893.4,980.7,893.4"/>
						<path class="st6" d="M919.3,800.3c-2.3-0.1-4.2-2-4.1-4.4s2-4.2,4.4-4.1c2.3,0.1,4.1,1.9,4.1,4.2
							C923.6,798.5,921.6,800.4,919.3,800.3"/>
						<path class="st6" d="M700,737.7c-2.3-0.1-4.2-2-4.1-4.4c0.1-2.3,2-4.2,4.4-4.1c2.3,0.1,4.1,1.9,4.1,4.2
							C704.3,735.9,702.4,737.8,700,737.7C700,737.7,700,737.7,700,737.7"/>
						<path class="st6" d="M691.3,633.5c-2.3-0.1-4.2-2-4.1-4.4c0.1-2.3,2-4.2,4.4-4.1c2.3,0.1,4.1,1.9,4.1,4.2
							C695.6,631.7,693.6,633.6,691.3,633.5"/>
						<path class="st6" d="M617.8,645c-2.3-0.1-4.2-2-4.1-4.4c0.1-2.3,2-4.2,4.4-4.1c2.3,0.1,4.1,1.9,4.1,4.2
							C622.2,643.2,620.2,645.1,617.8,645C617.8,645,617.8,645,617.8,645"/>
						<path class="st6" d="M803,572.7c-2.3-0.1-4.2-2-4.1-4.4s2-4.2,4.4-4.1c2.3,0.1,4.1,2,4.1,4.2
							C807.3,570.9,805.4,572.8,803,572.7C803,572.7,803,572.7,803,572.7"/>
						<path class="st6" d="M972,532.8c-2.3-0.1-4.2-2-4.1-4.4s2-4.2,4.4-4.1c2.3,0.1,4.1,2,4.1,4.2
							C976.3,530.9,974.4,532.8,972,532.8"/>
						<path class="st6" d="M1008.6,613.6c-2.3-0.1-4.2-2-4.1-4.4s2-4.2,4.4-4.1c2.3,0.1,4.1,1.9,4.1,4.2
							C1012.9,611.7,1010.9,613.6,1008.6,613.6C1008.6,613.6,1008.6,613.6,1008.6,613.6"/>
						<path class="st6" d="M1176.8,833.5c-2.3-0.1-4.2-2-4.1-4.4c0.1-2.3,2-4.2,4.4-4.1c2.3,0.1,4.1,1.9,4.1,4.2
							C1181.1,831.6,1179.2,833.5,1176.8,833.5"/>
						<path class="st6" d="M1216.2,825c-2.3-0.1-4.2-2-4.1-4.4s2-4.2,4.4-4.1c2.3,0.1,4.1,2,4.1,4.2
							C1220.5,823.2,1218.6,825.1,1216.2,825C1216.2,825,1216.2,825,1216.2,825"/>
						<path class="st6" d="M1146.3,751c-2.3-0.1-4.2-2-4.1-4.4s2-4.2,4.4-4.1c2.3,0.1,4.1,1.9,4.1,4.2
							C1150.6,749.1,1148.7,751,1146.3,751C1146.3,751,1146.3,751,1146.3,751"/>
						<path class="st6" d="M1224.9,725.5c-2.3-0.1-4.2-2-4.1-4.4s2-4.2,4.4-4.1c2.3,0.1,4.1,1.9,4.1,4.2
							C1229.2,723.6,1227.3,725.5,1224.9,725.5C1224.9,725.5,1224.9,725.5,1224.9,725.5"/>
						<path class="st6" d="M1172.5,679.5c-2.3-0.1-4.2-2-4.1-4.4s2-4.2,4.4-4.1c2.3,0.1,4.1,1.9,4.1,4.2
							C1176.8,677.7,1174.9,679.6,1172.5,679.5C1172.5,679.5,1172.5,679.5,1172.5,679.5"/>
						<path class="st6" d="M1095.6,683.7c-2.3-0.1-4.2-2-4.1-4.4s2-4.2,4.4-4.1c2.3,0.1,4.1,2,4.1,4.2
							C1099.9,681.9,1098,683.8,1095.6,683.7C1095.6,683.7,1095.6,683.7,1095.6,683.7"/>
						<path class="st6" d="M1128.8,613.6c-2.3-0.1-4.2-2-4.1-4.4s2-4.2,4.4-4.1c2.3,0.1,4.1,1.9,4.1,4.2
							C1133.2,611.7,1131.2,613.6,1128.8,613.6C1128.8,613.6,1128.8,613.6,1128.8,613.6"/>
						<path class="st6" d="M1271.4,600.9c-2.3-0.1-4.2-2-4.1-4.4s2-4.2,4.4-4.1c2.3,0.1,4.1,2,4.1,4.2
							C1275.8,599,1273.8,600.9,1271.4,600.9C1271.4,600.9,1271.4,600.9,1271.4,600.9"/>
						<path class="st6" d="M1316.8,692.1c-2.3-0.1-4.2-2-4.1-4.4s2-4.2,4.4-4.1c2.3,0.1,4.1,1.9,4.1,4.2
							C1321.2,690.3,1319.2,692.2,1316.8,692.1C1316.8,692.1,1316.8,692.1,1316.8,692.1"/>
						<path class="st6" d="M1243,675.3c-2.3-0.1-4.2-2-4.1-4.4s2-4.2,4.4-4.1c2.3,0.1,4.1,2,4.1,4.2
							C1247.4,673.4,1245.4,675.3,1243,675.3C1243.1,675.3,1243,675.3,1243,675.3"/>
						<path class="st6" d="M1216.2,640.8c-2.3-0.1-4.2-2-4.1-4.4c0.1-2.3,2-4.2,4.4-4.1c2.3,0.1,4.1,1.9,4.1,4.2
							C1220.5,638.9,1218.5,640.8,1216.2,640.8C1216.2,640.8,1216.2,640.8,1216.2,640.8"/>
						<path class="st6" d="M1211.8,761.5c-2.3-0.1-4.2-2-4.1-4.4s2-4.2,4.4-4.1c2.3,0.1,4.1,1.9,4.1,4.2
							C1216.2,759.7,1214.2,761.6,1211.8,761.5"/>
						<path class="st6" d="M1275.8,785.9c-2.3-0.1-4.2-2-4.1-4.4c0.1-2.3,2-4.2,4.4-4.1c2.3,0.1,4.1,1.9,4.1,4.2
							C1280.1,784,1278.2,785.9,1275.8,785.9"/>
						<path class="st6" d="M1413.4,861.2c-2.3-0.1-4.2-2-4.1-4.4c0.1-2.3,2-4.2,4.4-4.1c2.3,0.1,4.1,1.9,4.1,4.2
							C1417.7,859.3,1415.7,861.2,1413.4,861.2C1413.4,861.2,1413.4,861.2,1413.4,861.2"/>
						<path class="st6" d="M1336.2,909.6c-2.3-0.1-4.2-2-4.1-4.4s2-4.2,4.4-4.1c2.3,0.1,4.1,1.9,4.1,4.2
							C1340.5,907.7,1338.5,909.6,1336.2,909.6C1336.2,909.6,1336.2,909.6,1336.2,909.6"/>
						<path class="st6" d="M1267.1,951.7c-2.3-0.1-4.2-2-4.1-4.4s2-4.2,4.4-4.1c2.3,0.1,4.1,1.9,4.1,4.2
							C1271.4,949.8,1269.4,951.7,1267.1,951.7C1267.1,951.7,1267.1,951.7,1267.1,951.7"/>
						<path class="st6" d="M1137.5,876.5c-2.3-0.1-4.2-2-4.1-4.4s2-4.2,4.4-4.1c2.3,0.1,4.1,1.9,4.1,4.2
							C1141.9,874.6,1139.9,876.5,1137.5,876.5C1137.5,876.5,1137.5,876.5,1137.5,876.5"/>
						<path class="st6" d="M989.5,833.5c-2.3-0.1-4.2-2-4.1-4.4s2-4.2,4.4-4.1c2.3,0.1,4.1,1.9,4.1,4.2
							C993.8,831.6,991.9,833.5,989.5,833.5C989.5,833.5,989.5,833.5,989.5,833.5"/>
						<path class="st6" d="M1172.5,609.3c-2.3-0.1-4.2-2-4.1-4.4s2-4.2,4.4-4.1c2.3,0.1,4.1,1.9,4.1,4.2
							C1176.8,607.5,1174.9,609.4,1172.5,609.3C1172.5,609.3,1172.5,609.3,1172.5,609.3"/>
						<path class="st6" d="M958.9,736.4c-2.3-0.1-4.2-2-4.1-4.4s2-4.2,4.4-4.1c2.3,0.1,4.1,1.9,4.1,4.2
							C963.2,734.6,961.3,736.5,958.9,736.4"/>
						<path class="st6" d="M934.9,770.7c-2.3-0.1-4.2-2-4.1-4.4s2-4.2,4.4-4.1c2.3,0.1,4.1,1.9,4.1,4.2
							C939.2,768.9,937.3,770.8,934.9,770.7"/>
						<path class="st6" d="M950.6,701.2c-2.3-0.1-4.2-2-4.1-4.4s2-4.2,4.4-4.1c2.3,0.1,4.1,1.9,4.1,4.2
							C954.9,699.3,953,701.2,950.6,701.2"/>
						<path class="st6" d="M879.1,750.7c-2.3-0.1-4.2-2-4.1-4.4s2-4.2,4.4-4.1c2.3,0.1,4.1,1.9,4.1,4.2
							C883.4,748.9,881.5,750.8,879.1,750.7C879.1,750.7,879.1,750.7,879.1,750.7"/>
						<path class="st6" d="M934.9,719.5c-2.3-0.1-4.2-2-4.1-4.4s2-4.2,4.4-4.1c2.3,0.1,4.1,2,4.1,4.2
							C939.2,717.7,937.3,719.6,934.9,719.5C934.9,719.5,934.9,719.5,934.9,719.5"/>
						<path class="st6" d="M908.3,750.4c-2.3-0.1-4.2-2-4.1-4.4c0.1-2.3,2-4.2,4.4-4.1c2.3,0.1,4.1,1.9,4.1,4.2
							C912.6,748.6,910.7,750.5,908.3,750.4C908.3,750.4,908.3,750.4,908.3,750.4"/>
						<path class="st6" d="M963.3,861.2c-2.3-0.1-4.2-2-4.1-4.4s2-4.2,4.4-4.1c2.3,0.1,4.1,2,4.1,4.2
							C967.6,859.3,965.6,861.2,963.3,861.2C963.3,861.2,963.3,861.2,963.3,861.2"/>
						<path class="st6" d="M1080.8,770.7c-2.3-0.1-4.2-2-4.1-4.4s2-4.2,4.4-4.1c2.3,0.1,4.1,1.9,4.1,4.2
							C1085.1,768.9,1083.1,770.8,1080.8,770.7C1080.8,770.7,1080.8,770.7,1080.8,770.7"/>
						<path class="st6" d="M1076.4,550.4c-2.3-0.1-4.2-2-4.1-4.4c0.1-2.3,2-4.2,4.4-4.1c2.3,0.1,4.1,1.9,4.1,4.2
							C1080.7,548.5,1078.8,550.4,1076.4,550.4C1076.4,550.4,1076.4,550.4,1076.4,550.4"/>
						<path class="st6" d="M1008.6,653.5c-2.3-0.1-4.2-2-4.1-4.4s2-4.2,4.4-4.1c2.3,0.1,4.1,1.9,4.1,4.2
							C1012.9,651.6,1010.9,653.5,1008.6,653.5C1008.6,653.5,1008.6,653.5,1008.6,653.5"/>
						<path class="st6" d="M890.3,683.7c-2.3-0.1-4.2-2-4.1-4.4c0.1-2.3,2-4.2,4.4-4.1c2.3,0.1,4.1,2,4.1,4.2
							C894.7,681.9,892.7,683.8,890.3,683.7C890.3,683.7,890.3,683.7,890.3,683.7"/>
						<path class="st6" d="M1004.2,746.2c-2.3-0.1-4.2-2-4.1-4.4s2-4.2,4.4-4.1c2.3,0.1,4.1,1.9,4.1,4.2
							C1008.5,744.3,1006.6,746.2,1004.2,746.2C1004.2,746.2,1004.2,746.2,1004.2,746.2"/>
						<path class="st6" d="M879.1,787.6c-2.3-0.1-4.2-2-4.1-4.4s2-4.2,4.4-4.1c2.3,0.1,4.1,1.9,4.1,4.2
							C883.4,785.8,881.5,787.7,879.1,787.6C879.1,787.6,879.1,787.6,879.1,787.6"/>
						<path class="st6" d="M807.3,701.2c-2.3-0.1-4.2-2-4.1-4.4c0.1-2.3,2-4.2,4.4-4.1c2.3,0.1,4.1,1.9,4.1,4.2
							C811.7,699.3,809.7,701.2,807.3,701.2C807.3,701.2,807.3,701.2,807.3,701.2"/>
						<path class="st6" d="M778.9,645c-2.3-0.1-4.2-2-4.1-4.4c0.1-2.3,2-4.2,4.4-4.1c2.3,0.1,4.1,1.9,4.1,4.2
							C783.3,643.2,781.4,645.1,778.9,645C779,645,779,645,778.9,645"/>
						<path class="st6" d="M838.7,951.3c-2.3-0.1-4.2-2-4.1-4.4s2-4.2,4.4-4.1c2.3,0.1,4.1,2,4.1,4.2
							C843,949.4,841.1,951.3,838.7,951.3C838.7,951.3,838.7,951.3,838.7,951.3"/>
						<path class="st6" d="M972,509.5c-2.3-0.1-4.2-2-4.1-4.4s2-4.2,4.4-4.1c2.3,0.1,4.1,1.9,4.1,4.2
							C976.3,507.7,974.4,509.6,972,509.5"/>
						<path class="st6" d="M879.1,613.6c-2.3-0.1-4.2-2-4.1-4.4s2-4.2,4.4-4.1c2.3,0.1,4.1,1.9,4.1,4.2
							C883.4,611.7,881.5,613.6,879.1,613.6C879.1,613.6,879.1,613.6,879.1,613.6"/>
						<path class="st6" d="M1027.5,889.2c-2.3-0.1-4.2-2-4.1-4.4c0.1-2.3,2-4.2,4.4-4.1c2.3,0.1,4.1,1.9,4.1,4.2
							C1031.8,887.3,1029.9,889.2,1027.5,889.2C1027.5,889.2,1027.5,889.2,1027.5,889.2"/>
						<path class="st6" d="M864.1,808.8c-2.3-0.1-4.2-2-4.1-4.4c0.1-2.3,2-4.2,4.4-4.1c2.3,0.1,4.1,1.9,4.1,4.2
							C868.4,806.9,866.4,808.8,864.1,808.8C864.1,808.8,864.1,808.8,864.1,808.8"/>
						<path class="st6" d="M903.9,671.1c-2.3-0.1-4.2-2-4.1-4.4c0.1-2.3,2-4.2,4.4-4.1c2.3,0.1,4.1,1.9,4.1,4.2
							C908.2,669.2,906.3,671.1,903.9,671.1"/>
						<path class="st6" d="M1114,770.7c-2.3-0.1-4.2-2-4.1-4.4s2-4.2,4.4-4.1c2.3,0.1,4.1,1.9,4.1,4.2
							C1118.3,768.9,1116.4,770.8,1114,770.7C1114,770.7,1114,770.7,1114,770.7"/>
						<path class="st6" d="M783.3,813c-2.3-0.1-4.2-2-4.1-4.4c0.1-2.3,2-4.2,4.4-4.1c2.3,0.1,4.1,1.9,4.1,4.2
							C787.6,811.2,785.7,813.1,783.3,813"/>
						<path class="st6" d="M747.1,770.7c-2.3-0.1-4.2-2-4.1-4.4c0.1-2.3,2-4.2,4.4-4.1c2.3,0.1,4.1,1.9,4.1,4.2
							C751.4,768.9,749.5,770.8,747.1,770.7C747.1,770.7,747.1,770.7,747.1,770.7"/>
						<path class="st6" d="M798.6,742c-2.3-0.1-4.2-2-4.1-4.4c0.1-2.3,2-4.2,4.4-4.1c2.3,0.1,4.1,2,4.1,4.2
							C802.9,740.1,801,742,798.6,742C798.6,742,798.6,742,798.6,742"/>
						<path class="st6" d="M1050.6,791.9c-2.3-0.1-4.2-2-4.1-4.4s2-4.2,4.4-4.1c2.3,0.1,4.1,2,4.1,4.2
							C1055,790,1053,791.9,1050.6,791.9"/>
						<path class="st6" d="M1056.2,46.4c0.3,2.5-1.4,4.9-4,5.2c-2.5,0.3-4.9-1.4-5.2-4c-0.3-2.5,1.4-4.9,4-5.2c0.2,0,0.4,0,0.6,0
							C1054,42.3,1056.1,44.1,1056.2,46.4"/>
						<path class="st6" d="M890.5,135.9c0.3,2.5-1.4,4.9-4,5.2c-2.5,0.3-4.9-1.4-5.2-4s1.4-4.9,4-5.2c0.2,0,0.4,0,0.6,0
							C888.3,131.7,890.3,133.5,890.5,135.9"/>
						<path class="st6" d="M762.2,238.4c0.3,2.5-1.4,4.8-4,5.2s-4.8-1.4-5.2-4s1.4-4.8,4-5.2c0.2,0,0.4,0,0.6,0
							C759.9,234.3,762,236.1,762.2,238.4"/>
						<path class="st6" d="M753,194.4c0.3,2.5-1.4,4.9-4,5.2c-2.5,0.3-4.9-1.4-5.2-4s1.4-4.9,4-5.2c0.2,0,0.4,0,0.6,0
							C750.8,190.2,752.8,192,753,194.4"/>
						<path class="st6" d="M560.8,80.7c0.3,2.5-1.4,4.8-4,5.2s-4.8-1.4-5.2-4c-0.3-2.5,1.4-4.8,4-5.2c0.2,0,0.4,0,0.6,0
							C558.6,76.6,560.6,78.4,560.8,80.7"/>
						<path class="st6" d="M1296.2,144c0.3,2.5-1.4,4.8-4,5.2s-4.8-1.4-5.2-4s1.4-4.8,4-5.2c0.2,0,0.4,0,0.6,0
							C1294,139.8,1296,141.6,1296.2,144"/>
						<path class="st6" d="M1285.6,50.5c0.3,2.5-1.4,4.9-4,5.2s-4.9-1.4-5.2-4c-0.3-2.5,1.4-4.9,4-5.2c0.2,0,0.4,0,0.6,0
							C1283.3,46.3,1285.4,48.1,1285.6,50.5"/>
						<path class="st6" d="M965.2,217.7c0.3,2.5-1.4,4.8-4,5.2s-4.8-1.4-5.2-4s1.4-4.8,4-5.2c0.2,0,0.4,0,0.6,0
							C963,213.6,965,215.4,965.2,217.7"/>
						<path class="st6" d="M935.6,153.8c0.3,2.5-1.4,4.9-4,5.2c-2.5,0.3-4.9-1.4-5.2-4s1.4-4.9,4-5.2c0.2,0,0.4,0,0.6,0
							C933.4,149.7,935.4,151.5,935.6,153.8"/>
						<path class="st6" d="M888.1,180.9c0.3,2.5-1.4,4.9-4,5.2c-2.5,0.3-4.9-1.4-5.2-4s1.4-4.9,4-5.2c0.2,0,0.4,0,0.6,0
							C885.9,176.8,888,178.6,888.1,180.9"/>
						<path class="st6" d="M940.2,114.3c0.3,2.5-1.4,4.8-4,5.2s-4.8-1.4-5.2-4s1.4-4.8,4-5.2c0.2,0,0.4,0,0.6,0
							C937.9,110.2,940,112,940.2,114.3"/>
						<path class="st6" d="M1402.6,648.4c0.3,2.5-1.4,4.8-4,5.2s-4.8-1.4-5.2-4s1.4-4.8,4-5.2c0.2,0,0.4,0,0.6,0
							C1400.3,644.2,1402.4,646,1402.6,648.4"/>
						<path class="st6" d="M815.9,141.7c0.3,2.5-1.4,4.8-4,5.2s-4.8-1.4-5.2-4c-0.3-2.5,1.4-4.8,4-5.2c0.2,0,0.4,0,0.6,0
							C813.7,137.6,815.7,139.4,815.9,141.7"/>
						<path class="st6" d="M620.9,163.1c0.3,2.5-1.4,4.9-4,5.2c-2.5,0.3-4.9-1.4-5.2-4s1.4-4.9,4-5.2c0.2,0,0.4,0,0.6,0
							C618.7,159,620.7,160.8,620.9,163.1"/>
						<path class="st6" d="M715.7,217.7c0.3,2.5-1.4,4.9-4,5.2s-4.9-1.4-5.2-4s1.4-4.9,4-5.2c0.2,0,0.4,0,0.6,0
							C713.5,213.6,715.5,215.4,715.7,217.7"/>
						<path class="st6" d="M637.6,46.4c0.3,2.5-1.4,4.8-4,5.2c-2.5,0.3-4.8-1.4-5.2-4s1.4-4.8,4-5.2c0.2,0,0.4,0,0.6,0
							C635.4,42.3,637.4,44.1,637.6,46.4"/>
						<path class="st6" d="M1131.1,48.1c0.3,2.5-1.4,4.9-4,5.2s-4.9-1.4-5.2-4c-0.3-2.5,1.4-4.9,4-5.2c0.2,0,0.4,0,0.6,0
							C1128.9,44,1130.9,45.8,1131.1,48.1"/>
						<path class="st6" d="M1168.2,70.3c0.3,2.5-1.4,4.9-4,5.2c-2.5,0.3-4.9-1.4-5.2-4c-0.3-2.5,1.4-4.9,4-5.2c0.2,0,0.4,0,0.6,0
							C1166,66.2,1168.1,68,1168.2,70.3"/>
						<path class="st6" d="M1354.6,610.7c0.3,2.5-1.4,4.8-4,5.2s-4.8-1.4-5.2-4s1.4-4.8,4-5.2c0.2,0,0.4,0,0.6,0
							C1352.3,606.6,1354.4,608.4,1354.6,610.7"/>
						<path class="st6" d="M543.4,144c0.3,2.5-1.4,4.8-4,5.2c-2.5,0.3-4.8-1.4-5.2-4c-0.3-2.5,1.4-4.8,4-5.2c0.2,0,0.4,0,0.6,0
							C541.1,139.8,543.2,141.6,543.4,144"/>
						<path class="st6" d="M1321.8,725.5c0.3,2.5-1.4,4.8-4,5.2s-4.8-1.4-5.2-4s1.4-4.8,4-5.2c0.2,0,0.4,0,0.6,0
							C1319.6,721.4,1321.6,723.1,1321.8,725.5"/>
						<path class="st6" d="M1146.3,95c0.3,2.5-1.4,4.9-4,5.2s-4.9-1.4-5.2-4c-0.3-2.5,1.4-4.9,4-5.2c0.2,0,0.4,0,0.6,0
							C1144,90.8,1146.1,92.6,1146.3,95"/>
						<path class="st6" d="M1280.4,550.4c0.3,2.5-1.5,4.8-4,5.1c-2.5,0.3-4.8-1.5-5.1-4c-0.3-2.5,1.5-4.8,4-5.1c0.2,0,0.4,0,0.6,0
							C1278.2,546.2,1280.2,548,1280.4,550.4"/>
						<path class="st6" d="M1212,166.5c0.3,2.5-1.4,4.8-4,5.2s-4.8-1.4-5.2-4s1.4-4.8,4-5.2c0.2,0,0.4,0,0.6,0
							C1209.8,162.4,1211.8,164.2,1212,166.5"/>
						<path class="st6" d="M715.7,68.7c0.3,2.5-1.4,4.8-4,5.2c-2.5,0.3-4.8-1.4-5.2-4c-0.3-2.5,1.4-4.8,4-5.2c0.2,0,0.4,0,0.6,0
							C713.5,64.5,715.5,66.3,715.7,68.7"/>
						<path class="st6" d="M998.4,122c0.3,2.5-1.4,4.8-4,5.2s-4.8-1.4-5.2-4s1.4-4.8,4-5.2c0.2,0,0.4,0,0.6,0
							C996.1,117.8,998.2,119.6,998.4,122"/>
						<path class="st6" d="M1317.4,80.7c0.3,2.5-1.4,4.8-4,5.2s-4.8-1.4-5.2-4s1.4-4.8,4-5.2c0.2,0,0.4,0,0.6,0
							C1315.2,76.6,1317.3,78.4,1317.4,80.7"/>
						<path class="st6" d="M1060.5,99c0.3,2.5-1.4,4.9-4,5.2c-2.5,0.3-4.9-1.4-5.2-4c-0.3-2.5,1.4-4.9,4-5.2c0.2,0,0.4,0,0.6,0
							C1058.3,94.9,1060.3,96.6,1060.5,99"/>
						<path class="st6" d="M897.3,64.6c0.3,2.5-1.4,4.8-4,5.2s-4.8-1.4-5.2-4c-0.3-2.5,1.4-4.8,4-5.2c0.2,0,0.4,0,0.6,0
							C895.1,60.5,897.1,62.3,897.3,64.6"/>
						<path class="st6" d="M851.6,98.2c0.3,2.5-1.4,4.8-4,5.2s-4.8-1.4-5.2-4s1.4-4.8,4-5.2c0.2,0,0.4,0,0.6,0
							C849.4,94,851.4,95.8,851.6,98.2"/>
						<path class="st6" d="M820.5,50.5c0.3,2.5-1.4,4.8-4,5.2s-4.8-1.4-5.2-4s1.4-4.8,4-5.2c0.2,0,0.4,0,0.6,0
							C818.3,46.3,820.3,48.1,820.5,50.5"/>
						<path class="st6" d="M630.5,465.1c2.3,0.1,4.2,2,4.1,4.4c-0.1,2.3-2,4.2-4.4,4.1c-2.3-0.1-4.1-1.9-4.1-4.2
							C626.2,467,628.1,465.1,630.5,465.1C630.5,465.1,630.5,465.1,630.5,465.1"/>
						<path class="st6" d="M800.4,296.5c2.3,0.1,4.2,2,4.1,4.4s-2,4.2-4.4,4.1c-2.3-0.1-4.1-2-4.1-4.2
							C796.1,298.3,798.1,296.4,800.4,296.5C800.4,296.5,800.4,296.5,800.4,296.5"/>
						<path class="st6" d="M783,82.9c2.3,0.1,4.2,2,4.1,4.4s-2,4.2-4.4,4.1c-2.3-0.1-4.1-2-4.1-4.2C778.6,84.7,780.6,82.8,783,82.9"
							/>
						<path class="st6" d="M965.1,91.3c2.3,0.1,4.2,2,4.1,4.4s-2,4.2-4.4,4.1c-2.3-0.1-4.1-1.9-4.1-4.2
							C960.8,93.2,962.7,91.3,965.1,91.3C965.1,91.3,965.1,91.3,965.1,91.3"/>
						<path class="st6" d="M904,537.7c2.3,0.1,4.2,2,4.1,4.4c-0.1,2.3-2,4.2-4.4,4.1c-2.3-0.1-4.1-1.9-4.1-4.2
							C899.7,539.6,901.6,537.7,904,537.7C904,537.7,904,537.7,904,537.7"/>
						<path class="st6" d="M1172.6,363.5c2.3,0.1,4.2,2,4.1,4.4s-2,4.2-4.4,4.1c-2.3-0.1-4.1-1.9-4.1-4.2
							C1168.3,365.3,1170.2,363.4,1172.6,363.5C1172.6,363.5,1172.6,363.5,1172.6,363.5"/>
						<path class="st6" d="M1125,371.9c2.3,0.1,4.2,2,4.1,4.4c-0.1,2.3-2,4.2-4.4,4.1c-2.3-0.1-4.1-1.9-4.1-4.2
							C1120.6,373.8,1122.6,371.9,1125,371.9C1125,371.9,1125,371.9,1125,371.9"/>
						<path class="st6" d="M649.7,119.5c2.3,0.1,4.2,2,4.1,4.4s-2,4.2-4.4,4.1c-2.3-0.1-4.1-2-4.1-4.2
							C645.4,121.4,647.3,119.5,649.7,119.5C649.7,119.5,649.7,119.5,649.7,119.5"/>
						<path class="st6" d="M745,330.5c2.3,0.1,4.2,2,4.1,4.4s-2,4.2-4.4,4.1c-2.3-0.1-4.1-1.9-4.1-4.2
							C740.6,332.4,742.6,330.5,745,330.5C745,330.5,745,330.5,745,330.5"/>
						<path class="st6" d="M787.3,397.9c2.3,0.1,4.2,2,4.1,4.4s-2,4.2-4.4,4.1c-2.3-0.1-4.1-2-4.1-4.2
							C783,399.8,785,397.9,787.3,397.9C787.3,397.9,787.3,397.9,787.3,397.9"/>
						<path class="st6" d="M1200.3,509.5c2.3,0.1,4.2,2,4.1,4.4c-0.1,2.3-2,4.2-4.4,4.1c-2.3-0.1-4.1-1.9-4.1-4.2
							C1196,511.4,1197.9,509.5,1200.3,509.5"/>
						<path class="st6" d="M1110.4,501.1c2.3,0.1,4.2,2,4.1,4.4s-2,4.2-4.4,4.1c-2.3-0.1-4.1-1.9-4.1-4.2
							C1106.1,502.9,1108.1,501,1110.4,501.1"/>
						<path class="st6" d="M585.3,537.7c2.3,0.1,4.2,2,4.1,4.4c-0.1,2.3-2,4.2-4.4,4.1c-2.3-0.1-4.1-1.9-4.1-4.2
							C580.9,539.6,582.9,537.7,585.3,537.7C585.3,537.7,585.3,537.7,585.3,537.7"/>
						<path class="st6" d="M1063.7,153.8c2.3,0.1,4.2,2,4.1,4.4c-0.1,2.3-2,4.2-4.4,4.1c-2.3-0.1-4.1-1.9-4.1-4.2
							C1059.4,155.7,1061.3,153.8,1063.7,153.8"/>
						<path class="st6" d="M1150.3,175.6c2.3,0.1,4.2,2,4.1,4.4s-2,4.2-4.4,4.1c-2.3-0.1-4.1-1.9-4.1-4.2
							C1145.9,177.5,1147.9,175.6,1150.3,175.6"/>
						<path class="st6" d="M1081.2,203c2.3,0.1,4.2,2,4.1,4.4s-2,4.2-4.4,4.1c-2.3-0.1-4.1-1.9-4.1-4.2
							C1076.8,204.9,1078.8,203,1081.2,203"/>
						<path class="st6" d="M1110.4,246.9c2.3,0.1,4.2,2,4.1,4.4c-0.1,2.3-2,4.2-4.4,4.1c-2.3-0.1-4.1-1.9-4.1-4.2
							C1106.1,248.7,1108.1,246.9,1110.4,246.9"/>
						<path class="st6" d="M1038.5,198.7c2.3,0.1,4.2,2,4.1,4.4c-0.1,2.3-2,4.2-4.4,4.1c-2.3-0.1-4.1-1.9-4.1-4.2
							C1034.2,200.6,1036.1,198.7,1038.5,198.7"/>
						<path class="st6" d="M787.3,158.1c2.3,0.1,4.2,2,4.1,4.4s-2,4.2-4.4,4.1c-2.3-0.1-4.1-1.9-4.1-4.2
							C783,159.9,785,158,787.3,158.1C787.3,158,787.3,158.1,787.3,158.1"/>
						<path class="st6" d="M848.8,251.1c2.3,0.1,4.2,2,4.1,4.4s-2,4.2-4.4,4.1c-2.3-0.1-4.1-1.9-4.1-4.2
							C844.5,253,846.4,251.1,848.8,251.1C848.8,251.1,848.8,251.1,848.8,251.1"/>
						<path class="st6" d="M1068.1,313.7c2.3,0.1,4.2,2,4.1,4.4s-2,4.2-4.4,4.1c-2.3-0.1-4.1-2-4.1-4.2
							C1063.7,315.6,1065.7,313.7,1068.1,313.7C1068.1,313.7,1068.1,313.7,1068.1,313.7"/>
						<path class="st6" d="M1076.8,417.9c2.3,0.1,4.2,2,4.1,4.4c-0.1,2.3-2,4.2-4.4,4.1c-2.3-0.1-4.1-1.9-4.1-4.2
							C1072.5,419.8,1074.4,417.9,1076.8,417.9"/>
						<path class="st6" d="M1150.3,406.4c2.3,0.1,4.2,2,4.1,4.4s-2,4.2-4.4,4.1c-2.3-0.1-4.1-1.9-4.1-4.2
							C1145.9,408.3,1147.9,406.4,1150.3,406.4"/>
						<path class="st6" d="M965.1,478.7c2.3,0.1,4.2,2,4.1,4.4c-0.1,2.3-2,4.2-4.4,4.1c-2.3-0.1-4.1-1.9-4.1-4.2
							C960.8,480.6,962.7,478.7,965.1,478.7C965.1,478.7,965.1,478.7,965.1,478.7"/>
						<path class="st6" d="M796.1,518.7c2.3,0.1,4.2,2,4.1,4.4c-0.1,2.3-2,4.2-4.4,4.1c-2.3-0.1-4.1-1.9-4.1-4.2
							C791.7,520.5,793.7,518.6,796.1,518.7C796.1,518.6,796.1,518.6,796.1,518.7"/>
						<path class="st6" d="M759.5,437.9c2.3,0.1,4.2,2,4.1,4.4s-2,4.2-4.4,4.1c-2.3-0.1-4.1-1.9-4.1-4.2
							C755.2,439.7,757.1,437.8,759.5,437.9"/>
						<path class="st6" d="M591.2,218c2.3,0.1,4.2,2,4.1,4.4c-0.1,2.3-2,4.2-4.4,4.1c-2.3-0.1-4.1-1.9-4.1-4.2
							C586.9,219.8,588.8,217.9,591.2,218"/>
						<path class="st6" d="M551.9,226.4c2.3,0.1,4.2,2,4.1,4.4c-0.1,2.3-2,4.2-4.4,4.1c-2.3-0.1-4.1-1.9-4.1-4.2
							C547.6,228.3,549.5,226.4,551.9,226.4C551.9,226.4,551.9,226.4,551.9,226.4"/>
						<path class="st6" d="M621.8,300.5c2.3,0.1,4.2,2,4.1,4.4c-0.1,2.3-2,4.2-4.4,4.1c-2.3-0.1-4.1-1.9-4.1-4.2
							C617.5,302.3,619.4,300.4,621.8,300.5C621.8,300.5,621.8,300.5,621.8,300.5"/>
						<path class="st6" d="M543.2,325.9c2.3,0.1,4.2,2,4.1,4.4c-0.1,2.3-2,4.2-4.4,4.1c-2.3-0.1-4.1-2-4.1-4.2
							C538.8,327.8,540.8,325.9,543.2,325.9"/>
						<path class="st6" d="M595.6,371.9c2.3,0.1,4.2,2,4.1,4.4c-0.1,2.3-2,4.2-4.4,4.1c-2.3-0.1-4.1-1.9-4.1-4.2
							C591.2,373.8,593.2,371.9,595.6,371.9C595.6,371.9,595.6,371.9,595.6,371.9"/>
						<path class="st6" d="M672.4,367.7c2.3,0.1,4.2,2,4.1,4.4c-0.1,2.3-2,4.2-4.4,4.1c-2.3-0.1-4.1-1.9-4.1-4.2
							C668.1,369.6,670.1,367.7,672.4,367.7"/>
						<path class="st6" d="M648,442.1c2.3,0.1,4.2,2,4.1,4.4c-0.1,2.3-2,4.2-4.4,4.1c-2.3-0.1-4.1-1.9-4.1-4.2
							C643.6,444,645.6,442.1,648,442.1C648,442.1,648,442.1,648,442.1"/>
						<path class="st6" d="M595.6,442.1c2.3,0.1,4.2,2,4.1,4.4c-0.1,2.3-2,4.2-4.4,4.1c-2.3-0.1-4.1-2-4.1-4.2
							C591.2,444,593.2,442.1,595.6,442.1"/>
						<path class="st6" d="M1034.1,529.2c2.3,0.1,4.2,2,4.1,4.4s-2,4.2-4.4,4.1c-2.3-0.1-4.1-2-4.1-4.2
							C1029.8,531.1,1031.7,529.2,1034.1,529.2C1034.1,529.2,1034.1,529.2,1034.1,529.2"/>
						<path class="st6" d="M811.3,259.6c2.3,0.1,4.2,2,4.1,4.4s-2,4.2-4.4,4.1c-2.3-0.1-4.1-1.9-4.1-4.2
							C807,261.5,809,259.6,811.3,259.6"/>
						<path class="st6" d="M817.5,350.3c2.3,0.1,4.2,2,4.1,4.4c-0.1,2.3-2,4.2-4.4,4.1c-2.3-0.1-4.1-1.9-4.1-4.2
							C813.1,352.1,815.1,350.2,817.5,350.3C817.5,350.3,817.5,350.3,817.5,350.3"/>
						<path class="st6" d="M908.4,371.9c2.3,0.1,4.2,2,4.1,4.4s-2,4.2-4.4,4.1c-2.3-0.1-4.1-1.9-4.1-4.2
							C904.1,373.8,906,371.9,908.4,371.9C908.4,371.9,908.4,371.9,908.4,371.9"/>
						<path class="st6" d="M837.6,453.4c2.3,0.1,4.2,2,4.1,4.4s-2,4.2-4.4,4.1c-2.3-0.1-4.1-2-4.1-4.2
							C833.2,455.3,835.2,453.4,837.6,453.4C837.6,453.4,837.6,453.4,837.6,453.4"/>
						<path class="st6" d="M889,305.5c2.3,0.1,4.2,2,4.1,4.4c-0.1,2.3-2,4.2-4.4,4.1c-2.3-0.1-4.1-2-4.1-4.2
							C884.7,307.4,886.6,305.5,889,305.5C889,305.5,889,305.5,889,305.5"/>
						<path class="st6" d="M804.8,190.3c2.3,0.1,4.2,2,4.1,4.4s-2,4.2-4.4,4.1c-2.3-0.1-4.1-2-4.1-4.2
							C800.5,192.1,802.4,190.2,804.8,190.3"/>
						<path class="st6" d="M687.3,280.7c2.3,0.1,4.2,2,4.1,4.4s-2,4.2-4.4,4.1c-2.3-0.1-4.1-1.9-4.1-4.2
							C683,282.5,684.9,280.6,687.3,280.7"/>
						<path class="st6" d="M759.5,397.9c2.3,0.1,4.2,2,4.1,4.4s-2,4.2-4.4,4.1c-2.3-0.1-4.1-2-4.1-4.2
							C755.2,399.8,757.1,397.9,759.5,397.9"/>
						<path class="st6" d="M877.8,367.7c2.3,0.1,4.2,2,4.1,4.4s-2,4.2-4.4,4.1c-2.3-0.1-4.1-1.9-4.1-4.2
							C873.4,369.6,875.4,367.7,877.8,367.7C877.7,367.7,877.7,367.7,877.8,367.7"/>
						<path class="st6" d="M717.5,288.6c2.3,0.1,4.2,2,4.1,4.4c-0.1,2.3-2,4.2-4.4,4.1c-2.3-0.1-4.1-2-4.1-4.2
							C713.1,290.4,715.1,288.5,717.5,288.6C717.4,288.6,717.4,288.6,717.5,288.6"/>
						<path class="st6" d="M889,263.8c2.3,0.1,4.2,2,4.1,4.4s-2,4.2-4.4,4.1c-2.3-0.1-4.1-2-4.1-4.2
							C884.7,265.7,886.6,263.8,889,263.8C889,263.8,889,263.8,889,263.8"/>
						<path class="st6" d="M960.7,350.3c2.3,0.1,4.2,2,4.1,4.4s-2,4.2-4.4,4.1c-2.3-0.1-4.1-1.9-4.1-4.2
							C956.4,352.1,958.4,350.2,960.7,350.3"/>
						<path class="st6" d="M989.1,406.4c2.3,0.1,4.2,2,4.1,4.4s-2,4.2-4.4,4.1c-2.3-0.1-4.1-1.9-4.1-4.2
							C984.8,408.3,986.7,406.4,989.1,406.4C989.1,406.4,989.1,406.4,989.1,406.4"/>
						<path class="st6" d="M904,91.3c2.3,0.1,4.2,2,4.1,4.4c-0.1,2.3-2,4.2-4.4,4.1c-2.3-0.1-4.1-2-4.1-4.2
							C899.7,93.2,901.6,91.3,904,91.3"/>
						<path class="st6" d="M796.1,541.9c2.3,0.1,4.2,2,4.1,4.4c-0.1,2.3-2,4.2-4.4,4.1c-2.3-0.1-4.1-2-4.1-4.2
							C791.7,543.8,793.7,541.9,796.1,541.9C796.1,541.9,796.1,541.9,796.1,541.9"/>
						<path class="st6" d="M889,437.9c2.3,0.1,4.2,2,4.1,4.4s-2,4.2-4.4,4.1c-2.3-0.1-4.1-1.9-4.1-4.2
							C884.7,439.7,886.6,437.8,889,437.9"/>
						<path class="st6" d="M740.6,162.3c2.3,0.1,4.2,2,4.1,4.4c-0.1,2.3-2,4.2-4.4,4.1c-2.3-0.1-4.1-1.9-4.1-4.2
							C736.3,164.1,738.2,162.3,740.6,162.3"/>
						<path class="st6" d="M904,242.7c2.3,0.1,4.2,2,4.1,4.4s-2,4.2-4.4,4.1c-2.3-0.1-4.1-1.9-4.1-4.2
							C899.7,244.5,901.6,242.6,904,242.7"/>
						<path class="st6" d="M711.1,474.5c2.3,0,4.2,2,4.2,4.3c0,2.3-2,4.2-4.3,4.2c-2.3,0-4.2-1.9-4.2-4.2
							C706.9,476.4,708.8,474.5,711.1,474.5"/>
						<path class="st6" d="M643.6,230.2c2.3,0.1,4.2,2,4.1,4.4c-0.1,2.3-2,4.2-4.4,4.1c-2.3-0.1-4.1-1.9-4.1-4.2
							C639.3,232,641.2,230.1,643.6,230.2"/>
						<path class="st6" d="M984.8,238.4c2.3,0.1,4.2,2,4.1,4.4s-2,4.2-4.4,4.1c-2.3-0.1-4.1-2-4.1-4.2
							C980.4,240.3,982.4,238.4,984.8,238.4C984.8,238.4,984.8,238.4,984.8,238.4"/>
						<path class="st6" d="M1021,280.7c2.3,0.1,4.2,2,4.1,4.4s-2,4.2-4.4,4.1c-2.3-0.1-4.1-1.9-4.1-4.2
							C1016.7,282.5,1018.6,280.6,1021,280.7C1021,280.7,1021,280.7,1021,280.7"/>
						<path class="st6" d="M969.5,309.5c2.3,0.1,4.2,2,4.1,4.4c-0.1,2.3-2,4.2-4.4,4.1c-2.3-0.1-4.1-1.9-4.1-4.2
							C965.1,311.4,967.1,309.5,969.5,309.5C969.5,309.5,969.5,309.5,969.5,309.5"/>
						<path class="st6" d="M717.4,259.6c2.3,0.1,4.2,2,4.1,4.4c-0.1,2.3-2,4.2-4.4,4.1c-2.3-0.1-4.1-1.9-4.1-4.2
							C713.1,261.4,715.1,259.6,717.4,259.6C717.4,259.6,717.4,259.6,717.4,259.6"/>
						<path class="st6" d="M1341.2,541.9c-2.3-0.1-4.2-2-4.1-4.4s2-4.2,4.4-4.1c2.3,0.1,4.1,1.9,4.1,4.2
							C1345.6,540.1,1343.6,542,1341.2,541.9C1341.3,541.9,1341.3,541.9,1341.2,541.9"/>
						<path class="st6" d="M1402.3,95.6c-2.3-0.1-4.2-2-4.1-4.4s2-4.2,4.4-4.1c2.3,0.1,4.1,1.9,4.1,4.2
							C1406.7,93.7,1404.7,95.6,1402.3,95.6"/>
						<path class="st6" d="M1133.8,269.8c-2.3-0.1-4.2-2-4.1-4.4c0.1-2.3,2-4.2,4.4-4.1c2.3,0.1,4.1,1.9,4.1,4.2
							C1138.1,267.9,1136.1,269.8,1133.8,269.8C1133.8,269.8,1133.8,269.8,1133.8,269.8"/>
						<path class="st6" d="M1181.4,261.3c-2.3-0.1-4.2-2-4.1-4.4s2-4.2,4.4-4.1c2.3,0.1,4.1,1.9,4.1,4.2
							C1185.7,259.5,1183.8,261.4,1181.4,261.3C1181.4,261.3,1181.4,261.3,1181.4,261.3"/>
						<path class="st6" d="M1345.6,257.1c-2.3-0.1-4.2-2-4.1-4.4c0.1-2.3,2-4.2,4.4-4.1c2.3,0.1,4.1,1.9,4.1,4.2
							C1350,255.2,1348,257.1,1345.6,257.1C1345.6,257.1,1345.6,257.1,1345.6,257.1"/>
						<path class="st6" d="M1393.6,471c-2.3-0.1-4.2-2-4.1-4.4s2-4.2,4.4-4.1c2.3,0.1,4.1,1.9,4.1,4.2
							C1397.9,469.1,1396,471,1393.6,471C1393.6,471,1393.6,471,1393.6,471"/>
						<path class="st6" d="M1242.7,479.5c-2.3-0.1-4.2-2-4.1-4.4c0.1-2.3,2-4.2,4.4-4.1c2.3,0.1,4.1,1.9,4.1,4.2
							C1247,477.6,1245,479.5,1242.7,479.5"/>
						<path class="st6" d="M1156.1,457.7c-2.3-0.1-4.2-2-4.1-4.4c0.1-2.3,2-4.2,4.4-4.1c2.3,0.1,4.1,1.9,4.1,4.2
							C1160.4,455.8,1158.5,457.7,1156.1,457.7"/>
						<path class="st6" d="M1225.2,430.3c-2.3-0.1-4.2-2-4.1-4.4s2-4.2,4.4-4.1c2.3,0.1,4.1,2,4.1,4.2
							C1229.5,428.4,1227.6,430.3,1225.2,430.3"/>
						<path class="st6" d="M1195.9,386.4c-2.3-0.1-4.2-2-4.1-4.4c0.1-2.3,2-4.2,4.4-4.1c2.3,0.1,4.1,1.9,4.1,4.2
							C1200.3,384.5,1198.3,386.4,1195.9,386.4"/>
						<path class="st6" d="M1267.9,434.5c-2.3-0.1-4.2-2-4.1-4.4c0.1-2.3,2-4.2,4.4-4.1c2.3,0.1,4.1,1.9,4.1,4.2
							C1272.2,432.7,1270.2,434.5,1267.9,434.5"/>
						<path class="st6" d="M1238.3,319.6c-2.3-0.1-4.2-2-4.1-4.4c0.1-2.3,2-4.2,4.4-4.1c2.3,0.1,4.1,1.9,4.1,4.2
							C1242.6,317.7,1240.7,319.6,1238.3,319.6C1238.3,319.6,1238.3,319.6,1238.3,319.6"/>
						<path class="st6" d="M1229.6,215.4c-2.3-0.1-4.2-2-4.1-4.4c0.1-2.3,2-4.2,4.4-4.1c2.3,0.1,4.1,1.9,4.1,4.2
							C1233.9,213.5,1231.9,215.4,1229.6,215.4"/>
						<path class="st6" d="M1156.1,226.8c-2.3-0.1-4.2-2-4.1-4.4s2-4.2,4.4-4.1c2.3,0.1,4.1,1.9,4.1,4.2
							C1160.4,225,1158.5,226.9,1156.1,226.8"/>
						<path class="st6" d="M1341.2,154.6c-2.3-0.1-4.2-2-4.1-4.4s2-4.2,4.4-4.1c2.3,0.1,4.1,1.9,4.1,4.2
							C1345.6,152.7,1343.6,154.6,1341.2,154.6C1341.3,154.6,1341.3,154.6,1341.2,154.6"/>
						<path class="st6" d="M1417.4,332.6c-2.3-0.1-4.2-2-4.1-4.4s2-4.2,4.4-4.1c2.3,0.1,4.1,1.9,4.1,4.2
							C1421.7,330.7,1419.7,332.6,1417.4,332.6C1417.4,332.6,1417.4,332.6,1417.4,332.6"/>
						<path class="st6" d="M1428.6,265.6c-2.3-0.1-4.2-2-4.1-4.4s2-4.2,4.4-4.1c2.3,0.1,4.1,2,4.1,4.2
							C1432.9,263.7,1431,265.6,1428.6,265.6C1428.6,265.6,1428.6,265.6,1428.6,265.6"/>
						<path class="st6" d="M1417.4,369.4c-2.3-0.1-4.2-2-4.1-4.4s2-4.2,4.4-4.1c2.3,0.1,4.1,1.9,4.1,4.2
							C1421.7,367.6,1419.7,369.5,1417.4,369.4"/>
						<path class="st6" d="M1345.6,283c-2.3-0.1-4.2-2-4.1-4.4s2-4.2,4.4-4.1c2.3,0.1,4.1,1.9,4.1,4.2
							C1350,281.2,1348,283.1,1345.6,283"/>
						<path class="st6" d="M1317.2,226.8c-2.3-0.1-4.2-2-4.1-4.4s2-4.2,4.4-4.1c2.3,0.1,4.1,1.9,4.1,4.2
							C1321.6,225,1319.6,226.9,1317.2,226.8C1317.2,226.9,1317.2,226.8,1317.2,226.8"/>
						<path class="st6" d="M1377,533.1c-2.3-0.1-4.2-2-4.1-4.4s2-4.2,4.4-4.1c2.3,0.1,4.1,2,4.1,4.2
							C1381.3,531.2,1379.3,533.1,1377,533.1"/>
						<path class="st6" d="M1417.4,195.4c-2.3-0.1-4.2-2-4.1-4.4s2-4.2,4.4-4.1c2.3,0.1,4.1,1.9,4.1,4.2
							C1421.7,193.5,1419.7,195.4,1417.4,195.4C1417.4,195.4,1417.4,195.4,1417.4,195.4"/>
						<path class="st6" d="M1402.3,390.6c-2.3-0.1-4.2-2-4.1-4.4s2-4.2,4.4-4.1c2.3,0.1,4.1,1.9,4.1,4.2
							C1406.7,388.8,1404.7,390.7,1402.3,390.6C1402.3,390.6,1402.3,390.6,1402.3,390.6"/>
						<path class="st6" d="M1321.6,394.9c-2.3-0.1-4.2-2-4.1-4.4s2-4.2,4.4-4.1c2.3,0.1,4.1,1.9,4.1,4.2
							C1325.9,393,1324,394.9,1321.6,394.9"/>
						<path class="st6" d="M1285.3,352.6c-2.3-0.1-4.2-2-4.1-4.4c0.1-2.3,2-4.2,4.4-4.1c2.3,0.1,4.1,2,4.1,4.2
							C1289.7,350.7,1287.7,352.6,1285.3,352.6C1285.4,352.6,1285.4,352.6,1285.3,352.6"/>
						<path class="st6" d="M1336.9,323.7c-2.3-0.1-4.2-2-4.1-4.4c0.1-2.3,2-4.2,4.4-4.1c2.3,0.1,4.1,2,4.1,4.2
							C1341.2,321.9,1339.3,323.8,1336.9,323.7C1336.9,323.7,1336.9,323.7,1336.9,323.7"/>
					</g>
					<g>
						<defs>
							
								<rect id="SVGID_3_" x="963.9" y="16.2" transform="matrix(0.3907 -0.9205 0.9205 0.3907 562.4636 939.7432)" width="54.4" height="57.5"/>
						</defs>
						<clipPath id="SVGID_4_">
							<use xlink:href="#SVGID_3_"  style="overflow:visible;"/>
						</clipPath>
						<g class="st7">
							<g>
								<defs>
									<rect id="SVGID_5_" x="-337.2" y="-1268.5" width="1909.9" height="1358.1"/>
								</defs>
								<clipPath id="SVGID_6_">
									<use xlink:href="#SVGID_5_"  style="overflow:visible;"/>
								</clipPath>
								<g class="st8">
									<g>
										<g>
											<defs>
												<rect id="SVGID_7_" x="963.9" y="19.4" width="57" height="58.4"/>
											</defs>
											<clipPath id="SVGID_8_">
												<use xlink:href="#SVGID_7_"  style="overflow:visible;"/>
											</clipPath>
											<g class="st9">
												<g>
													<defs>
														<path id="SVGID_9_" d="M1020.1,49.9c0.1-1.2-0.8-2.2-2-2.3c0,0,0,0,0,0L997,43.1l5.8-20.4c0.5-1.1-0.1-2.4-1.2-2.8
															s-2.4,0.1-2.8,1.2l0,0l-10.7,18.6l-17.8-11.9c-0.9-0.7-2.2-0.7-3,0.2c-0.8,0.9-0.7,2.2,0.2,3l14.6,15.9l-16.8,13.1
															c-1,0.6-1.3,1.9-0.7,2.9c0,0,0,0,0,0c0.6,1,2,1.4,3,0.8l19.7-8.7l7.4,20c0.3,1.2,1.4,1.9,2.6,1.6
															c1.1-0.3,1.9-1.4,1.6-2.5c0,0,0,0,0,0l-2.4-21.3l21.4-0.7C1019,51.9,1020.1,51.1,1020.1,49.9
															C1020.2,49.9,1020.2,49.9,1020.1,49.9"/>
													</defs>
													<clipPath id="SVGID_10_">
														<use xlink:href="#SVGID_9_"  style="overflow:visible;"/>
													</clipPath>
													<g class="st10">
														<g>
															<defs>
																<rect id="SVGID_11_" x="963.9" y="19.4" width="57" height="58.4"/>
															</defs>
															<clipPath id="SVGID_12_">
																<use xlink:href="#SVGID_11_"  style="overflow:visible;"/>
															</clipPath>
															<g class="st11">
																
																	<rect x="957.3" y="9.6" transform="matrix(0.3907 -0.9205 0.9205 0.3907 562.4625 939.7377)" class="st12" width="67.7" height="70.7"/>
															</g>
														</g>
													</g>
												</g>
											</g>
										</g>
									</g>
								</g>
							</g>
						</g>
					</g>
					<g>
						<defs>
							<polygon id="SVGID_13_" points="967,61.4 989.7,47.9 995.6,73.5 996.5,73.3 990.6,47.7 1016.9,50 1016.9,49.1 990.6,46.7 
								1000.9,22.5 1000.1,22.2 989.8,46.4 969.9,29.1 969.2,29.8 989.2,47.1 966.6,60.7 							"/>
						</defs>
						<clipPath id="SVGID_14_">
							<use xlink:href="#SVGID_13_"  style="overflow:visible;"/>
						</clipPath>
						<g class="st13">
							<g>
								<defs>
									<rect id="SVGID_15_" x="-337.2" y="-1268.5" width="1909.9" height="1358.1"/>
								</defs>
								<clipPath id="SVGID_16_">
									<use xlink:href="#SVGID_15_"  style="overflow:visible;"/>
								</clipPath>
								<g class="st14">
									
										<rect x="959.7" y="12.4" transform="matrix(0.3907 -0.9205 0.9205 0.3907 562.3903 939.5015)" class="st15" width="62.3" height="65"/>
								</g>
							</g>
						</g>
					</g>
					<g>
						<defs>
							
								<rect id="SVGID_17_" x="1132" y="31.6" transform="matrix(0.809 -0.5878 0.5878 0.809 188.1409 689.0957)" width="45" height="46.9"/>
						</defs>
						<clipPath id="SVGID_18_">
							<use xlink:href="#SVGID_17_"  style="overflow:visible;"/>
						</clipPath>
						<g class="st16">
							<g>
								<defs>
									<rect id="SVGID_19_" x="-263.8" y="-1468.3" width="2210" height="1571.6"/>
								</defs>
								<clipPath id="SVGID_20_">
									<use xlink:href="#SVGID_19_"  style="overflow:visible;"/>
								</clipPath>
								<g class="st17">
									<g>
										<g>
											<defs>
												<rect id="SVGID_21_" x="1126.7" y="32.7" width="47.6" height="47.6"/>
											</defs>
											<clipPath id="SVGID_22_">
												<use xlink:href="#SVGID_21_"  style="overflow:visible;"/>
											</clipPath>
											<g class="st18">
												<g>
													<defs>
														<path id="SVGID_23_" d="M1172.8,70.6c0.6-0.8,0.4-1.9-0.4-2.5l-13-12l12.8-12c0.7-0.6,0.8-1.7,0.2-2.5
															c-0.6-0.7-1.5-0.8-2.3-0.4l-15.4,8.7l-7.4-15.8c-0.4-0.9-1.4-1.4-2.3-1c-0.8,0.3-1.3,1.2-1.1,2.1l3.4,17.3l-17.4,2.2
															c-1-0.1-1.8,0.7-1.9,1.6c-0.1,1,0.7,1.8,1.6,1.9c0.1,0,0.2,0,0.3,0l17.6,2.1l-3.3,17.2c-0.3,0.9,0.2,1.9,1.1,2.2
															s1.9-0.2,2.2-1.1l7.4-16l15.3,8.4C1171,71.6,1172.1,71.4,1172.8,70.6C1172.7,70.6,1172.7,70.6,1172.8,70.6"/>
													</defs>
													<clipPath id="SVGID_24_">
														<use xlink:href="#SVGID_23_"  style="overflow:visible;"/>
													</clipPath>
													<g class="st19">
														<g>
															<defs>
																<rect id="SVGID_25_" x="1128.2" y="32.7" width="46" height="47.6"/>
															</defs>
															<clipPath id="SVGID_26_">
																<use xlink:href="#SVGID_25_"  style="overflow:visible;"/>
															</clipPath>
															<g class="st20">
																
																	<rect x="1124.3" y="23.9" transform="matrix(0.809 -0.5878 0.5878 0.809 188.1384 689.0939)" class="st12" width="60.3" height="62.2"/>
															</g>
														</g>
													</g>
												</g>
											</g>
										</g>
									</g>
								</g>
							</g>
						</g>
					</g>
					<g>
						<defs>
							<polygon id="SVGID_27_" points="1131.7,56.7 1153,56.6 1146.3,76.8 1147,77 1153.7,56.8 1170.9,69.2 1171.3,68.6 
								1154.2,56.2 1171.5,43.6 1171,43 1153.7,55.6 1147.2,35.4 1146.5,35.6 1153,55.8 1131.7,55.9 							"/>
						</defs>
						<clipPath id="SVGID_28_">
							<use xlink:href="#SVGID_27_"  style="overflow:visible;"/>
						</clipPath>
						<g class="st21">
							<g>
								<defs>
									<rect id="SVGID_29_" x="-263.8" y="-1468.3" width="2210" height="1571.6"/>
								</defs>
								<clipPath id="SVGID_30_">
									<use xlink:href="#SVGID_29_"  style="overflow:visible;"/>
								</clipPath>
								<g class="st22">
									
										<rect x="1127.5" y="26.6" transform="matrix(0.809 -0.5878 0.5878 0.809 188.2687 689.4642)" class="st15" width="55.2" height="56.8"/>
								</g>
							</g>
						</g>
					</g>
					<path class="st23" d="M161.7,34.2c-0.7,0.1-1.3,0.1-2,0.3c-0.5,0.1-1,0.3-1.5,0.6c-4.7,2.2-14.8,8.5-9.3,19.7
						c1.4,2.5,4.1,4.1,7,4.3c0.7,0,1.3,0.3,1.7,0.8l3,4c0.3,0.4,0.9,0.6,1.4,0.5l12.9-3.1c0.5-0.1,0.9-0.5,1-1.1l0.9-4.9
						c0.1-0.6,0.5-1.2,1.1-1.5c3.1-1.6,4.5-5.2,4.3-7C180.6,34.1,168.2,33.5,161.7,34.2z"/>
					<path class="st24" d="M158.8,36.4c-0.7,0.2-1.3,0.4-1.9,0.7c-0.6,0.3-1.2,0.6-1.8,1c-4.2,3.1-14.2,11.9-6.6,21.8
						c1.9,2.2,4.8,3.3,7.7,2.8c0.6-0.1,1.3,0.1,1.8,0.5l3.7,3.3c0.4,0.4,1,0.4,1.4,0.2l12.1-5.5c0.5-0.2,0.8-0.7,0.8-1.2v-5
						c0-0.7,0.3-1.3,0.8-1.7c2.2-1.9,3.3-4.8,2.9-7.7C177.1,33.4,163.8,35.2,158.8,36.4z"/>
					<path class="st25" d="M164.1,53c0.1-0.1,0.1-0.2,0.1-0.3L157,37l-0.2,0.1l-0.2,0.1l7.2,15.7C163.9,53,164,53,164.1,53z"/>
					<path class="st25" d="M160.8,55c0.1,0.1,0.2,0.1,0.2,0c0,0,0,0,0,0c0.1-0.1,0.1-0.2,0-0.3L150,42.6l-0.3,0.3L160.8,55z"/>
					<path class="st25" d="M145.9,50.2c0,0.1,0,0.3-0.1,0.4l12.8,7.2c0.1,0,0.1,0,0.2,0c0,0,0.1,0,0.1-0.1c0.1-0.1,0-0.2-0.1-0.3
						L145.9,50.2z"/>
					<path class="st25" d="M157.5,61l-9.7-2c0.1,0.2,0.2,0.3,0.4,0.5l9.2,1.9c0,0,0.1,0,0.1,0c0.1,0,0.2-0.1,0.2-0.2
						C157.7,61,157.6,61,157.5,61L157.5,61z"/>
					<path class="st25" d="M179.3,44.5l-4.8,8.5c-0.1,0.1,0,0.2,0.1,0.3c0,0,0,0,0,0c0.1,0,0.1,0,0.2,0c0,0,0.1-0.1,0.1-0.1l4.6-8.2
						L179.3,44.5z"/>
					<path class="st25" d="M174,37.4L171,51.9c0,0.1,0,0.2,0.2,0.2c0,0,0,0,0,0c0,0,0.1,0,0.1,0c0.1,0,0.1-0.1,0.1-0.2l2.9-14.3
						L174,37.4z"/>
					<path class="st25" d="M165.5,35.6l1.9,16.2c0,0.1,0.1,0.2,0.2,0.2c0,0,0,0,0,0h0.1c0.1,0,0.1-0.1,0.1-0.2l-1.9-16.2L165.5,35.6
						z"/>
					<path class="st26" d="M158.8,36.4c-0.7,0.2-1.3,0.4-1.9,0.7c-0.6,0.3-1.2,0.6-1.8,1c-4.2,3.1-14.2,11.9-6.6,21.8
						c1.9,2.2,4.8,3.3,7.7,2.8c0.6-0.1,1.3,0.1,1.8,0.5l3.7,3.3c0.4,0.4,1,0.4,1.4,0.2l12.1-5.5c0.5-0.2,0.8-0.7,0.8-1.2v-5
						c0-0.7,0.3-1.3,0.8-1.7c2.2-1.9,3.3-4.8,2.9-7.7C177.1,33.4,163.8,35.2,158.8,36.4z M178.6,46c0.4,2.7-0.6,5.4-2.7,7.2
						c-0.5,0.4-0.8,1-0.8,1.6v4.7c0,0.5-0.3,0.9-0.7,1.2l-11.3,5.2c-0.4,0.2-1,0.1-1.3-0.2l-3.5-3.1c-0.5-0.4-1.1-0.6-1.7-0.5
						c-2.7,0.4-5.4-0.6-7.2-2.7c-7.1-9.3,2.3-17.6,6.2-20.4c0.5-0.4,1.1-0.7,1.7-1c0.6-0.3,1.2-0.5,1.8-0.6
						C163.8,36.2,176.2,34.5,178.6,46L178.6,46z"/>
					<path class="st23" d="M395.2,43.7c0.7,0,1.3,0.1,2,0.3c0.5,0.1,1,0.3,1.5,0.6c4.7,2.2,14.8,8.5,9.3,19.7
						c-1.4,2.5-4.1,4.1-7,4.3c-0.7,0-1.3,0.3-1.7,0.8l-3,4c-0.3,0.4-0.9,0.6-1.4,0.5l-12.9-3.1c-0.5-0.1-0.9-0.5-1-1l-0.9-4.9
						c-0.1-0.6-0.5-1.2-1.1-1.5c-3.1-1.6-4.5-5.2-4.3-7C376.3,43.5,388.7,42.9,395.2,43.7z"/>
					<path class="st24" d="M398.2,45.8c0.7,0.2,1.3,0.4,1.9,0.7c0.6,0.3,1.2,0.6,1.8,1c4.2,3.1,14.2,11.9,6.6,21.8
						c-1.9,2.2-4.8,3.3-7.7,2.8c-0.6-0.1-1.3,0.1-1.8,0.5l-3.8,3.3c-0.4,0.3-1,0.4-1.4,0.2l-12-5.5c-0.5-0.2-0.8-0.7-0.8-1.2v-5
						c0-0.7-0.3-1.3-0.8-1.7c-2.2-1.9-3.3-4.8-2.9-7.7C379.9,42.8,393.1,44.6,398.2,45.8z"/>
					<path class="st25" d="M392.8,62.4c-0.1,0-0.1-0.2-0.1-0.3c0,0,0,0,0,0l7.2-15.7l0.2,0.1l0.2,0.1l-7.2,15.7
						C393.1,62.4,392.9,62.4,392.8,62.4C392.8,62.4,392.8,62.4,392.8,62.4z"/>
					<path class="st25" d="M396.1,64.4c-0.1,0-0.2,0-0.2,0c0,0,0,0,0,0c-0.1-0.1-0.1-0.2,0-0.3c0,0,0,0,0,0L406.9,52l0.3,0.3
						L396.1,64.4z"/>
					<path class="st25" d="M411,59.7c0,0.1,0,0.3,0.1,0.4l-12.8,7.2c-0.1,0-0.1,0-0.2,0c0,0-0.1-0.1-0.1-0.1c-0.1-0.1,0-0.2,0.1-0.3
						L411,59.7z"/>
					<path class="st25" d="M399.5,70.4l9.7-2c-0.1,0.2-0.2,0.3-0.3,0.5l-9.2,1.9c0,0-0.1,0-0.1,0c-0.1,0-0.1-0.1-0.1-0.2
						C399.3,70.5,399.4,70.4,399.5,70.4z"/>
					<path class="st25" d="M377.6,53.9l4.8,8.5c0.1,0.1,0,0.2-0.1,0.3c0,0,0,0,0,0c-0.1,0-0.1,0-0.2,0c0,0-0.1-0.1-0.1-0.1l-4.6-8.2
						L377.6,53.9z"/>
					<path class="st25" d="M383,46.8l2.9,14.4c0,0.1,0,0.2-0.2,0.2c0,0,0,0,0,0c0,0-0.1,0-0.1,0c-0.1,0-0.1-0.1-0.1-0.2l-2.9-14.3
						L383,46.8z"/>
					<path class="st25" d="M391.5,45l-1.9,16.2c0,0.1-0.1,0.2-0.2,0.2h-0.1c-0.1,0-0.1-0.1-0.1-0.2l1.9-16.2L391.5,45z"/>
					<path class="st26" d="M377.4,55.1c-0.4,2.9,0.7,5.8,2.9,7.7c0.5,0.4,0.8,1,0.8,1.7v5c0,0.5,0.3,1,0.8,1.2l12.1,5.5
						c0.5,0.2,1,0.1,1.4-0.2l3.8-3.3c0.5-0.4,1.2-0.6,1.8-0.5c2.9,0.4,5.8-0.6,7.7-2.8c7.6-9.9-2.4-18.7-6.6-21.8
						c-0.6-0.4-1.1-0.7-1.8-1c-0.6-0.3-1.3-0.5-1.9-0.7C393.1,44.6,379.9,42.8,377.4,55.1z M397.9,46.7c0.6,0.1,1.2,0.4,1.8,0.6
						c0.6,0.3,1.1,0.6,1.7,1c3.9,2.9,13.3,11.1,6.2,20.4c-1.8,2.1-4.5,3.1-7.2,2.7c-0.6-0.1-1.2,0.1-1.7,0.5l-3.5,3.1
						c-0.4,0.3-0.9,0.4-1.3,0.2L382.5,70c-0.4-0.2-0.7-0.7-0.7-1.2v-4.7c0-0.6-0.3-1.2-0.8-1.6c-2.1-1.8-3.1-4.5-2.7-7.2
						C380.8,43.9,393.2,45.6,397.9,46.7L397.9,46.7z"/>
				</g>
			</g>
		</g>
	</g>
</g>
</svg>
