<svg xmlns="http://www.w3.org/2000/svg" xmlns:xlink="http://www.w3.org/1999/xlink" viewBox="0 0 4000 984"><defs><style>.cls-1{fill:none;}.cls-2{clip-path:url(#clip-path);}.cls-3{fill:#2888c6;}.cls-4{fill:#3c64af;}.cls-5{fill:#a6b8d1;}.cls-6{fill:url(#New_Pattern_4);}</style><clipPath id="clip-path"><rect class="cls-1" width="57.21" height="57.08"/></clipPath><pattern id="New_Pattern_4" data-name="New Pattern 4" width="57.21" height="57.08" patternTransform="translate(0 -16)" patternUnits="userSpaceOnUse" viewBox="0 0 57.21 57.08"><rect class="cls-1" width="57.21" height="57.08"/><rect class="cls-1" width="57.21" height="57.08"/><g class="cls-2"><rect class="cls-3" x="-115.6" y="-172.71" width="288" height="288"/><path class="cls-4" d="M-115.23-56.48a8.53,8.53,0,0,1,.77.7A6.93,6.93,0,0,0-113-57.16a5.55,5.55,0,0,0-1.42-1.44c-.28.25-.51.5-.78.71-.09.07-.24.06-.37.09v-3.49l1.18-.88a24.23,24.23,0,0,1,2,1.89.76.76,0,0,0,.56-.28c.15-.13.39-.39.58-.58l23.81-23.78.76-.78c0-.38-.28-.51-.47-.7L-94-93.19l-17.3-17.28-.89-.86c-.9.54-1.4,1.46-2.23,2-.48-.21-.67-.75-1.18-.86v-3.49a1,1,0,0,1,.37.08,8.53,8.53,0,0,1,.77.7,6.93,6.93,0,0,0,1.43-1.38,5.55,5.55,0,0,0-1.42-1.44c-.28.26-.51.5-.78.71a1,1,0,0,1-.37.1v-3.5l1.18-.87a22.57,22.57,0,0,1,2,1.88.73.73,0,0,0,.56-.28c.15-.14.39-.38.58-.58L-87.52-142l.76-.78c0-.38-.28-.51-.47-.69L-94-150.33l-17.3-17.28c-.28-.29-.58-.57-.89-.87-.9.54-1.4,1.47-2.23,2-.48-.21-.67-.75-1.18-.85v-3.5a.6.6,0,0,1,.38.08c.26.21.5.46.77.71a10,10,0,0,0,1.46-1.38l-.83-1a27,27,0,0,1,3.24-.07,1.1,1.1,0,0,1,.44.23c.25.22.48.48.75.76-.59.83-1.43,1.4-2,2.13l25.6,25.58c.27-.09.49-.41.74-.67q7.14-7.11,14.26-14.24l9.75-9.74.8-.82c-.61-.81-1.38-1.4-2-2.16a2.92,2.92,0,0,1,.88-1,.64.64,0,0,1,.38-.12c1,0,2-.06,3.17,0l-.8,1c.11.15.21.31.33.46l.85,1c.5-.08.67-.4.91-.62s.43-.44.68-.71c-.12-.17-.21-.34-.33-.49s-.28-.29-.49-.52a2,2,0,0,0,.43-.1h2.47a1.14,1.14,0,0,1,1,.42c.16.2.35.4.57.64-.62.77-1.38,1.36-2,2.13a2.86,2.86,0,0,0,.72.83l19.78,19.77,4.44,4.43.59.56a1.64,1.64,0,0,0,.29-.16L-3.2-169a2,2,0,0,0,.18-.32l-2-2.06c.18-.22.33-.4.49-.56s.35-.33.55-.51H-.47l-.53.59-.34.38c.09.39.41.56.64.8s.44.43.69.67a9.83,9.83,0,0,0,1.47-1.34l-.83-1a5,5,0,0,1,.54-.07H3.43a1.3,1.3,0,0,1,1.16.51c.13.16.28.3.46.5a5.2,5.2,0,0,1-.35.47A21.92,21.92,0,0,0,3-169.42v.26l25.08,25.08a2.61,2.61,0,0,0,.31.27h.09c.63-.49,24.78-24.58,25.58-25.54-.57-.78-1.4-1.35-2-2.11a1.6,1.6,0,0,1,.1-.23c.77-.86.77-.86,1.93-.86h2a.79.79,0,0,1,.22.06c0,.45-.57.56-.67,1A15.39,15.39,0,0,0,57-170.13a7.5,7.5,0,0,0,1.45-1.42l-.8-1a26.75,26.75,0,0,1,3.23-.07,1.1,1.1,0,0,1,.44.23c.26.22.48.48.76.76-.59.84-1.44,1.4-2.11,2.3l25.59,25.46a2.28,2.28,0,0,0,.88-.72l14-14,10-10c.27-.26.52-.53.81-.82-.61-.81-1.38-1.4-2-2.16a2.89,2.89,0,0,1,.87-1,.67.67,0,0,1,.39-.12c1,0,2-.05,3.17,0l-.76.91a3.62,3.62,0,0,0,1.38,1.47,9.68,9.68,0,0,0,1.29-1.27c0-.51-.53-.62-.68-1.08a3.59,3.59,0,0,0,.35-.08h2.47a1.14,1.14,0,0,1,1,.42c.17.2.36.39.57.62-.6.8-1.38,1.37-2,2.15a3,3,0,0,0,.72.83L137.69-149l4.51,4.51c.19.19.4.37.6.56a1.64,1.64,0,0,0,.29-.16l25.16-25.15a2,2,0,0,0,.19-.31l-2-2.06a4.89,4.89,0,0,1,1-1.08h3.06a1.91,1.91,0,0,1,.34.1l-.77.87c.08.39.41.56.63.8s.44.43.65.64c.49-.08.61-.57,1-.75v3.7l-.91.69c-.75-.63-1.35-1.37-2-2-.14,0-.22,0-.27.09L144-143.17a1.56,1.56,0,0,0-.16.28,2.43,2.43,0,0,0,.24.32q12.57,12.56,25.15,25.1c12.58,12.54.12,0,.23.07.74-.55,1.3-1.35,2.08-1.94l.9.7v3.72l-.88-.83a13,13,0,0,0-1.43,1.44,13.6,13.6,0,0,0,1.42,1.42c.3-.28.59-.54.89-.8v3.7l-.89.67c-.79-.58-1.35-1.38-2.09-1.94a1.13,1.13,0,0,0-.24.08L144-86a1.12,1.12,0,0,0-.16.28,2.43,2.43,0,0,0,.24.32l25.15,25.1a.48.48,0,0,1,.24.08c.72-.58,1.31-1.34,2.06-2l.91.7v3.7l-.88-.82a13.79,13.79,0,0,0-1.43,1.43,19,19,0,0,0,1.4,1.44l.91-.81v3.7l-.89.67c-.79-.58-1.35-1.39-2.09-1.94a1.13,1.13,0,0,0-.24.08L144-28.92a1.12,1.12,0,0,0-.16.28,2.43,2.43,0,0,0,.24.32L169.23-3.23a.48.48,0,0,1,.24.08c.72-.57,1.31-1.34,2.06-2l.91.7v3.7l-.88-.82a13.79,13.79,0,0,0-1.43,1.43c.43.53.92.94,1.4,1.44l.91-.82V4.29l-.89.67c-.79-.59-1.35-1.39-2.09-1.94a1.13,1.13,0,0,0-.24.08L144,28.27a1.18,1.18,0,0,0-.16.29,2.34,2.34,0,0,0,.24.31Q156.65,41.43,169.23,54a.63.63,0,0,0,.23.08c.74-.56,1.3-1.35,2.08-2l.9.7V56.5l-.88-.82a13,13,0,0,0-1.47,1.4c.43.54.92,1,1.4,1.45l.91-.82v3.7l-.89.67c-.79-.59-1.35-1.39-2.09-1.94-.11,0-.19,0-.24.08L144,85.42a1.56,1.56,0,0,0-.16.28,2.43,2.43,0,0,0,.24.32q12.53,12.56,25.11,25.06c12.58,12.51.12,0,.23.08.74-.56,1.3-1.36,2.08-2l.9.7v3.7l-.88-.82a15.53,15.53,0,0,0-1.42,1.39l.86,1.07h-3.5l-1-1c.16-.19.3-.38.45-.54l1.58-1.6a1.17,1.17,0,0,0-.17-.31L143.18,86.69a.53.53,0,0,0-.21-.11l-25.59,25.57a9.44,9.44,0,0,0,1,1,7.7,7.7,0,0,1,1,1.06l-.84,1h-3.7l.94-1a6,6,0,0,0-1.46-1.46c-.4.4-.79.78-1.17,1.17a1.82,1.82,0,0,0-.15.27l.81,1h-3.5l-1-1c.16-.19.3-.38.45-.54l1.59-1.6a1.57,1.57,0,0,0-.18-.31Q98.59,99.25,86,86.69a.53.53,0,0,0-.21-.11l-25.6,25.57a9.44,9.44,0,0,0,1,1,7.7,7.7,0,0,1,1,1.06l-.84,1h-3.7l.94-1a6,6,0,0,0-1.46-1.46c-.4.4-.79.78-1.16,1.17a1.2,1.2,0,0,0-.16.27c.27.35.54.68.81,1H53.09l-1-1c.16-.19.3-.38.46-.54.52-.54,1-1.07,1.58-1.6a1.57,1.57,0,0,0-.18-.31Q41.4,99.25,28.8,86.69a.56.56,0,0,0-.2-.11L3,112.15a9.44,9.44,0,0,0,1,1,7.7,7.7,0,0,1,1,1.06l-.83,1H.42l.94-1A5.81,5.81,0,0,0-.1,112.83L-1.26,114a1.2,1.2,0,0,0-.16.27l.81,1H-4.1l-1-1c.16-.19.29-.38.45-.54.52-.54,1-1.07,1.58-1.6a1.57,1.57,0,0,0-.18-.31Q-15.8,99.25-28.39,86.69a.56.56,0,0,0-.2-.11l-25.59,25.57a7.87,7.87,0,0,0,1,1,7.7,7.7,0,0,1,1,1.06l-.83,1h-3.71l.94-1a5.92,5.92,0,0,0-1.45-1.46l-1.17,1.17a1.2,1.2,0,0,0-.16.27l.82,1h-3.5l-1-1c.16-.19.29-.38.45-.54.52-.54,1.06-1.07,1.58-1.6a1.87,1.87,0,0,0-.17-.31l-25.2-25a2,2,0,0,0-.38-.21L-111.46,112a6.74,6.74,0,0,0,1.07,1.19c.35.32.68.65,1,1l-.85,1.06h-3.7l.93-1a6,6,0,0,0-1.43-1.45c-.28.26-.51.5-.78.71a1,1,0,0,1-.37.1v-3.5l1.18-.87a22.57,22.57,0,0,1,2,1.88c.29,0,.41-.14.56-.28l.58-.58,23.76-23.74.76-.78c0-.37-.28-.51-.47-.69L-94,78.26-111.3,61c-.28-.29-.58-.57-.89-.87-.9.54-1.4,1.47-2.23,2-.48-.21-.67-.75-1.18-.85v-3.5a.57.57,0,0,1,.37.08,8.63,8.63,0,0,1,.77.71A6.78,6.78,0,0,0-113,57.08a5.89,5.89,0,0,0-1.42-1.44c-.28.26-.51.5-.78.71-.09.08-.24.07-.37.1V53l1.16-.86c.46.18.71.6,1.06.92s.68.67,1,1a.75.75,0,0,0,.6-.28l.58-.57,23.76-23.75.76-.78c0-.37-.28-.51-.47-.69L-94,21.08-111.3,3.8c-.28-.29-.58-.57-.89-.87-.9.55-1.4,1.47-2.23,2-.48-.21-.67-.75-1.18-.85V.58a.52.52,0,0,1,.37.09,8.53,8.53,0,0,1,.77.7A7.13,7.13,0,0,0-113,0a5.68,5.68,0,0,0-1.42-1.43c-.28.25-.51.49-.78.7-.09.08-.24.07-.37.1V-4.14l1.18-.88a24.23,24.23,0,0,1,2,1.89.76.76,0,0,0,.56-.28c.15-.13.39-.39.58-.58l23.76-23.74.76-.79c0-.37-.28-.51-.47-.69L-94-36l-17.3-17.28c-.28-.29-.58-.57-.89-.86-.9.54-1.4,1.46-2.23,2-.48-.21-.67-.75-1.18-.86v-3.49A.92.92,0,0,1-115.23-56.48ZM-2.46,111.08c.06.07.17.09.29.15.76-.57,1.32-1.37,2.12-2,.81.57,1.35,1.39,2.16,2,.17-.14.33-.25.48-.38l.51-.51L27,86.51a2.87,2.87,0,0,0,.73-.82C27.2,85,3,60.75,2.19,60.15c-.9.5-1.4,1.43-2.27,1.93-.75-.62-1.36-1.37-2.11-2a4.94,4.94,0,0,0-.44.36L-27.88,85.68ZM59.3,60.18a3.13,3.13,0,0,0-.42.29c-.42.4-.82.82-1.24,1.23-.14.14-.3.26-.48.42-.82-.58-1.36-1.39-2.16-2-.17.13-.34.24-.49.37l-.58.59Q42.08,72.93,30.22,84.77l-.82.85c.12.18.22.34.34.49l.44.44L54,110.38a5.12,5.12,0,0,0,1,.85c.79-.56,1.34-1.37,2.14-2a4.29,4.29,0,0,1,.48.36c.42.4.82.82,1.24,1.23a5.32,5.32,0,0,0,.46.37c.69-.54,25-24.8,25.55-25.52Q72.07,72.94,59.3,60.18Zm56.09,50c.35.32.68.66,1.06,1,.2-.16.36-.27.51-.4s.34-.33.51-.5l23.85-23.84a2.91,2.91,0,0,0,.76-.88,5.82,5.82,0,0,0-.4-.45c-6.38-6.55-24.24-24.32-25.16-25-.85.49-1.35,1.42-2.21,2-.79-.58-1.34-1.39-2.14-2l-.35.26L86.55,85.63a4.78,4.78,0,0,0,.45.45l3,3.11,21.24,21.22a3.79,3.79,0,0,0,.93.81c.79-.57,1.35-1.38,2.12-2a4.6,4.6,0,0,1,1.1,1ZM-28.1-141.62c-.16-.16-.35-.3-.63-.53L-54.28-116.6a6.74,6.74,0,0,0,1.07,1.19,7.93,7.93,0,0,1,1,1.09c-.61.76-1.37,1.35-2,2.11a3.06,3.06,0,0,0,.72.84L-30.08-88l1.41,1.4c.19-.16.36-.28.5-.42C-23.5-91.48-3.73-111.33-3-112.23l-2-2.06a6.39,6.39,0,0,1,1-1.14c.32-.35.67-.68,1-1C-3.67-117.3-21.37-135.08-28.1-141.62Zm-34.16,27.31c.15-.18.28-.37.44-.53.52-.54,1-1.07,1.61-1.63-.19-.22-.32-.41-.49-.58C-67-123.51-85-141.43-85.83-142c-.78.61-22.32,22-25.27,25.15a3.47,3.47,0,0,0-.34.42l2.07,2.09c-.63.83-1.45,1.41-2.12,2.29l25.55,25.47a2.13,2.13,0,0,0,.92-.73l20-20,4.21-4.21c.2-.19.37-.4.58-.63C-60.83-112.92-61.6-113.53-62.26-114.31Zm174.47,54c.14,0,.26-.17.4-.3l1.24-1.24a6,6,0,0,1,.49-.39c.79.59,1.37,1.38,2.1,2a1.17,1.17,0,0,0,.31-.17l25.36-25.31a5.86,5.86,0,0,0-.37-.5l-1-1L117.4-110.49l-.9-.87c-.84.58-1.4,1.38-2.18,2a4.19,4.19,0,0,1-1.07-.94c-.35-.32-.68-.67-1.06-1-.19.13-.36.23-.51.35s-.34.34-.51.51L87.37-86.63c-.27.27-.52.54-.76.79Zm-52.82-51c-.21.15-.38.25-.53.38-.42.41-.82.83-1.24,1.23a6.4,6.4,0,0,1-.5.41c-.76-.63-1.36-1.38-2.08-2a2,2,0,0,0-.32.18L29.37-85.82c.15.19.26.36.39.5l.73.73L54.05-61a5.26,5.26,0,0,0,.93.83c.8-.58,1.35-1.39,2.15-2,.81.54,1.35,1.36,2.13,2a1.81,1.81,0,0,0,.79-.63l7.35-7.34L84.13-84.92a3.13,3.13,0,0,0,.78-.92ZM0-109.31c-.81-.59-1.36-1.39-2.16-2a4.29,4.29,0,0,0-.48.36c-.18.16-.35.34-.51.51L-27-86.61c-.26.26-.51.54-.79.84l.44.5c6,6.11,24.25,24.32,25.18,25,.77-.54,1.33-1.33,2.11-2a3.36,3.36,0,0,1,.49.35c.42.4.82.82,1.24,1.23.14.14.31.25.48.4.17-.13.31-.23.43-.34L27.72-85.75c-.07-.4-.36-.57-.57-.78L18.5-95.18,3.08-110.58a3.76,3.76,0,0,0-1-.83C1.34-110.72.75-109.92,0-109.31ZM-59.64-60.39a1.34,1.34,0,0,0,.31.17c.74-.59,1.33-1.36,2.09-2,.82.58,1.38,1.38,2.17,2,.18-.14.34-.25.48-.38l.52-.51,23.83-23.81a4.51,4.51,0,0,0,.77-.86c-.15-.17-.27-.32-.41-.47-6.43-6.58-24.25-24.31-25.17-25-.85.49-1.34,1.42-2.21,2-.78-.59-1.33-1.4-2.13-2a2.8,2.8,0,0,0-.35.25L-85.07-85.7Zm171.49-57.22a2.8,2.8,0,0,0,.35.25c.78-.59,1.36-1.37,2.13-2,.82.57,1.36,1.39,2.17,2l.48-.36.51-.51,23.85-23.84a2.9,2.9,0,0,0,.72-.8V-143a.22.22,0,0,0-.05-.08l-24.83-24.82a4.47,4.47,0,0,0-.45-.42l-.22-.13c-.83.5-1.34,1.41-2.21,2-.75-.63-1.36-1.38-2.09-2a3.28,3.28,0,0,0-.38.27c-8.41,8.4-16.83,16.8-25.33,25.3Zm54.64,60.46c.63-.83,1.44-1.41,2-2.18C168-60,143.81-84.18,142.92-84.91a2.9,2.9,0,0,0-.8.72Q135-77.05,127.8-69.92l-9.67,9.66-.81.82a6,6,0,0,0,1,1.08c.33.35.67.68,1,1.06a3.36,3.36,0,0,1-.35.49c-.55.57-1.11,1.12-1.63,1.64v.26l25.22,25.22a1,1,0,0,0,.24.16c.67-.49,17.19-16.91,25.08-24.92.18-.19.35-.4.57-.65Zm-104.29,0c-.63.77-1.38,1.37-2,2.13a2.89,2.89,0,0,0,.73.83L80.65-34.46l4.29,4.28.76.74c.16-.12.3-.21.42-.32,2.81-2.65,24.59-24.51,25.21-25.31l-2-2.08a6,6,0,0,1,1-1.13c.33-.35.67-.68,1-1a2,2,0,0,0-.18-.32L86-84.75a.72.72,0,0,0-.21-.12L60.19-59.28c.6.71,1.35,1.31,2,2.09ZM-59.35,54.08c.13,0,.25-.17.4-.31.41-.41.82-.83,1.24-1.23.14-.14.3-.25.49-.41.78.62,1.37,1.39,2.1,2a1.82,1.82,0,0,0,.31-.16l25.36-25.32c-.15-.19-.25-.36-.38-.5l-1.23-1.23-23.06-23a3.82,3.82,0,0,0-1-.83c-.79.54-1.33,1.36-2.13,2a4.19,4.19,0,0,1-1.07-.94c-.35-.32-.68-.67-1-1a4.67,4.67,0,0,0-.51.36,6.14,6.14,0,0,0-.52.5L-84.2,27.67c-.26.26-.51.54-.75.79Zm59.29-2c.81.6,1.37,1.4,2.16,2,.18-.15.34-.26.49-.39s.29-.29.44-.44L27,29.36a2.87,2.87,0,0,0,.73-.82C27.19,27.83,2.94,3.54,2.18,3,1.35,3.52.82,4.4,0,5c-.81-.6-1.35-1.42-2.17-2a4.23,4.23,0,0,0-.41.33l-25.1,25.08a.74.74,0,0,0,0,.21v.09L-2.61,53.77a2.51,2.51,0,0,0,.32.25h.15C-1.41,53.49-.84,52.69-.06,52.08Zm54.79,1.84a1.2,1.2,0,0,0,.27.16c.77-.57,1.32-1.38,2.13-2,.79.59,1.35,1.38,2.07,1.93h.26l25.1-25a2.51,2.51,0,0,0,.25-.32v-.1c-.56-.72-24.81-25-25.54-25.51-.79.52-1.33,1.34-2.05,1.89a.7.7,0,0,1-.56-.29c-.42-.4-.82-.82-1.24-1.23-.14-.13-.31-.25-.49-.4-.16.14-.3.23-.42.35C51.6,6.08,30.06,27.73,29.37,28.6Zm62-50.76a1.17,1.17,0,0,0-.31-.17c-.75.58-1.32,1.36-2.12,2-.8-.57-1.35-1.38-2.14-2a4.21,4.21,0,0,0-.48.35c-.19.16-.35.34-.52.51L87.35,27.69c-.26.26-.51.53-.79.83.17.2.29.36.43.5,5.88,6,24.25,24.32,25.18,25a4.42,4.42,0,0,0,1-.93c.35-.32.68-.67,1-1a4.67,4.67,0,0,1,.51.36c.42.4.83.82,1.24,1.23.15.14.31.26.49.4.16-.13.3-.22.42-.34,8.39-8.37,16.77-16.75,25.26-25.23ZM-84.5-28c7.75,7.89,24.27,24.32,25.11,25,.78-.53,1.33-1.34,2.12-2a3.27,3.27,0,0,1,.48.35c.42.4.82.82,1.24,1.23.15.14.31.25.49.39.16-.13.3-.22.42-.34l25.16-25.14a2,2,0,0,0-.66-.82l-10-10-14.11-14.1a2.58,2.58,0,0,0-.9-.74c-.74.59-1.33,1.36-2.11,2-.81-.57-1.35-1.38-2.15-2-.17.12-.33.23-.48.36s-.3.28-.44.43l-23.89,24c-.26.26-.51.54-.79.84ZM2.38-54a1.17,1.17,0,0,0-.31-.17c-.73.6-1.32,1.36-2.1,2-.81-.58-1.36-1.39-2.16-2-.16.12-.33.23-.48.36s-.29.29-.44.44L-27-29.45c-.25.24-.48.49-.76.77.12.17.22.34.34.49a6.08,6.08,0,0,0,.44.44L-3.16-3.92a5.06,5.06,0,0,0,.94.85c.8-.55,1.35-1.36,2.14-2a3.27,3.27,0,0,1,.48.35c.42.4.83.82,1.24,1.23.15.14.32.25.46.37C2.77-3.62,27-27.84,27.71-28.68Zm54.78,1.82c-.81-.6-1.37-1.39-2.15-2-.18.14-.35.25-.5.38s-.39.38-.58.58L30.22-29.52l-.83.85c.13.17.23.34.36.48a4.47,4.47,0,0,0,.43.44L54-3.92a5.5,5.5,0,0,0,1,.85c.79-.56,1.34-1.38,2.13-2,.87.5,1.36,1.44,2.2,2,.7-.54,25-24.81,25.54-25.52a.14.14,0,0,0,0-.09.14.14,0,0,0,0-.09l-25-25c-.12-.12-.25-.23-.47-.42C58.52-53.56,57.93-52.79,57.16-52.17Zm-168.58,50,2,2.06c-.58.85-1.43,1.41-2,2.19.51.64,24.34,24.5,25.55,25.58.15-.11.31-.21.46-.34s.29-.29.44-.43L-61,3l.82-.85c-.6-.82-1.43-1.38-2.06-2.22l2.06-2.1c-.14-.18-.25-.34-.38-.49s-.34-.34-.51-.51L-85-27c-.26-.26-.54-.52-.84-.8-1.31,1.19-25,25-25.58,25.65ZM-3,2.08-5,0c.16-.19.29-.37.45-.54C-4-1.09-3.49-1.62-3-2.14a2,2,0,0,0-.18-.32L-28.38-27.6a.56.56,0,0,0-.2-.11L-54.18-2.13c0,.15.23.27.39.43.51.54,1.06,1,1.59,1.61a5.82,5.82,0,0,1-1,1.1c-.33.35-.68.68-1,1a2.16,2.16,0,0,0,.65.79l9.74,9.74,14.33,14.31.83.83C-27.76,27-3.58,2.76-3,2.08Zm57.22.09c-.62-.82-1.39-1.4-2-2.18a5.19,5.19,0,0,1,.36-.46l1.68-1.7c-.15-.2-.27-.36-.4-.51C49.28-7.35,29.39-27.12,28.55-27.74,27.68-27.06,8.2-7.68,3.35-2.67c-.14.15-.26.31-.42.5L5-.08C4.37.76,3.55,1.34,3,2.06L28.64,27.68ZM86,27.51,111.14,2.38a2.07,2.07,0,0,0,.19-.32l-2-2.07c.62-.82,1.44-1.4,2-2.17-.49-.66-24.56-24.75-25.56-25.59A2.9,2.9,0,0,0,85-27q-7.22,7.18-14.4,14.38L60.9-3l-.76.78c.63.79,1.41,1.41,2.07,2.18-.64.79-1.4,1.39-2,2.08a.33.33,0,0,0,0,.14.17.17,0,0,0,0,.1L85.39,27.42c.09.09.21.17.31.26A1.11,1.11,0,0,0,86,27.51Zm57,.12.39-.29c.15-.14.29-.29.43-.44L167.75,3l.81-.85C168,1.33,167.13.76,166.5-.07l1-1,1-1.06c-.14-.18-.25-.35-.38-.49s-.29-.29-.44-.44L143.76-27c-.26-.27-.54-.52-.84-.8-.19.16-.35.28-.49.42C136.5-21.59,118-3,117.3-2.11l2,2.06c-.59.85-1.44,1.41-2,2.15ZM111.89-3.15a.69.69,0,0,0,.72-.27c.42-.41.82-.83,1.24-1.23.14-.14.31-.25.5-.41.77.63,1.36,1.39,2.1,2,.13-.08.24-.11.31-.17q12.66-12.63,25.35-25.32a3.66,3.66,0,0,0-.38-.5c-.55-.56-1.11-1.11-1.67-1.67l-22.62-22.6a4.15,4.15,0,0,0-.94-.83c-.8.55-1.34,1.37-2.14,2a4.31,4.31,0,0,1-1.06-.94c-.36-.32-.69-.66-1.06-1-.19.14-.36.24-.51.36s-.34.34-.51.51L87.36-29.47c-.26.26-.51.53-.83.87ZM3.35-54.56c5.57,5.74,24.33,24.4,25.2,25.06C29.17-30,53.2-53.93,54.12-55a5.3,5.3,0,0,0-.42-.52c-.52-.54-1.06-1-1.61-1.63.64-.82,1.45-1.41,2-2.18-.57-.72-24.78-24.92-25.54-25.54H28.5a.14.14,0,0,0-.09,0L3.24-59.7a2.54,2.54,0,0,0-.29.36c.61.74,1.36,1.34,2,2.11-.11.16-.23.32-.35.47l-1.69,1.7C3.05-54.89,3.19-54.72,3.35-54.56Zm-8.43-2.59a6.69,6.69,0,0,1,1-1.13c.32-.35.67-.68,1-1-.54-.75-16.87-17.15-25-25.11-.19-.18-.41-.35-.56-.49L-54.25-59.29a7.87,7.87,0,0,0,1,1,7.93,7.93,0,0,1,1,1.09c-.61.75-1.37,1.35-2,2.11a2.9,2.9,0,0,0,.72.84l23.37,23.33,1.47,1.47a4.7,4.7,0,0,0,.44-.34c3-2.84,24.58-24.49,25.2-25.31Zm-57.19,0c.16-.19.29-.38.45-.54.52-.54,1-1.07,1.61-1.63-.19-.22-.32-.41-.49-.58-6.3-6.54-24.3-24.4-25.14-25-.77.61-22.46,22.2-25.27,25.15-.11.12-.2.26-.33.43l2,2.07a5.5,5.5,0,0,1-1,1.1c-.33.35-.67.68-1,1a2,2,0,0,0,.64.79l10,10q7,7.05,14.11,14.09c.26.27.53.53.79.79a2.24,2.24,0,0,0,.89-.72L-65.15-50l4.21-4.22c.24-.24.47-.49.75-.79ZM-57.2,62.08a4.67,4.67,0,0,1-1.08-.95c-.35-.32-.68-.67-1-1-.2.15-.37.25-.51.38a6.14,6.14,0,0,0-.52.5l-23.9,23.82-.8.83c.15.18.25.31.36.43,3.55,3.71,24.37,24.43,25.25,25.12a3.66,3.66,0,0,0,1-.92l1-1a3.54,3.54,0,0,1,.51.35l1.24,1.23c.15.14.31.26.48.41.14-.11.26-.17.36-.26l25.19-25.17c0-.4-.27-.54-.46-.72-2.1-2.12-4.21-4.22-6.32-6.33L-54.13,61a3.76,3.76,0,0,0-.95-.83C-55.86,60.7-56.41,61.5-57.2,62.08ZM57.17-166.46c-.82-.59-1.37-1.4-2.16-2-.17.12-.34.23-.49.35l-.44.44L30.16-143.75a3.93,3.93,0,0,0-.77.86l.56.62c9,9.12,24.33,24.35,25,24.88a4.17,4.17,0,0,0,1-.92c.35-.33.68-.67,1.06-1a4.74,4.74,0,0,1,.51.37c.42.4.82.83,1.24,1.23.14.14.31.26.48.4.17-.13.31-.23.43-.34L84.9-142.84a2.11,2.11,0,0,0-.66-.82L74.06-153.84,60.17-167.71a2.92,2.92,0,0,0-.89-.75C58.52-167.86,57.94-167.1,57.17-166.46ZM-.11-119.34c.88.54,1.42,1.42,2.21,2,.73-.57,25-24.84,25.56-25.53v-.1a.41.41,0,0,0-.05-.09q-12.49-12.51-25-25c-.12-.12-.25-.22-.42-.37a5.36,5.36,0,0,0-.49.34c-.42.4-.82.82-1.24,1.23-.14.14-.3.26-.48.42-.82-.58-1.36-1.4-2.16-2-.17.13-.34.24-.49.37l-.58.58L-27-143.82l-.82.85a5.48,5.48,0,0,0,.35.49c.13.15.29.29.43.44l23.86,23.83a5.58,5.58,0,0,0,1,.88Zm-57.12-47.13c-.8-.6-1.36-1.4-2.12-2a1.4,1.4,0,0,0-.3.15L-85-143c.14.19.25.36.38.51s.29.29.43.43l23.86,23.84a4.37,4.37,0,0,0,.93.84c.8-.56,1.35-1.38,2.14-2,.82.53,1.36,1.35,2.08,1.9a.74.74,0,0,0,.56-.28l.51-.51,23.85-23.83.73-.76V-143a.14.14,0,0,0,0-.09L-54.62-168.2c-.09-.09-.21-.17-.39-.32C-55.87-167.85-56.45-167.07-57.23-166.47Zm223.78,52.24c0-.33.23-.45.39-.61.52-.54,1.05-1.07,1.58-1.6a2,2,0,0,0-.18-.32l-25.16-25.16a.56.56,0,0,0-.2-.11l-25.6,25.58c0,.16.24.27.39.43l1.5,1.56v.16c-.55.73-1.33,1.3-2,2.07a2.14,2.14,0,0,0,.64.76q4.94,5,9.88,9.88L142-87.42l.83.82a3.39,3.39,0,0,0,.42-.33c2.66-2.49,24.6-24.51,25.22-25.31ZM-85.58,84.66l25.15-25.14a1.44,1.44,0,0,0,.19-.31l-2-2.07c.62-.82,1.44-1.4,2-2.17-.49-.66-24.56-24.75-25.56-25.59a3,3,0,0,0-.8.71L-100.93,44.4l-9.74,9.74-.74.77a8.33,8.33,0,0,0,1,1.14,7.86,7.86,0,0,1,1,1.08c-.62.76-1.38,1.35-2,2a.33.33,0,0,0,0,.14.14.14,0,0,0,0,.09Q-98.84,72-86.26,84.56a1.94,1.94,0,0,0,.31.26A1,1,0,0,0-85.58,84.66ZM-3.07,59.28a6.2,6.2,0,0,0-1-1.11,10.43,10.43,0,0,1-1-1.09c.67-.7,1.34-1.38,2-2.1-.13-.18-.24-.34-.37-.49S-3.79,54.15-4,54L-27.77,30.15c-.26-.26-.53-.51-.77-.74h-.26L-54,54.68a2.11,2.11,0,0,0-.21.31l2,2.06c-.57.86-1.43,1.41-2,2.2.5.65,24.11,24.3,25.54,25.58C-28,84.3-3.83,60.18-3.07,59.28Zm55.16-2.2L54.15,55l-.37-.49c-.16-.18-.34-.34-.51-.51L29.42,30.15c-.26-.26-.54-.51-.77-.74h-.17a.14.14,0,0,0-.09,0L3.59,54.24c-.17.17-.34.34-.5.52A1.17,1.17,0,0,0,3,55l2,2.08c-.58.86-1.43,1.42-2,2.2.51.65,24.21,24.38,25.55,25.58.14-.11.31-.21.45-.34l.44-.43L53.33,60.15c.27-.26.52-.54.85-.87C53.48,58.48,52.74,57.87,52.09,57.08ZM85.78,29.42a.14.14,0,0,0-.09,0,.16.16,0,0,0-.09,0L60.43,54.59c-.1.1-.17.21-.29.35.61.76,1.35,1.36,2,2.12a5.2,5.2,0,0,1-.35.47c-.53.55-1.09,1.12-1.62,1.64v.17a.14.14,0,0,0,0,.09l25,24.93c.15.15.31.28.46.41s.06,0,.09,0c.63-.47,24.61-24.39,25.58-25.52a5.17,5.17,0,0,0-.42-.51c-.52-.54-1-1.06-1.61-1.62A10.66,10.66,0,0,1,110.35,56a5.24,5.24,0,0,0,1-1.05C110.77,54.26,86.57,30.08,85.78,29.42Zm80.71,27.74a5.32,5.32,0,0,1,.36-.47L168.54,55c-.15-.19-.27-.35-.4-.5l-.43-.44-23.93-23.9c-.26-.26-.54-.51-.8-.76-.72.54-25.09,24.89-25.65,25.62l2,2a7.31,7.31,0,0,1-1,1.17,6.58,6.58,0,0,0-1,1.17l25.56,25.44a2.25,2.25,0,0,0,.88-.71l9.82-9.81,14.18-14.17.84-.87C167.83,58.52,167.19,57.86,166.49,57.16ZM85.67-86.6c.7-.52,17.29-17,25.12-25,.18-.19.35-.4.57-.65l-2.08-2.09c.63-.82,1.44-1.41,2-2.18-.51-.68-24.66-24.84-25.57-25.58a2.9,2.9,0,0,0-.8.72q-7.17,7.14-14.33,14.31l-9.67,9.66-.8.82a5.39,5.39,0,0,0,1,1.08c.33.35.67.68,1,1.07a3.27,3.27,0,0,1-.35.48c-.54.57-1.1,1.12-1.73,1.75ZM3-116.45a8.28,8.28,0,0,0,1,1,7.39,7.39,0,0,1,1,1.09c-.62.75-1.38,1.35-2,2.12.16.19.29.37.45.53Q15.69-99.37,28-87.1c.17.17.35.32.55.51.2-.17.39-.31.56-.47,6.78-6.61,24.4-24.31,25-25.17l-2-2.07c.62-.82,1.44-1.4,2-2.17-.64-.87-20.27-20.59-25.1-25.22-.15-.14-.32-.26-.42-.34ZM57.72-56.29c.27-.26.52-.52.81-.82a7,7,0,0,0-1.38-1.54L55.7-57.22c.27.29.48.54.71.78s.44.42.72.69C57.38-56,57.56-56.12,57.72-56.29Zm56.61-2.32A11.16,11.16,0,0,0,113-57.24c.12.37.42.55.65.79s.43.43.68.66a7.13,7.13,0,0,0,1.47-1.38A8.79,8.79,0,0,0,114.33-58.61Zm0,57.14c-.26.24-.51.46-.74.69l-.67.69a7.45,7.45,0,0,0,1.29,1.4,3.59,3.59,0,0,0,1.49-1.4Zm-173,1.4.72.78c.21.22.43.42.68.65A6.5,6.5,0,0,0-55.85,0,6.83,6.83,0,0,0-57.2-1.48,17.89,17.89,0,0,0-58.68-.07ZM115.72,57.14a7.64,7.64,0,0,0-1.37-1.47,11.74,11.74,0,0,0-1.41,1.41,1.46,1.46,0,0,0,.17.3l1.16,1.17A6.92,6.92,0,0,0,115.72,57.14Zm-57.2,0a5.48,5.48,0,0,0-1.38-1.46c-.23.21-.43.38-.62.57l-.81.83c.26.28.47.53.7.76l.73.71Zm-57.15,0A5.71,5.71,0,0,0-.06,55.7a10.81,10.81,0,0,0-1.41,1.38A18.64,18.64,0,0,0-.1,58.52,9.42,9.42,0,0,0,1.37,57.17Zm-58.62,1.35a7.21,7.21,0,0,0,1.39-1.37,2.16,2.16,0,0,0-.65-.79c-.2-.22-.43-.42-.69-.66a3.13,3.13,0,0,0-.8.65c-.22.21-.42.44-.71.74A11,11,0,0,0-57.25,58.52ZM55.93.21c.37.39.76.77,1.16,1.17A7,7,0,0,0,58.53,0,5.67,5.67,0,0,0,57.1-1.47L56-.38c-.09.09-.16.21-.25.31A1.34,1.34,0,0,0,55.93.21ZM-55.86-114.3a2.26,2.26,0,0,0-.65-.79c-.21-.22-.43-.41-.69-.65a3,3,0,0,0-.76.65c-.22.21-.42.44-.67.69a8.73,8.73,0,0,0,1.35,1.5A7.53,7.53,0,0,0-55.86-114.3Zm54.37-.07c.27.3.48.54.71.78l.69.66a7.27,7.27,0,0,0,1.42-1.35,5.71,5.71,0,0,0-1.4-1.5Zm60,0a8.67,8.67,0,0,0-1.41-1.43,11.91,11.91,0,0,0-1.38,1.37c.11.37.42.55.64.79s.44.42.72.7a8.8,8.8,0,0,0,1.47-1.39Zm57.17,0a5.68,5.68,0,0,0-1.41-1.44,12.6,12.6,0,0,0-1.41,1.42,13.22,13.22,0,0,0,1.4,1.4,6.8,6.8,0,0,0,1.46-1.32ZM-.1,1.38A7,7,0,0,0,1.34,0,5.67,5.67,0,0,0-.09-1.47L-1.18-.38c-.09.09-.16.21-.28.36C-1,.49-.56.91-.1,1.38ZM-57.22-55.83a5.61,5.61,0,0,0,1.39-1.36,8.58,8.58,0,0,0-1.37-1.39.92.92,0,0,0-.27.16c-.39.37-.77.76-1.23,1.21Zm57.16,0A7.21,7.21,0,0,0,1.33-57.2,2.26,2.26,0,0,0,.68-58c-.21-.22-.43-.42-.69-.65a2.61,2.61,0,0,0-.76.72c-.22.21-.42.43-.71.74a10.44,10.44,0,0,0,1.42,1.4Z"/><path class="cls-4" d="M-47.92,115.29l-.93-1c.19-.23.35-.44.54-.63l4.72-4.72,14.1-14.08a2.84,2.84,0,0,1,.89-.76c.14.12.31.23.45.37,4.54,4.36,19.08,19,19.7,19.82l-.8,1h2.88l.83-1.05a3.92,3.92,0,0,0-.25-.32L-28.48,91.29c0-.05-.12-.05-.19-.07-.6.47-22.3,22.12-23.06,23,.21.42.65.67.93,1Z"/><path class="cls-4" d="M9.27,115.29l-.94-1c.2-.23.36-.44.55-.63,1.57-1.58,3.12-3.17,4.72-4.74L27.7,94.84a2.91,2.91,0,0,1,.88-.76c.15.12.31.23.46.37,4.54,4.36,19.07,19,19.7,19.82l-.8,1h2.88l.83-1a2.6,2.6,0,0,0-.26-.32Q40.07,102.59,28.71,91.29c0-.05-.13-.05-.19-.07-.6.47-22.3,22.12-23.06,23,.21.42.65.67.93,1Z"/><path class="cls-4" d="M-105.11,115.29l-.93-1c.2-.23.35-.44.54-.63l4.72-4.72,14.1-14.08a2.84,2.84,0,0,1,.89-.76c.14.12.31.23.45.37,4.54,4.36,19.08,19,19.7,19.82l-.79,1h2.88l.82-1.05a3.92,3.92,0,0,0-.25-.32L-85.67,91.29c0-.05-.12-.05-.19-.07-.6.47-22.3,22.12-23,23,.2.42.64.67.92,1Z"/><path class="cls-4" d="M123.64,115.29l-.93-1c.2-.23.36-.44.54-.63l4.75-4.74,14.1-14.08a2.87,2.87,0,0,1,.9-.76,4,4,0,0,1,.45.37c4.55,4.36,19.08,19,19.71,19.82l-.8,1h2.88l.83-1c-.1-.12-.17-.23-.26-.32L143.09,91.29c-.05-.05-.13-.05-.19-.07-.6.47-22.3,22.12-23.06,23,.21.42.64.67.92,1Z"/><path class="cls-4" d="M66.46,115.29l-.94-1c.2-.23.36-.44.54-.63l4.73-4.72q7-7.05,14.1-14.08a2.91,2.91,0,0,1,.88-.76c.15.12.31.23.46.37,4.54,4.36,19.07,19,19.7,19.82l-.8,1H108l.83-1.05a4,4,0,0,0-.26-.32L85.9,91.29c0-.05-.13-.05-.19-.07-.6.47-22.3,22.12-23.06,23,.21.42.65.67.93,1Z"/><path class="cls-4" d="M172.4,105c-.28.3-.46.69-.88.82-.64-.48-19.53-19.34-20.18-20.15.11-.14.22-.3.35-.45s.28-.29.43-.44l18.54-18.52.82-.8.92.69V63.28l-.86-.65c-.65.48-22,21.8-23.09,23,.08.36.39.54.63.77,3.14,3.16,6.3,6.3,9.44,9.45L170.66,108c.26.27.53.53.82.81l.92-.68Z"/><path class="cls-4" d="M172.4-123.58a2.79,2.79,0,0,1-.87.84c-.65-.5-19.54-19.36-20.19-20.17.11-.14.22-.3.35-.45s.28-.3.43-.44l18.54-18.52c.26-.27.53-.52.82-.81l.92.7v-2.88l-.86-.65c-.65.48-22,21.8-23.09,23,.08.36.39.54.63.77l9.3,9.3,12.28,12.27c.26.27.53.52.82.81l.92-.68Z"/><path class="cls-4" d="M172.4,47.87c-.28.29-.46.69-.88.82-.64-.49-19.53-19.35-20.18-20.15.11-.15.22-.31.35-.46s.28-.29.43-.44L170.66,9.08l.82-.8.92.69V6.1l-.86-.66c-.65.48-22,21.8-23.09,23,.08.36.39.54.63.78,3.14,3.15,6.3,6.29,9.44,9.44l12.14,12.17.82.8.92-.68Z"/><path class="cls-4" d="M172.4-9.28c-.27.3-.48.67-.87.83-.65-.5-19.54-19.36-20.19-20.16.11-.14.22-.31.35-.46s.28-.29.43-.43L170.66-48l.82-.8.92.7V-51l-.86-.66c-.65.48-22,21.8-23.09,23,.08.36.39.54.63.78,3.14,3.15,6.3,6.29,9.44,9.44L170.66-6.32l.82.8.92-.68Z"/><path class="cls-4" d="M172.4-66.43c-.21.23-.4.46-.62.68a.77.77,0,0,1-.25.14C170.88-66.09,152-85,151.34-85.76c.11-.14.22-.31.35-.45a4.47,4.47,0,0,1,.43-.44l18.54-18.52c.26-.27.53-.52.82-.81l.92.7v-2.88l-.86-.66c-.65.48-22,21.81-23.09,23,.08.36.39.54.63.77,3.14,3.15,6.3,6.3,9.44,9.44l12.14,12.13c.26.27.53.52.82.8l.92-.68Z"/><path class="cls-4" d="M-115.6-47.92a4,4,0,0,0,.52-.31c.21-.16.4-.36.65-.58.22.18.43.34.62.53l5.38,5.37L-95-29.5l.77.78c-.07.43-.39.61-.63.84l-8.64,8.64-10,10c-.26.27-.53.52-.8.78-.58-.1-.72-.79-1.28-.83V-6.4a3.29,3.29,0,0,1,.52.29c.22.17.41.37.64.58.18-.14.35-.25.49-.38l2.4-2.4,19.47-19.46c.26-.26.51-.54.78-.82a1.93,1.93,0,0,0-.28-.36l-22.69-22.64c-11.35-11.32-.12,0-.18-.06l-1.15.84Z"/><path class="cls-4" d="M-115.6-105.08a4,4,0,0,0,.52-.31c.21-.16.4-.36.65-.58.22.19.43.34.62.53l5.38,5.37L-95-86.65l.77.79c-.07.42-.39.6-.63.83-2.87,2.89-5.75,5.76-8.64,8.64l-10,10-.8.77c-.58-.1-.72-.79-1.28-.83v2.88a5.39,5.39,0,0,1,.52.3c.22.18.44.37.64.57a5.85,5.85,0,0,0,.49-.38l2.4-2.4,19.45-19.44c.26-.26.51-.53.78-.82a2.48,2.48,0,0,0-.28-.36l-22.69-22.63s-.12,0-.18-.06l-1.15.84Z"/><path class="cls-4" d="M-115.6,66.37a5.48,5.48,0,0,0,.52-.31c.21-.17.4-.36.65-.59.22.19.43.35.62.53l5.38,5.37L-95,84.8l.77.78c-.07.42-.39.6-.63.84q-4.31,4.32-8.64,8.64l-10,10-.8.77c-.58-.09-.72-.78-1.28-.83v2.88a5.39,5.39,0,0,1,.52.3c.22.18.44.37.64.57a3.57,3.57,0,0,0,.49-.38l2.4-2.39,19.47-19.46.78-.83a2.48,2.48,0,0,0-.28-.36l-22.71-22.62a.3.3,0,0,0-.18-.06l-1.15.84Z"/><path class="cls-4" d="M-115.6-162.22c.17-.11.36-.19.52-.31s.4-.37.65-.59c.22.19.43.34.62.53l5.38,5.37L-95-143.79l.77.78c-.07.42-.39.6-.63.84q-4.31,4.32-8.64,8.63l-10,10-.8.77c-.58-.1-.72-.79-1.28-.83v2.88a5.39,5.39,0,0,1,.52.3c.22.18.44.37.64.57a3.57,3.57,0,0,0,.49-.38l2.4-2.4,19.47-19.46c.26-.26.51-.53.78-.82a2.48,2.48,0,0,0-.28-.36l-22.71-22.65a.3.3,0,0,1-.18-.06l-1.15.84Z"/><path class="cls-4" d="M-115.6,9.22a5.48,5.48,0,0,0,.52-.31c.21-.17.4-.36.65-.59.22.19.43.35.62.54l5.38,5.36L-95,27.65l.77.78c-.07.43-.39.6-.63.84q-4.31,4.32-8.64,8.64l-10,10c-.26.27-.53.52-.8.78-.58-.1-.72-.79-1.28-.83v2.88a5.39,5.39,0,0,1,.52.3c.22.18.44.38.64.58a6,6,0,0,0,.49-.39l2.4-2.39,19.45-19.46c.26-.26.51-.54.78-.82a2.57,2.57,0,0,0-.28-.37L-114.27,5.56a.3.3,0,0,1-.18-.06l-1.15.84Z"/><path class="cls-4" d="M-115.6-40.53a1.24,1.24,0,0,0,.38-.09c.26-.21.5-.45.77-.7.13.1.25.16.35.25l12.33,12.32c0,.46-.37.63-.6.86-2.46,2.48-4.94,5-7.41,7.41l-3.92,3.93-.7.64-1.2-1v2.69a.6.6,0,0,1,.38.08c.26.21.5.46.78.72.22-.2.43-.37.62-.56,6.27-6.16,14.1-14.06,14.54-14.64-.61-.81-10.22-10.5-14.68-14.79a4.63,4.63,0,0,0-.48-.4c-.28.26-.52.51-.78.72-.09.07-.25.06-.38.09Z"/><path class="cls-4" d="M-115.6-97.68a.85.85,0,0,0,.38-.09c.26-.21.5-.45.77-.69a2.8,2.8,0,0,1,.35.25l12.33,12.29c0,.46-.37.63-.6.87-2.46,2.47-4.94,4.94-7.41,7.41q-2,2-3.92,3.92l-.7.65-1.2-1v2.68a.67.67,0,0,1,.38.07c.26.21.5.46.78.72.22-.2.43-.36.62-.55,6.27-6.16,14.1-14.06,14.54-14.65-.61-.81-10.22-10.51-14.68-14.79-.14-.14-.3-.25-.48-.4-.28.27-.52.51-.78.72-.09.08-.25.07-.38.1Z"/><path class="cls-4" d="M-115.6-154.82a1,1,0,0,0,.38-.1c.26-.2.5-.45.77-.69.12.08.24.16.35.25L-101.77-143c0,.46-.37.63-.6.87-2.46,2.47-4.94,4.94-7.41,7.41l-3.92,3.92-.7.65-1.2-1v2.67a1,1,0,0,1,.38.08c.26.21.5.45.78.71.22-.19.43-.36.62-.55,6.27-6.16,14.1-14.06,14.54-14.65-.61-.81-10.22-10.5-14.68-14.79a4.54,4.54,0,0,0-.48-.39c-.28.26-.52.5-.78.72-.09.07-.25.06-.38.09Z"/><path class="cls-4" d="M-115.6,73.77a1.24,1.24,0,0,0,.38-.09c.26-.21.5-.46.77-.7.12.08.24.16.35.25l12.33,12.31c0,.46-.37.64-.6.87-2.46,2.47-4.94,4.94-7.41,7.41l-3.92,3.92c-.22.22-.45.42-.7.65l-1.2-1v2.69a1,1,0,0,1,.38.08c.26.21.5.45.78.71.22-.19.43-.36.62-.55,6.27-6.16,14.1-14.06,14.54-14.65-.61-.81-10.22-10.5-14.68-14.78a4.63,4.63,0,0,0-.48-.4c-.28.26-.52.5-.78.72-.09.07-.25.06-.38.09Z"/><path class="cls-4" d="M-115.6,16.62a1.24,1.24,0,0,0,.38-.09c.26-.21.5-.45.77-.7.13.1.25.16.35.25l12.33,12.31c0,.46-.37.64-.6.87-2.46,2.48-4.94,4.94-7.41,7.41l-3.92,3.92c-.22.22-.45.42-.7.65l-1.2-1v2.69a.6.6,0,0,1,.38.08c.26.21.5.45.78.71.22-.19.43-.36.62-.55,6.27-6.16,14.1-14.06,14.54-14.64C-99.89,27.72-109.5,18-114,13.74a4.63,4.63,0,0,0-.48-.4c-.28.26-.52.51-.78.72-.09.07-.25.06-.38.09Z"/><path class="cls-4" d="M-97.7,115.29l-.81-1c.05-.09.11-.18.17-.27l12.28-12.42a1.48,1.48,0,0,1,.94.62l9.12,9,2.25,2.25c.22.21.42.44.64.67-.14.52-.64.72-.89,1.12h2.47l1-1a4.08,4.08,0,0,0-.31-.39L-85.39,99.43c-.12-.12-.25-.22-.35-.31h-.15l-.11.06-14.69,14.66-.26.31a.33.33,0,0,0,0,.14l.79,1Z"/><path class="cls-4" d="M-40.51,115.29l-.81-1a1.24,1.24,0,0,1,.17-.27l12.28-12.42a1.48,1.48,0,0,1,.94.62l9.22,9.2,2.1,2.11.64.67c-.14.52-.64.72-.89,1.12h2.47l1-1a2.88,2.88,0,0,0-.3-.39L-28.2,99.43c-.12-.12-.25-.22-.35-.31h-.15l-.09,0-14.69,14.67a3.88,3.88,0,0,0-.26.31.33.33,0,0,0,0,.14l.79,1Z"/><path class="cls-4" d="M16.67,115.29l-.8-1A1.24,1.24,0,0,1,16,114l12.43-12.4c.38,0,.56.37.79.6l9.21,9.2,2.11,2.11.64.67c-.14.52-.64.72-.89,1.12H42.8l1-1a2.88,2.88,0,0,0-.3-.39L29,99.43c-.12-.12-.26-.22-.35-.31H28.5l-.09,0-14.7,14.67a3.88,3.88,0,0,0-.26.31.33.33,0,0,0,0,.14l.79,1Z"/><path class="cls-4" d="M73.86,115.29l-.8-1a1.24,1.24,0,0,1,.17-.27l12.42-12.4c.39,0,.57.37.8.6l9.21,9.2,2.11,2.11.64.67c-.14.52-.64.72-.89,1.12H100l1-1a2.88,2.88,0,0,0-.3-.39q-7.23-7.23-14.47-14.45c-.11-.11-.23-.21-.35-.31h-.14l-.09,0L70.9,113.84a3.88,3.88,0,0,0-.26.31.33.33,0,0,0,0,.14l.78,1Z"/><path class="cls-4" d="M131.05,115.29l-.81-1a2.11,2.11,0,0,1,.18-.27l12.42-12.4c.39,0,.56.37.79.6q4.59,4.56,9.15,9.13L155,113.5c.22.21.43.44.64.67-.13.52-.63.72-.88,1.12h2.47l1-1a4.08,4.08,0,0,0-.31-.39L143.36,99.43c-.12-.12-.25-.22-.35-.31h-.15l-.09,0-14.68,14.67c-.1.1-.18.21-.27.31s0,.07,0,.14l.79,1Z"/><path class="cls-4" d="M172.4,97.61l-.8.72h-.24L159.14,86.08c-.09-.1-.17-.21-.26-.32v-.12a1,1,0,0,1,.15-.24L171.43,73c.51.08.63.57,1,.76V71.29l-.77-.74h-.25L156.47,85.49a.54.54,0,0,0-.08.21,1,1,0,0,0,.14.24l14.87,15,1-.87Z"/><path class="cls-4" d="M172.4-131l-.8.72h-.24l-12.22-12.19c-.09-.1-.17-.21-.26-.32v-.12a1,1,0,0,1,.15-.24l12.4-12.4c.51.08.63.56,1,.76v-2.47l-.77-.74a.43.43,0,0,0-.16,0l-.09,0L156.5-143a.54.54,0,0,0-.08.21,1,1,0,0,0,.14.24l15,14.93.9-.79Z"/><path class="cls-4" d="M172.4,40.47l-.8.71h-.24L159.14,28.94c-.09-.09-.17-.21-.26-.31V28.5a1.14,1.14,0,0,1,.15-.23l12.4-12.4c.51.07.63.56,1,.75V14.15l-.77-.74h-.25L156.47,28.34a.9.9,0,0,0-.08.21,1,1,0,0,0,.14.24l15,14.93.9-.79Z"/><path class="cls-4" d="M172.4-73.83l-.8.72h-.15l-.09,0L159.14-85.34c-.09-.1-.17-.21-.26-.32v-.13A1.14,1.14,0,0,1,159-86l12.4-12.4c.51.08.63.56,1,.75v-2.46l-.77-.75h-.25l-14.94,15a.7.7,0,0,0-.08.2.72.72,0,0,0,.14.24l15,14.94.9-.79Z"/><path class="cls-4" d="M172.4-16.68l-.8.71h-.24L159.14-28.21c-.09-.09-.17-.2-.26-.31v-.13a1.59,1.59,0,0,1,.12-.27l12.4-12.4c.51.08.63.56,1,.75V-43l-.77-.74h-.25l-14.91,14.9a.7.7,0,0,0-.08.2,1,1,0,0,0,.14.24l15,14.94.9-.8Z"/><path class="cls-4" d="M172.4-81.44c-.21.23-.41.47-.62.68a1.12,1.12,0,0,1-.28.16,2.51,2.51,0,0,1-.32-.25l-4.71-4.72a.34.34,0,0,0-.06-.19c-.06-.07,0-.14.06-.18q2.31-2.34,4.63-4.66a4.35,4.35,0,0,1,.41-.34l.89.66v-2l-.83-.71c-.66.46-6.73,6.5-7.32,7.27.49.66,5.71,5.93,7.24,7.31l.91-.72Z"/><path class="cls-4" d="M172.4-24.29c-.21.23-.41.46-.62.68a1.12,1.12,0,0,1-.28.16,3.92,3.92,0,0,1-.32-.25l-4.71-4.72a.33.33,0,0,1,0-.38l4.63-4.65.41-.35.89.67v-2l-.83-.72c-.66.47-6.73,6.51-7.32,7.28.49.66,5.71,5.93,7.24,7.31l.91-.72Z"/><path class="cls-4" d="M172.4-138.58c-.21.22-.41.46-.62.68a1.51,1.51,0,0,1-.28.15,2.43,2.43,0,0,1-.32-.24l-4.71-4.73a.34.34,0,0,0-.06-.19c-.06-.07,0-.14.06-.18q2.31-2.34,4.63-4.66c.13-.12.27-.23.41-.34l.89.67v-2.06l-.83-.71c-.66.46-6.73,6.5-7.32,7.27.49.66,5.71,5.94,7.24,7.31l.91-.71Z"/><path class="cls-4" d="M172.4,90c-.28.28-.46.68-.91.83a2.34,2.34,0,0,1-.31-.24l-4.71-4.73a.34.34,0,0,0-.06-.19c-.06-.07,0-.14.06-.18q2.31-2.34,4.63-4.66c.13-.12.27-.23.41-.34l.89.67V79.08l-.83-.71c-.66.46-6.73,6.5-7.32,7.27.49.66,5.71,5.94,7.24,7.31l.91-.71Z"/><path class="cls-4" d="M172.4,32.86c-.28.28-.46.69-.91.83a2.34,2.34,0,0,1-.31-.24l-4.71-4.73a.3.3,0,0,0-.06-.18c-.06-.06,0-.15.06-.19,1.54-1.55,3.08-3.11,4.63-4.65l.41-.35.89.67V22l-.83-.71c-.66.47-6.73,6.5-7.32,7.28.49.65,5.71,5.93,7.24,7.3l.91-.71Z"/><path class="cls-4" d="M81.47,115.29l-.92-1a35.58,35.58,0,0,1,2.56-2.65c.83-.86,1.69-1.69,2.55-2.55a1.3,1.3,0,0,1,.38.22l4.71,4.7c.06.09.12.18.17.27l-.81,1h2.06c.28-.33.57-.66.85-1a1.64,1.64,0,0,0-.16-.29l-7-7h-.2a.09.09,0,0,0-.09.05l-7,6.95a1.38,1.38,0,0,0-.17.25c.11.46.69.58.75,1.06Z"/><path class="cls-4" d="M24.28,115.29l-.92-1a35.72,35.72,0,0,1,2.57-2.65c.83-.86,1.68-1.69,2.54-2.55a1.3,1.3,0,0,1,.38.22l4.71,4.7a1.24,1.24,0,0,1,.17.27l-.8,1h2c.29-.33.57-.66.85-1a1.18,1.18,0,0,0-.16-.29l-7-7h-.2a.07.07,0,0,0-.08.05l-7,6.95a1.38,1.38,0,0,0-.17.25c.11.46.69.58.75,1.06Z"/><path class="cls-4" d="M-32.9,115.29l-.93-1a33.94,33.94,0,0,1,2.57-2.66c.83-.86,1.68-1.69,2.54-2.55a1.3,1.3,0,0,1,.38.22c1.58,1.56,3.14,3.13,4.71,4.7a1.24,1.24,0,0,1,.17.27l-.8,1h2.05c.29-.33.57-.66.85-1a1.18,1.18,0,0,0-.16-.29l-7-7h-.2a.11.11,0,0,0-.09,0l-7,7a1.32,1.32,0,0,0-.16.25c.1.46.68.58.74,1.06Z"/><path class="cls-4" d="M138.66,115.29l-.92-1a33.81,33.81,0,0,1,2.56-2.66c.83-.86,1.69-1.69,2.55-2.55a1.3,1.3,0,0,1,.38.22l4.71,4.7c.06.09.12.18.17.27l-.81,1h2.06c.28-.33.57-.66.85-1a2.69,2.69,0,0,0-.16-.29l-7-7h-.2a.09.09,0,0,0-.09,0l-7,7a1.32,1.32,0,0,0-.16.25c.11.46.69.58.75,1.06Z"/><path class="cls-4" d="M-90.09,115.29l-.93-1a35.72,35.72,0,0,1,2.57-2.65c.83-.86,1.68-1.69,2.55-2.55a1.39,1.39,0,0,1,.37.22q2.37,2.34,4.71,4.7a1.24,1.24,0,0,1,.17.27l-.8,1h2.06l.85-1a1.69,1.69,0,0,0-.17-.29l-7-7h-.2A.16.16,0,0,0-86,107L-93,114a1.32,1.32,0,0,0-.16.25c.1.46.68.58.75,1.06Z"/><path class="cls-4" d="M-115.6,24.22a1.42,1.42,0,0,0,.44-.23c.24-.19.45-.41.7-.64a11.39,11.39,0,0,1,1.8,1.67c.59.56,1.16,1.15,1.74,1.73s1.15,1.14,1.7,1.71c-.5.69-4.32,4.53-5.14,5.2-.28,0-.4-.22-.57-.37s-.36-.42-.67-.43v2l1.18.91a4.58,4.58,0,0,0,.43-.34l6.47-6.46c.14-.14.26-.31.41-.49-.13-.16-.23-.3-.34-.42l-6.92-6.91-1.23,1Z"/><path class="cls-4" d="M-115.6-90.07a2.64,2.64,0,0,0,.44-.23c.24-.19.45-.41.7-.64a6.67,6.67,0,0,1,1.37,1.23c.44.42.87.86,1.3,1.3l1.3,1.3c.43.43.88.83,1.26,1.29a71.62,71.62,0,0,1-5.13,5.18c-.28,0-.4-.22-.57-.37s-.36-.42-.67-.43v2.06l1.18.9a2.79,2.79,0,0,0,.43-.34q3.24-3.23,6.47-6.46c.14-.14.26-.3.41-.48-.13-.17-.23-.3-.34-.42l-6.92-6.91-1.23,1Z"/><path class="cls-4" d="M-115.6-32.92a2.64,2.64,0,0,0,.44-.23c.24-.2.45-.42.7-.64a6,6,0,0,1,1.37,1.23c.44.41.87.86,1.3,1.29l1.3,1.31c.43.43.88.83,1.26,1.29-.49.67-4.31,4.52-5.13,5.18-.28,0-.4-.22-.57-.37s-.36-.42-.67-.43v2.06l1.18.9a2.79,2.79,0,0,0,.43-.34l6.47-6.46c.14-.14.26-.31.41-.48a3.47,3.47,0,0,0-.34-.42l-6.92-6.89-1.23,1Z"/><path class="cls-4" d="M-115.6-147.22a2.3,2.3,0,0,0,.44-.23c.24-.19.45-.41.7-.64a6.67,6.67,0,0,1,1.37,1.23c.44.42.87.86,1.3,1.3l1.3,1.3c.43.43.88.84,1.26,1.3-.49.67-4.31,4.51-5.13,5.18-.28,0-.4-.23-.57-.38s-.36-.41-.67-.42v2l1.18.91A2.86,2.86,0,0,0-114-136q3.24-3.22,6.47-6.46c.14-.14.26-.3.41-.48-.13-.16-.23-.3-.34-.42l-6.92-6.91-1.23,1Z"/><path class="cls-4" d="M-115.6,81.37a2.3,2.3,0,0,0,.44-.23c.24-.19.45-.41.7-.64a6.67,6.67,0,0,1,1.37,1.23c.44.42.87.87,1.3,1.3l1.3,1.3c.43.43.88.84,1.26,1.3-.49.67-4.31,4.51-5.13,5.18-.28,0-.4-.23-.57-.38s-.36-.41-.67-.42v2l1.18.91a4.58,4.58,0,0,0,.43-.34l6.47-6.47c.14-.14.26-.3.41-.48-.13-.16-.23-.3-.34-.42l-6.92-6.91-1.23,1Z"/><path class="cls-4" d="M-62.72-171.44c-.06-.1-.12-.2-.19-.3-.71-.79-.72-.79-1.75-.79h-1.78l.81,1c-.59.82-13.47,13.77-19.64,19.77-.17.16-.35.3-.52.44-.66-.49-19.52-19.31-20.18-20.12,0-.46.57-.57.68-1-.13,0-.25-.06-.37-.07h-1.13c-1.3,0-1-.24-2.13,1a3,3,0,0,0,.34.46c.4.42.82.82,1.23,1.23l20.57,20.56.91.89c.19-.15.35-.25.5-.38s.29-.29.44-.44l21.44-21.42Z"/><path class="cls-4" d="M-48.84-171.52l.84-1a16.62,16.62,0,0,0-2.64,0,.71.71,0,0,0-.35.19c-.26.22-.51.46-.8.73.19.23.32.43.48.59l4,4,17.81,17.79.83.81a4.91,4.91,0,0,0,.51-.39c.66-.65,1.31-1.31,2-2l19.92-19.9c.26-.26.51-.54.76-.81a1.57,1.57,0,0,0-.2-.3c-.92-.93-.63-.77-1.76-.78a9.9,9.9,0,0,0-1.72.06c.27.34.5.62.78,1a3.83,3.83,0,0,1-.33.46l-1.3,1.31L-27.8-152c-.26.25-.47.59-.85.71C-29.34-151.92-48.24-170.76-48.84-171.52Z"/><path class="cls-4" d="M28.48-148.41a1.41,1.41,0,0,0,.32-.17l22.88-22.7a2.51,2.51,0,0,0-.89-1.12.58.58,0,0,0-.38-.12H47.93l.83,1a4.17,4.17,0,0,1-.41.53c-1.57,1.58-3.15,3.15-4.72,4.72L29.46-152.1c-.27.27-.54.52-.77.74a.69.69,0,0,1-.57-.29l-1.82-1.81L9.15-170.6a3.25,3.25,0,0,1-.78-.91c.24-.28.49-.59.8-1-.32,0-.55-.05-.78-.05H6.64a.85.85,0,0,0-.45.21c-.25.23-.48.48-.73.74a2.25,2.25,0,0,0,.72.87l11.11,11.11,10.4,10.39Z"/><path class="cls-4" d="M108.87-171.43a2,2,0,0,0-2.14-1.11,9.27,9.27,0,0,1-1.49,0c.06.5.56.64.67,1v.12a.14.14,0,0,1,0,.09L86.47-151.92l-.52.49a.66.66,0,0,1-.19.09h-.19L65.87-171a2,2,0,0,1-.25-.32v-.17l.68-.79c-.09-.25-.29-.17-.43-.18a10.65,10.65,0,0,1-1.13,0,1.87,1.87,0,0,0-2,1.05.53.53,0,0,0,.14.25l22.69,22.65a.55.55,0,0,1,.25.07c.12.07.28-.23.43-.37Z"/><path class="cls-4" d="M143-151.3c-.67-.53-19.57-19.39-20.2-20.18l.76-1a3.16,3.16,0,0,1-.42-.08,7.11,7.11,0,0,1-1.13,0,2,2,0,0,0-2.12,1,4.7,4.7,0,0,0,.34.44c.74.76,1.49,1.5,2.25,2.25l19.62,19.62.83.81a4.91,4.91,0,0,0,.51-.39c.23-.21.44-.43.66-.65l21.22-21.21c.26-.26.51-.53.76-.8a1.44,1.44,0,0,0-.19-.31c-.93-.94-.64-.76-1.76-.78h-1.77c.33.42.58.72.81,1-.63.86-15.21,15.52-19.71,19.83C143.26-151.54,143.1-151.42,143-151.3Z"/><path class="cls-4" d="M158.12-171.47a2,2,0,0,0-2.11-1.07,8.69,8.69,0,0,1-1.25,0l.81.92c0,.42-.36.59-.59.82l-7.7,7.7c-1.21,1.21-2.42,2.43-3.64,3.63-.21.22-.44.42-.62.59h-.17l-.09-.05-12.21-12.19a3.88,3.88,0,0,1-.26-.31v-.17l.7-.78c-.16-.27-.38-.17-.56-.19a4.34,4.34,0,0,0-.51,0,1.93,1.93,0,0,0-2.09,1c0,.35.31.5.51.7l7.56,7.56,6.25,6.24c.24.24.48.48.77.75.16-.13.33-.24.47-.37l14.39-14.38A4,4,0,0,0,158.12-171.47Z"/><path class="cls-4" d="M101-171.5l-1.08-1H98.1a1.45,1.45,0,0,0-.49.07c.3.34.54.61.77.89,0,.41-.36.58-.59.81l-7.12,7.12-4.14,4.14c-.24.24-.49.47-.69.66h-.17l-.09-.05L73.36-171.08a1.94,1.94,0,0,1-.26-.31v-.17l.68-.78c-.1-.25-.29-.17-.44-.19s-.42,0-.62,0a1.83,1.83,0,0,0-2.09,1c0,.29.31.44.51.64l7.27,7.27L85-157.09c.24.24.48.48.77.75.16-.13.33-.24.47-.37l14.39-14.38C100.68-171.17,100.78-171.3,101-171.5Z"/><path class="cls-4" d="M28.39-156.28l15.29-15.28c-.15-.34-.57-.6-.9-.93H40.42l.76.91c0,.34-.24.48-.42.67l-4.36,4.36-7,7c-.24.24-.49.47-.7.66h-.17l-.09-.05L16-171.29a.92.92,0,0,1-.09-.23l.8-1H14.64a.87.87,0,0,0-.46.2c-.27.24-.52.52-.77.78a2,2,0,0,0,.18.32Z"/><path class="cls-4" d="M-28.71-156.36l15.2-15.19c-.08-.1-.22-.28-.37-.45s-.35-.32-.53-.49a18.9,18.9,0,0,0-2.38,0l.78.93c0,.34-.24.48-.42.67l-4.65,4.65-6.75,6.75c-.24.24-.49.47-.7.66h-.17l-.09,0-12.43-12.41a1.09,1.09,0,0,1-.1-.25l.7-.8c-.08-.25-.28-.18-.42-.18a5.61,5.61,0,0,1-.82,0,1.83,1.83,0,0,0-1.92,1C-43.27-170.82-30.37-157.85-28.71-156.36Z"/><path class="cls-4" d="M-70.65-171.53c-1.12-1.23-.82-1-2.14-1h-1c-.14.33.13.39.23.53a4.82,4.82,0,0,0,.36.43.43.43,0,0,1,0,.16.14.14,0,0,1,0,.09q-6,6-12,12.07l-.38.35a.24.24,0,0,1-.12,0l-12.69-12.69c0-.34.57-.46.67-.95a13.35,13.35,0,0,0-2,0,.82.82,0,0,0-.44.23c-.25.22-.48.48-.76.76a6.12,6.12,0,0,0,.4.49l14.39,14.38c.11.11.25.22.37.32C-85.18-156.84-71.2-170.81-70.65-171.53Z"/><path class="cls-4" d="M-85.8-166.32a1.17,1.17,0,0,1-.28-.17l-4.73-4.72a2.38,2.38,0,0,1-.18-.3l.82-1H-91c-1.29,0-1-.23-2.13,1a2.33,2.33,0,0,0,.26.38l6.76,6.76a1.44,1.44,0,0,0,.25.18c.6-.44,6.53-6.31,7.31-7.27a2.56,2.56,0,0,0-.79-.88.71.71,0,0,0-.46-.17,11.36,11.36,0,0,0-1.65,0l.8,1a1,1,0,0,1-.18.32l-4.65,4.65A3.62,3.62,0,0,1-85.8-166.32Z"/><path class="cls-4" d="M-33.82-171.5l.77-.89a5.37,5.37,0,0,0-1.83-.1,1.08,1.08,0,0,0-.34.21c-.25.23-.48.48-.69.7a.38.38,0,0,0,0,.15.14.14,0,0,0,0,.09l.27.31,6.86,6.86a2.5,2.5,0,0,0,.35-.21l6.76-6.75a3,3,0,0,0,.27-.35,7.14,7.14,0,0,0-.9-1,7.44,7.44,0,0,0-2,0l.79.89v.14a.11.11,0,0,1,0,.09c-1.57,1.58-3.13,3.16-4.71,4.74a3.17,3.17,0,0,1-.35.29,1.77,1.77,0,0,1-.32-.21q-2.34-2.31-4.66-4.65A3.46,3.46,0,0,1-33.82-171.5Z"/><path class="cls-4" d="M28.52-164.2c.62-.45,6.6-6.4,7.31-7.28a3,3,0,0,0-.79-.88.64.64,0,0,0-.37-.15,3.21,3.21,0,0,0-.62,0H32.92l.81,1a1.74,1.74,0,0,1-.18.33l-4.66,4.65-.32.23a1.61,1.61,0,0,1-.28-.17l-4.79-4.81a.44.44,0,0,0-.09-.24l.74-.86a1.24,1.24,0,0,0-.78-.13h-.82a.94.94,0,0,0-.71.36l-.6.63a3.62,3.62,0,0,0,.2.33l6.84,6.83Z"/><path class="cls-4" d="M90.93-171.51a1.17,1.17,0,0,1-.19.3l-4.81,4.79a.9.9,0,0,1-.21.08,1.58,1.58,0,0,1-.24-.15l-4.79-4.8a1.06,1.06,0,0,1-.09-.25l.73-.86a1.15,1.15,0,0,0-.77-.13h-.82a.94.94,0,0,0-.71.36l-.61.64c.11.16.23.32.35.47l6.55,6.54c.11.12.25.22.37.33.63-.46,6.6-6.39,7.33-7.29a3,3,0,0,0-.79-.88.61.61,0,0,0-.37-.15H90.1Z"/><path class="cls-4" d="M143-166.31c-.65-.51-4.36-4.19-5.14-5.1,0-.47.54-.58.66-1a4.74,4.74,0,0,0-1.76-.12.94.94,0,0,0-.35.2c-.25.24-.48.49-.76.77a3.91,3.91,0,0,0,.3.41l6.69,6.68c.09.09.21.17.3.25.68-.51,6.72-6.54,7.32-7.31a3.53,3.53,0,0,0-.81-.87.55.55,0,0,0-.37-.14,7,7,0,0,0-1.71,0l.8,1a2.14,2.14,0,0,1-.28.39l-4.43,4.43A5.87,5.87,0,0,1,143-166.31Z"/><path class="cls-4" d="M-.08,62.65H0a.52.52,0,0,1,.18.1l.3.33L23,85.51a.41.41,0,0,1,.05.09v.18l-.74.76L.91,107.9c-.17.18-.33.35-.51.51a5.88,5.88,0,0,1-.51.36L-23,85.92a.89.89,0,0,1-.14-.25C-22.55,85-.73,63.16-.08,62.65ZM.36,65.8A2.54,2.54,0,0,0,0,65.51C-.74,66.08-19.65,85-20.22,85.69a3.87,3.87,0,0,0,.35.45c.46.47.92.92,1.38,1.38L-.9,105.08a3.12,3.12,0,0,0,.9.76,1.38,1.38,0,0,0,.27-.14L20,85.94a1.28,1.28,0,0,0,.15-.25C19.58,84.94,3.12,68.38.36,65.8Z"/><path class="cls-4" d="M57.4,108.58a1,1,0,0,1-.32.17l-.79-.77L42.69,94.39l-8.07-8.06c-.21-.21-.5-.37-.54-.71L56.89,62.78a1.18,1.18,0,0,1,.29-.16,4.16,4.16,0,0,1,.39.32L80.33,85.68C72.63,93.38,65,101,57.4,108.58Zm-.51-42.91-20,19.93a4.72,4.72,0,0,0,.41.48,6.14,6.14,0,0,0,.5.52l18.47,18.48.84.83c.24-.2.45-.36.64-.55L63,100.14,76.58,86.55c.26-.26.52-.54.73-.76a.54.54,0,0,0,0-.18.14.14,0,0,0,0-.09L57.65,65.89c-.12-.12-.26-.22-.39-.33s-.07,0-.13,0A.66.66,0,0,0,56.89,65.67Z"/><path class="cls-4" d="M91.41,85.92a1.28,1.28,0,0,1-.15-.25c.54-.68,22.36-22.49,23-23h.1a.14.14,0,0,1,.09,0,2.61,2.61,0,0,1,.31.27l22.53,22.53a.14.14,0,0,1,0,.09.17.17,0,0,1,0,.1c-.52.67-22.34,22.48-23.12,23.07Zm23.2,19.77,20-19.94c-.17-.21-.29-.41-.45-.57l-4-4-14.9-14.89-.76-.73a.72.72,0,0,0-.59.29c-.32.31-.63.62-.94.94L95,84.73a4.79,4.79,0,0,0-.85,1c.2.22.39.46.6.67l5.38,5.38,13.36,13.3a2.88,2.88,0,0,0,.85.74Z"/><path class="cls-4" d="M-29.53-92.07-51-113.5c-.14-.15-.3-.29-.43-.44a5.12,5.12,0,0,1-.36-.52c.25-.22.46-.4.66-.59l21.66-21.65.37-.36a.67.67,0,0,1,.61-.28l22.68,22.67a2.26,2.26,0,0,1,.23.31c-.52.69-22.32,22.49-23.12,23.11Zm.64-2.26a2.26,2.26,0,0,0,.26.16l.27-.16,20-19.94c-.17-.21-.29-.41-.45-.57l-4.87-4.87-14-14-.75-.73a.69.69,0,0,0-.59.29l-1.53,1.53L-48-115.21a4.33,4.33,0,0,0-.82.94Z"/><path class="cls-4" d="M-63.49-113.48-84.94-92a4.47,4.47,0,0,1-.44.43c-.15.13-.31.23-.51.38L-108.67-114a2.42,2.42,0,0,1-.27-.36c.27-.29.52-.56.78-.82l21.45-21.43c.14-.15.29-.3.44-.44a.67.67,0,0,1,.61-.28Q-74.41-126.1-63-114.74a3.54,3.54,0,0,1,.35.42ZM-85.55-94.34q10-9.93,20-19.93c-.17-.21-.29-.41-.45-.57l-5-5-13.89-13.88-.85-.82a6,6,0,0,0-.49.39L-88-132.34l-17.15,17.15a3.34,3.34,0,0,0-.72.78.43.43,0,0,0,0,.16.14.14,0,0,0,0,.09l19.68,19.71a3.92,3.92,0,0,0,.32.25h.12A1.23,1.23,0,0,0-85.55-94.34Z"/><path class="cls-4" d="M114.48-108.74l22.71,22.65a3.32,3.32,0,0,1,.26.36c-.27.29-.52.56-.79.82Q126-74.18,115.22-63.47c-.15.14-.29.3-.44.43a4.74,4.74,0,0,1-.51.37L91.41-85.52a1.28,1.28,0,0,1-.15-.25c.51-.65,22.31-22.45,23-23C114.36-108.78,114.44-108.78,114.48-108.74Zm20,23a2,2,0,0,0-.64-.75q-5.29-5.31-10.61-10.61l-8.07-8.07c-.26-.26-.54-.51-.77-.72h-.18a.14.14,0,0,0-.09,0L94.46-86.17a2.51,2.51,0,0,0-.25.32v.15a1.94,1.94,0,0,0,.21.29l19.87,19.87c.71-.58,19.59-19.38,20.24-20.21Z"/><path class="cls-4" d="M57.4-62.86a1.41,1.41,0,0,1-.32.17l-.8-.77L41.89-77.85l-7.27-7.27c-.21-.21-.5-.37-.55-.76l22.38-22.36.52-.49.09,0h.16a3.17,3.17,0,0,1,.35.29L80.33-85.75ZM77.32-85.71c0-.34-.33-.5-.54-.71q-3.72-3.75-7.48-7.49L58-105.16c-.26-.27-.53-.52-.78-.76-.4.06-.57.35-.78.56l-6.11,6.1L37.72-86.62a3,3,0,0,0-.74.84,1.51,1.51,0,0,0,.15.28l19.95,20c.71-.59,19.43-19.26,20.24-20.21Z"/><path class="cls-4" d="M-.08-108.8a.6.6,0,0,1,.19.06l22.7,22.65a2.42,2.42,0,0,1,.27.36l-.79.82L.84-63.47c-.14.15-.29.29-.44.43a4.74,4.74,0,0,1-.51.37L-23-85.52a1,1,0,0,1-.15-.25C-22.61-86.42-.81-108.22-.08-108.8ZM.51-66c6.13-6,19.06-19,19.62-19.74-.6-.81-15.28-15.58-19.69-19.8-.15-.14-.31-.25-.46-.37-.69.53-19.59,19.41-20.2,20.18a3.87,3.87,0,0,0,.35.45c.21.23.43.44.65.66L-.9-66.34l.83.81A6.68,6.68,0,0,1,.51-66Z"/><path class="cls-4" d="M-57.17-108.78h.1l.3.27,22.53,22.59a.41.41,0,0,1,.05.09v.18l-.73.77L-56.3-63.52c-.17.17-.33.35-.51.5a4.74,4.74,0,0,1-.51.37L-80.15-85.52a1,1,0,0,1-.15-.25c.53-.68,22.35-22.49,23-23Zm0,2.89c-.24,0-.36.16-.5.3-.52.5-1,1-1.53,1.52L-76.58-86.71a7.85,7.85,0,0,0-.79.84.61.61,0,0,0,0,.19.11.11,0,0,0,0,.08L-57.76-66c.13.11.26.22.4.32h.12a1.58,1.58,0,0,0,.24-.15l20-19.94c-.59-.73-19.47-19.61-20.17-20.19Z"/><path class="cls-4" d="M113.45-120.64l-21.52-21.5c-.12-.12-.25-.24-.36-.37s-.22-.31-.4-.56a7.11,7.11,0,0,0,.68-.55l21.66-21.64c.13-.13.24-.25.37-.36l.44-.35c.94.73,17,16.74,22.71,22.57l.43.49c-.14.16-.23.29-.35.41l-22.76,22.74Zm21-22.25a.17.17,0,0,0,0-.1.16.16,0,0,0,0-.09l-19.76-19.77-.24-.18h-.15a2,2,0,0,0-.29.22Q104-152.91,94.08-143c.14.2.24.37.37.52s.28.3.43.44l18.54,18.52.84.82c1-.78,19.74-19.61,20.24-20.26Z"/><path class="cls-4" d="M142-34.92,120.56-56.35c-.15-.14-.3-.29-.44-.44s-.22-.31-.39-.55c.27-.23.52-.41.74-.63l21.6-21.57c.12-.12.23-.25.36-.36l.45-.35c.93.73,17.14,16.86,22.71,22.57.14.15.26.31.42.49-.11.14-.23.28-.35.41L143-34Zm1-42.4c-.25,0-.36.16-.51.29l-.44.44L123.52-58.07l-.82.84c.21.25.37.46.55.65l4.44,4.44,14.39,14.38a2.71,2.71,0,0,0,.85.73,1.17,1.17,0,0,0,.27-.15l20-20C162.62-57.83,143.8-76.67,143-77.32Z"/><path class="cls-4" d="M86.67-79.42Q96.85-69.27,107-59.08l1.45,1.45a4.78,4.78,0,0,1,.39.5L86-34.29a1.74,1.74,0,0,1-.33.18l-.79-.78L71.14-48.62l-7.92-7.92a1.32,1.32,0,0,1-.57-.88L85.48-80.09a2.69,2.69,0,0,1,.29-.16A5.07,5.07,0,0,1,86.67-79.42ZM65.89-57.62c-.1.11-.19.22-.28.34a.49.49,0,0,0,0,.17.14.14,0,0,0,0,.09l19.73,19.7a2,2,0,0,0,.32.26h.12a1,1,0,0,0,.24-.15l20-19.93a4.81,4.81,0,0,0-.44-.57l-5.16-5.16L86.64-76.58l-.91-.88C79.06-70.79,72.47-64.21,65.89-57.62Z"/><path class="cls-4" d="M-57.41,51.48l-.38-.35L-80.24,28.67a.14.14,0,0,1,0-.09v-.17l22.72-22.7c.1-.09.22-.15.34-.24a3.4,3.4,0,0,1,.86.74q5.72,5.7,11.41,11.41l10.11,10.1a3,3,0,0,1,.75.88Q-45.53,40-56.89,51.35a1.66,1.66,0,0,1-.3.22A.85.85,0,0,1-57.41,51.48Zm.66-3.14c4.68-4.48,19.09-19,19.69-19.81-.59-.81-15.17-15.48-19.69-19.81a5.19,5.19,0,0,0-.46-.36c-.67.51-19.57,19.38-20.2,20.17.11.15.22.31.35.46s.33.34.5.51L-58.09,48l.83.81C-57.06,48.59-56.89,48.48-56.75,48.34Z"/><path class="cls-4" d="M.9,6.31,22.28,27.67a4.47,4.47,0,0,1,.43.44c.13.14.24.31.37.48l-.84.85L5.08,46.58.57,51.08c-.19.18-.4.34-.64.55l-.84-.82L-19.67,32.08c-1-1-2.09-2.08-3.12-3.13a2.88,2.88,0,0,1-.3-.39C-15.39,20.85-7.73,13.2,0,5.48A5.44,5.44,0,0,1,.9,6.31ZM-.29,8.52l-20,19.93c.13.19.23.37.35.51s.34.34.51.51L-.93,47.92l.85.82a6.12,6.12,0,0,0,.56-.45q1.94-1.92,3.86-3.85l15.05-15,.74-.77V28.5a.26.26,0,0,0-.05-.09L.61,8.89.16,8.47A.9.9,0,0,0,0,8.39.7.7,0,0,0-.29,8.52Z"/><path class="cls-4" d="M56.6,5.91,57,5.56h.25a5,5,0,0,1,.86.8l21.38,21.3.43.42c.13.15.23.31.37.5L57.39,51.44c-.06.07-.17.09-.33.17L34,28.52Zm.81,42.64L77.18,28.79a1.28,1.28,0,0,0,.15-.25c-.56-.75-17.16-17.44-19.78-19.89a2.82,2.82,0,0,0-.39-.29C56.42,8.93,37.52,27.83,37,28.54a3,3,0,0,0,.35.45c.6.62,1.21,1.22,1.82,1.82L56.3,48a2.71,2.71,0,0,0,.85.73Z"/><path class="cls-4" d="M113.39,50.74Q103.16,40.54,93,30.33c-.47-.46-.93-.92-1.38-1.39a3.84,3.84,0,0,1-.41-.56c.31-.27.62-.5.88-.76L113,6.7c.3-.29.58-.59.88-.87a5.08,5.08,0,0,1,.51-.41l.91.89,21.37,21.36.44.44a2.59,2.59,0,0,1,.27.38l-23.12,23.1C114,51.31,113.67,51,113.39,50.74Zm1.34-42.09c-.12-.11-.26-.2-.38-.29-.73.57-19.64,19.46-20.19,20.18a3.87,3.87,0,0,0,.35.45c.55.57,1.11,1.12,1.67,1.68L113.48,48a4.58,4.58,0,0,0,.83.75c.11-.07.22-.1.29-.16l19.77-19.76a1.28,1.28,0,0,0,.15-.25C134,27.79,117.39,11.14,114.73,8.65Z"/><path class="cls-4" d="M-79.73-29.31l21.67-21.61c.12-.12.24-.25.37-.36l.5-.41c.33.33.63.61.91.9L-34.9-29.47c.15.14.29.29.43.44a4.21,4.21,0,0,1,.35.48l-.84.85L-53.86-8.81l-2.91,2.89a3.1,3.1,0,0,1-.46.35C-58-6.21-79.82-28-80.41-28.78A6.9,6.9,0,0,0-79.73-29.31ZM-57-8.6q9.9-9.87,19.77-19.76a.64.64,0,0,0,.15-.25c-.56-.75-17-17.28-19.78-19.89a2.82,2.82,0,0,0-.39-.29c-.7.55-19.61,19.44-20.19,20.18.11.14.22.31.35.45.41.42.82.83,1.24,1.24L-58.11-9.19a3.94,3.94,0,0,0,.83.75A1.12,1.12,0,0,0-57-8.6Z"/><path class="cls-4" d="M.81-50.92l11.41,11.4,10.11,10.1a2.65,2.65,0,0,1,.74.89L.3-5.79a3.09,3.09,0,0,1-.37.26l-.75-.7-4.94-4.94L-22.41-27.81a2.46,2.46,0,0,1-.74-.89L-.39-51.44c.1-.09.22-.15.34-.24A3.29,3.29,0,0,1,.81-50.92ZM0-8.44a5.32,5.32,0,0,0,.46-.37c4.6-4.41,19.09-19,19.69-19.8C19.54-29.43,5-44,.44-48.42A5.32,5.32,0,0,0,0-48.79c-.67.51-19.56,19.37-20.2,20.17C-19.62-27.86-.71-9,0-8.44Z"/><path class="cls-4" d="M56.89-51.52a1.51,1.51,0,0,1,.28-.15,4.73,4.73,0,0,1,.91.82L78-30.92c.63.63,1.27,1.25,1.89,1.89a4.66,4.66,0,0,1,.39.49Q68.8-17.08,57.4-5.72a.77.77,0,0,1-.25.14C56.53-6,34.74-27.8,34-28.64Zm.32,2.77c-.25,0-.36.17-.51.3l-1.09,1.09L37.8-29.56a4.79,4.79,0,0,0-.85,1c.2.23.39.46.6.68,1.91,1.91,3.83,3.82,5.74,5.74l13,13a3,3,0,0,0,.85.73,1.2,1.2,0,0,0,.27-.16l20-19.94C76.8-29.3,57.92-48.17,57.21-48.75Z"/><path class="cls-4" d="M-85.86-23.08h.19l.31.27L-62.83-.22V.05c-.22.23-.47.5-.74.77L-84.94,22.25c-.15.14-.29.3-.44.43s-.32.23-.51.37L-108.75.2A1.28,1.28,0,0,1-108.9,0C-108.38-.71-86.57-22.52-85.86-23.08ZM-106-.08a3.87,3.87,0,0,0,.35.45l2.54,2.55,16.43,16.46a4,4,0,0,0,.84.75,1.12,1.12,0,0,0,.28-.16L-65.79.21A1.58,1.58,0,0,0-65.64,0c-.56-.75-17.23-17.51-19.79-19.9a2.82,2.82,0,0,0-.39-.29C-86.56-19.63-105.46-.74-106,0Z"/><path class="cls-4" d="M-29.51,22.25-48.85,2.92-51.39.38c-.13-.14-.23-.31-.4-.54.31-.28.6-.53.87-.79l21.38-21.36c.14-.14.28-.3.43-.43l.47-.38a5.55,5.55,0,0,1,.95.86L-6.39-1c.17.17.35.33.51.51a3.65,3.65,0,0,1,.29.39L-28.71,23Zm.62-2.28a1.17,1.17,0,0,0,.27.15,2.26,2.26,0,0,0,.26-.16L-8.36,0c-.17-.21-.29-.4-.45-.56l-5-5L-27.74-19.43c-.26-.27-.54-.52-.85-.82a5.85,5.85,0,0,0-.49.38l-1.82,1.81L-48.06-.92a4.19,4.19,0,0,0-.8.93Z"/><path class="cls-4" d="M6.22-.92,26.79-21.45l1.31-1.31a.66.66,0,0,1,.61-.29L51.33-.45c.11.12.21.25.35.42-.28.3-.53.58-.79.84L29.44,22.24a4.47,4.47,0,0,1-.44.43,4.82,4.82,0,0,1-.51.38L5.71.29c-.09-.1-.16-.21-.28-.36A10.21,10.21,0,0,0,6.22-.92ZM28.3,20a1.18,1.18,0,0,0,.29.16,2.43,2.43,0,0,0,.32-.24L48.72.08c0-.38-.26-.52-.45-.71L42.75-6.15l-13.3-13.3-.85-.81a6,6,0,0,0-.5.38l-2.4,2.4L9.13-.92A4.29,4.29,0,0,0,8.32,0Z"/><path class="cls-4" d="M108.44-.53c.14.15.26.3.43.5l-.79.84L86.63,22.24c-.14.15-.29.29-.44.43s-.31.24-.51.39L62.9.29C62.81.2,62.74.08,62.63,0a2.91,2.91,0,0,1,.26-.33L85.67-23.15C86.67-22.36,103.05-6.08,108.44-.53ZM86.14-19.92c-.12-.11-.27-.2-.39-.29C85-19.63,66.11-.74,65.56,0a3.94,3.94,0,0,0,.36.45l2.39,2.4L84.89,19.38a2.88,2.88,0,0,0,.85.74A1.17,1.17,0,0,0,86,20L105.78.21a.72.72,0,0,0,.14-.24C105.36-.78,88.71-17.52,86.14-19.92Z"/><path class="cls-4" d="M165.26.81,143.81,22.25c-.14.15-.29.29-.44.43a4.74,4.74,0,0,1-.51.37L120,.21a1.92,1.92,0,0,1-.18-.31c.26-.26.51-.54.77-.8L142-22.33l.44-.44c.15-.13.26-.32.62-.27L165.74-.37A2.42,2.42,0,0,1,166,0ZM123,.31l19.87,19.87a5.09,5.09,0,0,0,.58-.46c1.1-1.08,2.19-2.18,3.28-3.27L162.36.83l.74-.76a.54.54,0,0,0,0-.18V-.19L143.58-19.68l-.45-.42a.72.72,0,0,0-.2-.09.89.89,0,0,0-.25.14l-20,20C122.78,0,122.89.18,123,.31Z"/><path class="cls-4" d="M114.41-51.62a1,1,0,0,1,.25.17l22.67,22.68a.11.11,0,0,1,0,.08.74.74,0,0,1,0,.21L114.84-5.92c-.14.14-.3.26-.42.37s-.14,0-.16,0a1.14,1.14,0,0,1-.25-.18q-11.34-11.4-22.67-22.73a.14.14,0,0,1,0-.09v-.1c.67-.82,22.43-22.54,23-23C114.35-51.64,114.39-51.64,114.41-51.62Zm.4,42.81c4.68-4.48,19.1-19,19.69-19.8-.59-.82-15.18-15.5-19.69-19.81-.14-.14-.31-.25-.45-.37-.68.52-19.58,19.39-20.2,20.17a5,5,0,0,0,.34.46c.16.18.34.34.51.51L113.47-9.2l.83.81A5.17,5.17,0,0,0,114.81-8.81Z"/><path class="cls-4" d="M50.89-56.34,29.44-34.92l-.44.44c-.14.12-.31.23-.51.38L5.71-56.86c-.09-.09-.16-.21-.28-.36.27-.29.52-.56.78-.82L27.66-79.47l.44-.44c.14-.13.26-.32.5-.3.83.66,19.1,18.83,22.73,22.61.11.12.21.25.35.43C51.4-56.92,51.15-56.6,50.89-56.34Zm-22.28-21c-.24,0-.36.16-.5.3-.52.5-1,1-1.53,1.52L9.14-58.06a3.19,3.19,0,0,0-.72.79.43.43,0,0,0,0,.16.16.16,0,0,0,.05.09L28.08-37.39a2.37,2.37,0,0,0,.39.32h.12a1,1,0,0,0,.24-.15l20-19.93c-.63-.77-19.52-19.61-20.22-20.17Z"/><path class="cls-4" d="M-28.57-80.2l.18.1.29.28L-5.64-57.36v.27c-.22.23-.47.5-.73.76L-27.76-34.92c-.15.14-.28.3-.44.43s-.31.22-.5.36L-51.56-56.92a1.28,1.28,0,0,1-.15-.25c.57-.72,22.39-22.52,23-23ZM-29-77.12-48.87-57.26c.14.2.24.37.37.52s.29.29.44.43l18.53,18.53.78.76c.43-.09.62-.41.85-.64l7.27-7.26L-9.21-56.33c.26-.26.51-.53.73-.76a.54.54,0,0,0,0-.18.14.14,0,0,0,0-.09L-28.24-77.13a1.44,1.44,0,0,0-.25-.18h-.14Z"/><path class="cls-4" d="M-85.9-34.18a1.44,1.44,0,0,1-.25-.18L-108.82-57a.11.11,0,0,1-.05-.09.17.17,0,0,1,0-.1c.66-.8,22.42-22.53,23-23h.1a1.44,1.44,0,0,1,.25.18q11.34,11.33,22.67,22.67a.14.14,0,0,1,0,.09v.1c-.7.88-17.53,17.78-22.55,22.64l-.42.36Zm-.26-3.07.32.23a1,1,0,0,0,.28-.16q10-9.94,20-19.94a3.43,3.43,0,0,0-.36-.49l-3.63-3.64L-84.89-76.57c-.26-.27-.53-.52-.76-.74a.73.73,0,0,0-.58.28l-.51.51-18.39,18.38a4.23,4.23,0,0,0-.89,1Z"/><path class="cls-4" d="M-57,108.59a1.37,1.37,0,0,1-.32.16l-.8-.78-18.61-18.6c-1.07-1.09-2.17-2.18-3.27-3.29a3.5,3.5,0,0,1-.37-.49l22.59-22.51c.12-.12.26-.23.38-.34a.17.17,0,0,1,.1,0h.1c.64.48,22.45,22.26,23.09,23.08ZM-77.24,86l19.94,19.94a3.68,3.68,0,0,0,.51-.37c.35-.33.68-.67,1-1l18-17.94.79-.82a2,2,0,0,0-.65-.81l-8.79-8.79-9.89-9.88c-.26-.26-.54-.51-.8-.76a1.86,1.86,0,0,0-.87.64q-4,3.91-7.91,7.92L-76.66,84.83a3.09,3.09,0,0,0-.74.83A1.18,1.18,0,0,0-77.24,86Z"/><path class="cls-4" d="M79.92-143.32c.12.12.21.25.36.42-.29.3-.54.58-.8.84L58-120.63c-.15.15-.29.3-.44.44a5.63,5.63,0,0,1-.51.37L34.3-142.58c-.09-.1-.16-.21-.27-.35l.34-.4,22.77-22.75ZM56.81-123l.32.23a1.64,1.64,0,0,0,.29-.16l20-19.94c-.16-.21-.29-.41-.44-.57l-3.85-3.85-15-15-.82-.79a1.76,1.76,0,0,0-.81.64c-2.46,2.44-4.9,4.89-7.35,7.33l-11.42,11.3a3,3,0,0,0-.79,1Z"/><path class="cls-4" d="M-22.32-143.82l21.08-21.1c.25-.24.48-.49.73-.72L0-166a5.11,5.11,0,0,1,1,.86L22.33-143.8l.44.44c.12.14.23.31.35.48l-.83.85L4.42-124.2.49-120.28c-.16.16-.35.29-.52.43-.76-.6-22.58-22.43-23.16-23.17C-22.87-143.31-22.59-143.56-22.32-143.82Zm22,20.9a1.35,1.35,0,0,0,.26.15.92.92,0,0,0,.27-.16l20-19.94a6.12,6.12,0,0,0-.45-.56c-1.71-1.73-3.44-3.45-5.16-5.16L.85-162.3c-.26-.27-.53-.52-.85-.82-.18.14-.35.25-.49.38l-2,2q-8.48,8.46-16.94,16.93a4.42,4.42,0,0,0-.88,1Z"/><path class="cls-4" d="M-79.57-143.76q10.69-10.69,21.38-21.36c.17-.17.33-.35.51-.51a.66.66,0,0,1,.61-.29l22.62,22.6c.11.12.21.26.35.43-.29.29-.53.57-.8.83q-10.71,10.73-21.44,21.43c-.15.15-.29.3-.44.44a5.63,5.63,0,0,1-.51.37l-22.79-22.77a3,3,0,0,1-.27-.35C-80.08-143.23-79.83-143.5-79.57-143.76Zm2.33,1.11,19.94,20c.19-.14.36-.24.51-.36s.34-.34.51-.51L-37.82-142l.77-.79c0-.39-.33-.55-.54-.76q-3.91-3.93-7.85-7.85l-10.91-10.89c-.26-.27-.53-.52-.78-.75-.4.06-.57.34-.78.55l-6.9,6.9-11.85,11.84a3.9,3.9,0,0,0-.74.83A1.18,1.18,0,0,0-77.24-142.65Z"/><path class="cls-4" d="M165.26-113.48,143.82-92c-.15.14-.29.3-.44.43s-.32.23-.51.38L120.08-114a2.42,2.42,0,0,1-.27-.36c.27-.29.52-.56.78-.82L142-136.62l.44-.44a.67.67,0,0,1,.61-.28l22.62,22.6c.11.11.21.25.35.42Zm-22.33,19.3a.94.94,0,0,0,.26-.14L163-114.08c.07-.06.1-.17.15-.24-.56-.76-16.92-17.21-19.78-19.9-.12-.11-.26-.2-.38-.29-.7.54-19.61,19.43-20.2,20.18C123.41-113.51,142.29-94.66,142.93-94.18Z"/><path class="cls-4" d="M-85.74,34.08a2.51,2.51,0,0,1,.32.25L-62.82,57V57a.67.67,0,0,1,0,.2L-85.4,79.85c-.12.11-.25.21-.35.29s-.13,0-.16,0a3.92,3.92,0,0,1-.32-.25l-22.6-22.64a.14.14,0,0,1,0-.09.17.17,0,0,1,0-.1c.74-.9,22.43-22.54,23-23Zm-.5,3.15L-106,57a5,5,0,0,0,.38.52,4.47,4.47,0,0,0,.43.44l18.54,18.53.82.8a4.59,4.59,0,0,0,.44-.33c2.67-2.53,19.18-19.14,19.75-19.91a1.28,1.28,0,0,0-.15-.25L-85.56,37.08a1.69,1.69,0,0,0-.29-.17c-.15.17-.27.17-.39.34Z"/><path class="cls-4" d="M-6.36,58l-19,19c-.92.92-1.84,1.85-2.77,2.76a4.78,4.78,0,0,1-.5.39c-.33-.31-.62-.6-.91-.89L-50.45,58.46c-.32-.31-.64-.62-.95-.94-.14-.18-.28-.37-.4-.56.32-.28.62-.5.89-.77l21.37-21.36.44-.43.44-.36c.76.59,22.57,22.38,23.13,23.13Zm-22,19.06,20-19.94c-.17-.21-.29-.4-.45-.57l-4.87-4.87-14-14c-.26-.27-.53-.52-.76-.74a.72.72,0,0,0-.58.3l-1.68,1.67Q-39.4,47.59-48,56.24a3.34,3.34,0,0,0-.72.78.49.49,0,0,0,0,.17.41.41,0,0,0,0,.09L-29.06,76.9a3.09,3.09,0,0,0,.39.33h.12A.9.9,0,0,0-28.36,77.08Z"/><path class="cls-4" d="M28.8,80a2,2,0,0,1-.32.17l-.8-.78L9.87,61.6l-4-4c-.16-.17-.3-.34-.44-.52L28,34.48l.38-.34h.19c.64.42,22.43,22.17,23.11,23Zm.2-3.09c4.46-4.24,19.11-19,19.73-19.84a1.23,1.23,0,0,0-.14-.25L28.73,37a.44.44,0,0,0-.19-.07c-.62.47-19.48,19.29-20.17,20.12.11.14.22.31.35.46s.28.31.43.46L27.69,76.52l.83.81C28.69,77.2,28.85,77.06,29,76.92Z"/><path class="cls-4" d="M84.79,79.31,63.92,58.46,63,57.52c-.15-.18-.28-.37-.41-.56.32-.28.63-.5.89-.77L84.84,34.83c.14-.14.28-.29.44-.43l.49-.4c.31.3.59.55.85.82l21.45,21.43a4.47,4.47,0,0,1,.43.44,4.21,4.21,0,0,1,.35.48l-23,23.14C85.37,79.89,85.08,79.6,84.79,79.31ZM86.1,37.18a1.94,1.94,0,0,0-.29-.21h-.24L66.08,56.48l-.53.6c.11.17.21.34.33.49s.28.3.43.44l18.61,18.6.78.74a3.5,3.5,0,0,0,.49-.37L89,74.08,105.17,58l.83-.9Z"/><path class="cls-4" d="M142.38,34.48c.12-.12.25-.23.38-.34H143a5,5,0,0,1,.86.8l21.31,21.22c.17.17.35.34.51.52a3.5,3.5,0,0,1,.37.49L143.18,80a1.29,1.29,0,0,1-.33.17l-23.1-23.1ZM122.92,56.84a1.18,1.18,0,0,0-.16.29,2.43,2.43,0,0,0,.24.32l19.87,19.87a4.74,4.74,0,0,0,.51-.37c.45-.43.88-.87,1.31-1.31L162.35,58l.79-.81a2.05,2.05,0,0,0-.65-.81l-9.59-9.59-9.09-9.08c-.26-.27-.54-.52-.9-.86Z"/><path class="cls-4" d="M63.4-115.19l21.45-21.43.43-.43c.15-.14.27-.33.5-.31.89.7,17.28,17,22.66,22.54.14.14.26.3.43.5-.28.29-.53.57-.79.83L86.63-92.06c-.14.15-.29.3-.44.44s-.31.23-.51.38L62.9-114c-.09-.09-.16-.21-.28-.36Zm22.82-18.95a5.32,5.32,0,0,0-.46-.37c-.68.52-19.58,19.4-20.2,20.17a5.07,5.07,0,0,0,.35.46l.8.8L84.88-94.92l.83.81c.23-.19.42-.33.58-.49,6.13-6,19.06-19,19.62-19.74C105.31-115.15,90.68-129.92,86.22-134.14Z"/><path class="cls-4" d="M27.85-136.81c.17-.17.35-.33.53-.49a.11.11,0,0,1,.09,0h.15a5.07,5.07,0,0,1,.87.8l20.79,20.78c.34.34.69.67,1,1a5.85,5.85,0,0,1,.38.49Q40.19-102.8,28.79-91.44a1.38,1.38,0,0,1-.34.18L5.37-114.34Zm.36,2.54L8.34-114.41c.14.2.24.37.37.52s.29.29.43.44L27.68-94.92l.78.76c.43-.09.61-.4.85-.64l7.05-7L48-113.48c.27-.26.52-.53.74-.76v-.18a.41.41,0,0,0-.05-.09L28.9-134.28a1.44,1.44,0,0,0-.25-.18h-.14Z"/><path class="cls-4" d="M15.09,85.73a2.48,2.48,0,0,1-.19.26C12.83,88.2.66,100.27,0,100.81H-.09a4.49,4.49,0,0,1-.46-.41L-15.11,85.85a.41.41,0,0,1-.05-.09v-.1C-14.69,85.08-1,71.35-.1,70.56ZM-.06,98.37A5.19,5.19,0,0,0,.4,98L12.18,86.24c.16-.16.3-.35.47-.55a2.88,2.88,0,0,0-.26-.35C8.27,81.22,4.16,77.08.1,73.08H-.1a.14.14,0,0,0-.09,0l-12.08,12a4.49,4.49,0,0,0-.41.46v.09C-12.24,86.3-1.22,97.38-.06,98.37Z"/><path class="cls-4" d="M57.42,70.7,72.24,85.52a.41.41,0,0,1,.05.09v.16c-.09.09-.19.22-.31.34l-14.4,14.38c-.14.14-.31.24-.45.36C55.81,99.68,42.49,86.32,42,85.64c.17-.19.34-.39.53-.58C48.82,78.68,56.61,71,57.2,70.54ZM57.62,98c4.18-4,11.51-11.44,12.19-12.29a2.55,2.55,0,0,0-.7-.83L59,74.76c-.46-.46-.91-.92-1.38-1.38a5.63,5.63,0,0,0-.45-.38c-.65.5-12,11.8-12.72,12.68a3.47,3.47,0,0,0,.29.38l12,12,.41.35A4.29,4.29,0,0,1,57.62,98Z"/><path class="cls-4" d="M99.58,85.17l14.32-14.3c.14-.14.25-.34.49-.31.84.7,14.6,14.48,15.12,15.14-.1.12-.2.25-.31.37-4,4.11-14,14.12-14.87,14.74-.61-.47-14.33-14.15-15.19-15.14C99.31,85.47,99.44,85.31,99.58,85.17Zm15.07,13L127,85.82c0-.46-.37-.64-.6-.87l-7.55-7.56-3.71-3.7c-.24-.24-.49-.47-.71-.67h-.16a.1.1,0,0,0-.09.06L102,85.22c-.12.12-.23.25-.38.42a2.21,2.21,0,0,0,.28.4l12.1,12a2.16,2.16,0,0,0,.33.27,2.2,2.2,0,0,0,.32-.21Z"/><path class="cls-4" d="M-43.76-114.34a.14.14,0,0,1,0-.09,2.6,2.6,0,0,1,.26-.32l14.69-14.66h.24c.09.08.23.19.35.31l14.46,14.45a2.34,2.34,0,0,1,.24.31L-28.73-99.15C-30.31-100.64-43.28-113.67-43.76-114.34ZM-28.63-127h-.09l-.09,0-12.08,12-.45.48a2.29,2.29,0,0,0,.28.41L-29-101.92a2.22,2.22,0,0,0,.33.28c.12-.09.24-.15.34-.24l12.39-12.38c-.57-.77-12-12.19-12.69-12.73Z"/><path class="cls-4" d="M-71-113.92c-3.61,3.77-14,14.12-14.87,14.75l-.18-.08-14.32-14.3-.57-.6v-.25c.08-.09.18-.22.3-.34l14.46-14.45c.12-.1.24-.2.37-.29.83.7,14.64,14.52,15.17,15.19C-70.75-114.2-70.84-114.07-71-113.92Zm-14.46-12.76a3,3,0,0,0-.39-.31c-.65.51-12,11.83-12.71,12.68a2.12,2.12,0,0,0,.29.38q6.06,6.08,12.14,12.13l.16.12h.19c.45-.33,12.14-12.06,12.63-12.69Z"/><path class="cls-4" d="M114.28-70.61c-.12-.1-.25-.21-.37-.33L99.52-85.32c-.15-.17-.29-.35-.42-.53L114.25-101c.27.23.46.37.63.54,5.76,5.62,14,14,14.59,14.71C129-85.08,115-71.11,114.28-70.61Zm.53-2.86c4.31-4.17,11.52-11.44,12.19-12.29a2.67,2.67,0,0,0-.71-.82L115.68-97.19a13,13,0,0,0-1-.94,1.91,1.91,0,0,0-.38-.31c-.65.5-12,11.84-12.71,12.67a2.12,2.12,0,0,0,.29.38l12,12,.41.35A5.41,5.41,0,0,0,114.81-73.47Z"/><path class="cls-4" d="M57-70.71l-.45-.42Q49.34-78.37,42.11-85.6a.15.15,0,0,1-.06-.09.38.38,0,0,1,0-.15,3.27,3.27,0,0,1,.3-.35l14.46-14.45a1.83,1.83,0,0,1,.31-.24L72.3-85.71a1.51,1.51,0,0,1-.18.26C70-83.15,57.89-71.18,57.18-70.63Zm-12.52-15c.09.12.18.26.29.38l12,12c.11.11.25.21.4.34.21-.18.39-.33.56-.49,5.43-5.31,11.5-11.43,12.11-12.22a2.43,2.43,0,0,0-.71-.82q-5.58-5.61-11.19-11.2l-.73-.68c-.71.48-12.1,11.84-12.76,12.64Z"/><path class="cls-4" d="M.39-100.59,14.85-86.14c.11.12.2.26.31.4l-.68.71L.74-71.31a2.14,2.14,0,0,1-.82.7c-1.64-1.46-14.61-14.5-15.09-15.16C-14.7-86.4-1.44-99.71,0-100.92A4.24,4.24,0,0,1,.39-100.59Zm-13.1,14.84a2.71,2.71,0,0,0,.24.35L-.4-73.34l.33.27a2.08,2.08,0,0,0,.34-.24L12.61-85.63c0-.45-.37-.63-.61-.86L4.16-94.34.67-97.83,0-98.45Z"/><path class="cls-4" d="M-72.21-86l14.84-14.8a.11.11,0,0,1,.09,0h.14c.1.09.23.19.35.31L-42.4-86.2c.14.14.35.25.3.5-.87,1-14.51,14.58-15.12,15.07-.63-.47-14-13.77-15.18-15.11A1.53,1.53,0,0,1-72.21-86Zm15.53,12.5c5.42-5.31,11.5-11.44,12.12-12.24a4.82,4.82,0,0,0-.35-.44L-56.76-98.06a5.58,5.58,0,0,0-.46-.39c-.66.53-12,11.9-12.71,12.69.09.12.18.26.29.38l12,12c.11.11.25.21.4.34A6,6,0,0,0-56.68-73.54Z"/><path class="cls-4" d="M114.77-157.74l14.46,14.46a4.12,4.12,0,0,1,.32.41c-.41.4-.77.77-1.13,1.13l-13.3,13.29c-.26.25-.47.58-.85.7l-14.93-14.9a1.28,1.28,0,0,1-.15-.25c.49-.65,13.78-14,15.16-15.2Zm-.12,2.37a1.9,1.9,0,0,0-.33-.22c-.8.66-12.15,12-12.69,12.71A14.45,14.45,0,0,0,103-141.5l1.45,1.45,1.38,1.38,1.38,1.39,1.46,1.45,1.38,1.38,1.38,1.38,1.45,1.45,1.43,1.42c.19-.13.38-.28.56-.43l11.7-11.7c.17-.16.31-.35.55-.62Z"/><path class="cls-4" d="M143.2-72.17,158-57.35v.09a.43.43,0,0,1,0,.16c-.08.09-.19.22-.31.34q-7.19,7.2-14.39,14.38a3.94,3.94,0,0,1-.45.36c-1.32-1.17-14.63-14.52-15.14-15.2.14-.17.29-.35.45-.52,5.78-5.91,14-14.06,14.74-14.59A1.08,1.08,0,0,1,143.2-72.17Zm-12.94,15a2.71,2.71,0,0,0,.24.35l12.07,12.06c.09.09.21.17.33.28a2.62,2.62,0,0,0,.34-.24L155.56-57c0-.44-.3-.59-.51-.8l-6.32-6.33-5-5c-.24-.24-.49-.46-.74-.7Z"/><path class="cls-4" d="M70.61-57.18a.21.21,0,0,1,.07-.19L85.5-72.19a1.35,1.35,0,0,1,.26-.15l.26.17,14.81,14.83a.14.14,0,0,1,0,.09h0L85.68-42.06C84.3-43.28,71.09-56.54,70.61-57.18ZM86.05-44.73,98.37-57c0-.45-.3-.6-.5-.81l-6.54-6.54-4.8-4.8c-.24-.24-.5-.46-.71-.66h-.25l-12,12-.54.56a4.21,4.21,0,0,0,.35.48l11.92,12c.12.12.26.22.4.35A2.71,2.71,0,0,0,86.05-44.73Z"/><path class="cls-4" d="M-72.34,28.44a4,4,0,0,1,.26-.32l14.69-14.66.09-.05h.15c.12.1.24.2.35.31l14.46,14.45a4.08,4.08,0,0,1,.31.39c-.25.27-.46.5-.68.71Q-49.56,36.14-56.44,43a2.31,2.31,0,0,1-.83.69c-1.58-1.41-14.61-14.49-15.09-15.15C-72.35,28.5-72.36,28.46-72.34,28.44Zm27.47.52c.11-.12.21-.26.33-.41a2.8,2.8,0,0,0-.25-.35L-57.08,15.91a.49.49,0,0,0-.52.17l-12,12c-.12.12-.21.26-.32.39a1.69,1.69,0,0,0,.17.29L-57.3,41.25C-56.48,40.6-47.26,31.47-44.87,29Z"/><path class="cls-4" d="M-.13,13.38a.54.54,0,0,1,.18,0,1.94,1.94,0,0,1,.31.26L15,28.35a.41.41,0,0,1,.05.09v.1c-.58.81-10.41,10.7-14.64,14.78a3.1,3.1,0,0,1-.41.33L-15.2,28.43Zm12.52,15.5a2.8,2.8,0,0,0,.25-.35,2.7,2.7,0,0,0-.25-.34L0,15.8a4.38,4.38,0,0,0-.42.28l-12,12c-.11.12-.21.25-.32.38a1.75,1.75,0,0,0,.18.29L0,41.31Z"/><path class="cls-4" d="M57.24,13.42a1.94,1.94,0,0,1,.31.26Q64.9,21,72.23,28.36v.08a.21.21,0,0,1,0,.11c-.57.73-12,12.24-14.76,14.85-.12.11-.26.21-.4.32l-.63-.59L54,40.66,42.69,29.33c-.26-.26-.59-.47-.7-.84.85-1,14.54-14.62,15.15-15.1ZM69.82,28.51a4.94,4.94,0,0,0-.36-.44L57.61,16.23c-.14-.14-.31-.26-.4-.34L44.49,28.59h0v.09l12,12c.17.17.35.32.53.48h.1C57.81,40.69,69.24,29.27,69.82,28.51Z"/><path class="cls-4" d="M99.27,28.36q7.41-7.42,14.82-14.82a1.4,1.4,0,0,1,.26-.16,1.51,1.51,0,0,1,.26.18l14.82,14.82a.14.14,0,0,1,0,.09v.15c0,.09-.19.23-.31.35L114.77,43.34a4.06,4.06,0,0,1-.46.36C113,42.51,99.68,29.17,99.21,28.54,99.23,28.48,99.23,28.4,99.27,28.36Zm15.06-12.48c-.61.45-11.79,11.59-12.69,12.64A3,3,0,0,0,102,29l11.92,11.92c.12.12.26.22.41.35.15-.12.29-.22.41-.33L127.05,28.6C126.38,27.74,115,16.36,114.33,15.88Z"/><path class="cls-4" d="M-42.44-28.15c-5.32,5.46-14,14.07-14.81,14.68a1.43,1.43,0,0,1-.24-.16L-72.31-28.46a.14.14,0,0,1,0-.09.43.43,0,0,1,0-.16c.09-.09.19-.22.31-.34q7.19-7.2,14.39-14.38c.14-.14.25-.34.49-.31.87.73,14.6,14.49,15.11,15.15A5.88,5.88,0,0,0-42.44-28.15Zm-27.46-.46a1.23,1.23,0,0,0,.14.25L-57.3-15.92a3.66,3.66,0,0,0,.5-.38l11.85-11.82c.14-.14.26-.3.36-.41a.49.49,0,0,0,0-.17.14.14,0,0,0,0-.09L-56.86-41a2.76,2.76,0,0,0-.37-.31C-58.25-40.45-69.43-29.24-69.9-28.61Z"/><path class="cls-4" d="M14.4-27.8,9.6-23c-3,3-5.95,6-8.94,8.93-.23.23-.41.55-.8.62L-14.61-27.92l-.5-.52a.41.41,0,0,1-.05-.09v-.1a.17.17,0,0,1,.08-.18L-.18-43.69a.14.14,0,0,1,.09,0h0l15.22,15.2Zm-2-.47c.09-.11.17-.23.25-.35A2.7,2.7,0,0,0,12.4-29L.1-41.25H-.19l-12.08,12a4.49,4.49,0,0,0-.41.46v.1C-12.24-28-1.23-16.92,0-15.92Z"/><path class="cls-4" d="M72-28.18,57.58-13.8a5.07,5.07,0,0,1-.46.35C55.7-14.71,42.49-28,42-28.61v-.1l.19-.24L57-43.68h.19c.62.49,14.25,14.08,15.18,15.14A1.27,1.27,0,0,0,72-28.18ZM57.2-16a1,1,0,0,0,.27-.19L69.8-28.49c0-.45-.38-.63-.61-.86l-8.36-8.36-3-3c-.19-.19-.4-.36-.6-.53-.65.47-11.73,11.5-12.69,12.61Z"/><path class="cls-4" d="M-85.76-15.16h0l.32.26L-70.75-.22a.14.14,0,0,1,0,.09V0C-71.37.77-81,10.46-85.43,14.75c-.15.14-.31.26-.39.33L-100.95,0ZM-98.49,0a2.71,2.71,0,0,0,.24.35l12.07,12.06a2.16,2.16,0,0,0,.33.27,2.08,2.08,0,0,0,.34-.24L-73.17.08c0-.45-.38-.63-.61-.86l-7.7-7.71-3.64-3.63c-.21-.21-.44-.41-.67-.62Z"/><path class="cls-4" d="M-28.26,14.82a4.23,4.23,0,0,1-.41.33l-.76-.74-2.84-2.83L-43.09.76c-.26-.26-.59-.47-.7-.84C-43-1-29.25-14.7-28.63-15.19a1.28,1.28,0,0,1,.25.15L-13.45-.1C-14.08.72-25.39,12.08-28.26,14.82Zm-.38-2.18a2.35,2.35,0,0,0,.32-.23L-16,.08c0-.44-.31-.6-.52-.81l-6.61-6.61-4.72-4.72c-.24-.24-.5-.47-.71-.67h-.16l-.09.05L-41-.5l-.39.42C-40.79.63-29.4,12-28.64,12.64Z"/><path class="cls-4" d="M28.62-15.16h0l.24.19Q36.24-7.6,43.61-.22V0C43.07.77,33.5,10.41,29,14.75c-.15.14-.31.26-.4.33L13.48,0Zm.16,2.59a.94.94,0,0,0-.26-.14c-.92.78-12.16,12-12.62,12.65V0l.1,0,12,12,.56.53a4.29,4.29,0,0,0,.48-.36L40.83.46c.14-.14.26-.3.47-.54C37.07-4.3,32.93-8.44,28.78-12.57Z"/><path class="cls-4" d="M70.63-.14a2.61,2.61,0,0,1,.27-.31L85.58-15.11h.24c.1.09.23.19.35.31L100.63-.34a3,3,0,0,1,.31.39l-.75.78Q93.37,7.67,86.53,14.48a2.24,2.24,0,0,1-.83.7C84,13.6,71.1.63,70.61,0A.36.36,0,0,1,70.63-.14ZM86.14-12.41a2.85,2.85,0,0,0-.38-.31C85.12-12.23,73.8-.92,73,0c.12.14.22.31.36.45L85.25,12.25c.14.14.3.27.48.42.18-.15.34-.27.49-.41C90.38,8.26,97.72.83,98.46-.11Z"/><path class="cls-4" d="M143.38-14.86,157.76-.47c.14.13.35.24.3.49-.9,1-14.51,14.59-15.13,15.07h-.09c-.13-.11-.26-.21-.38-.33L127.86.08V-.11c.48-.62,14.08-14.24,15.15-15.17ZM155.38.3c.09-.11.17-.23.25-.35-.13-.16-.22-.3-.33-.41L143.08-12.68h-.29L130.62-.52a3.09,3.09,0,0,0-.33.39V0c.46.62,11.51,11.72,12.7,12.74Z"/><path class="cls-4" d="M114.79-13.83c-.14.14-.31.26-.47.4l-.34-.29Q106.7-21,99.45-28.25a2.36,2.36,0,0,1-.32-.44l15.08-15.15a3,3,0,0,1,.38.23l14.93,14.94C128.86-27.81,119.29-18.17,114.79-13.83Zm-.46-2.09a3.62,3.62,0,0,0,.32-.22L127-28.48c0-.46-.37-.63-.6-.86-2.51-2.53-5-5-7.55-7.56l-3.71-3.71c-.24-.24-.49-.46-.71-.66h-.25L102-29.08l-.39.42C102.18-27.92,113.56-16.56,114.33-15.92Z"/><path class="cls-4" d="M28.56-72.32a.42.42,0,0,1,.18.08l14.9,14.89a.14.14,0,0,1,0,.09v.15a3.27,3.27,0,0,1-.3.35L29-42.38c-.14.13-.31.24-.46.36-1.2-1.06-14.63-14.53-15.14-15.2C14.53-58.51,27.94-71.86,28.56-72.32ZM15.88-57.19a2.71,2.71,0,0,0,.24.35L28.26-44.7l.25.19a.72.72,0,0,0,.27-.15L41.18-57c0-.45-.29-.6-.5-.81Q37.56-61,34.43-64.09l-5.09-5.08-.75-.72Z"/><path class="cls-4" d="M-28.58-72.32c.1.08.26.2.41.34,4.48,4.31,14.05,14,14.67,14.78a.4.4,0,0,1-.07.18L-28.39-42.2a2.06,2.06,0,0,1-.37.23l-15.08-15.1Zm.25,27.59C-24.2-48.84-20.09-53-16-57c0-.45-.29-.6-.5-.81L-23-64.38l-4.8-4.8c-.24-.24-.49-.46-.7-.66h-.26l-12,12-.53.56a3.27,3.27,0,0,0,.35.48l11.92,11.92c.12.12.25.22.4.35A3.79,3.79,0,0,0-28.33-44.73Z"/><path class="cls-4" d="M-85.91-42.07a2.61,2.61,0,0,1-.31-.27L-100.89-57a.14.14,0,0,1,0-.09.17.17,0,0,1,0-.1.71.71,0,0,1,.08-.18L-86-72.27l.09,0h.15l.35.31L-71-57.62c.13.13.34.24.3.49-.85,1-14.51,14.59-15.13,15.07Zm12.44-14.7a4.12,4.12,0,0,0,.33-.4,2.31,2.31,0,0,0-.25-.36L-85.68-69.82a.6.6,0,0,0-.52.23l-12,12c-.12.12-.22.26-.33.39a2.75,2.75,0,0,0,.17.29l12.52,12.52Z"/><path class="cls-4" d="M-58.17,100-71.68,86.48a2.11,2.11,0,0,1-.72-.9l15-15.08.26.07a1.08,1.08,0,0,1,.24.18L-42.15,85.5a.14.14,0,0,1,0,.09v.09c-.62.81-10.3,10.56-14.69,14.79a6.26,6.26,0,0,1-.49.41Zm13.22-13.81c.14-.14.26-.3.36-.41a.49.49,0,0,0,0-.17.14.14,0,0,0,0-.09q-6.12-6.15-12.27-12.29a1.14,1.14,0,0,0-.25-.18h-.1c-.92.79-12.14,12-12.61,12.64v.11a.14.14,0,0,0,0,.08l12,12,.56.53C-56.41,97.7-48.74,90.08-44.95,86.18Z"/><path class="cls-4" d="M57.52-128c-.12.11-.26.2-.41.32l-.69-.67L54-130.86,42.69-142.11c-.26-.26-.59-.47-.7-.84.87-1,14.54-14.62,15.15-15.1.67.5,13.62,13.37,15.18,15.1C71.71-142.16,60.2-130.58,57.52-128Zm-.05-2.42L69.8-142.78c0-.45-.38-.63-.61-.86L60.83-152l-3-3c-.19-.19-.4-.36-.6-.54-.65.48-11.72,11.49-12.73,12.66a3.1,3.1,0,0,0,.35.46l11.92,11.91c.12.12.25.22.4.35A2.13,2.13,0,0,0,57.47-130.46Z"/><path class="cls-4" d="M.53-157.6l14.24,14.24c.14.14.34.25.32.54-.09.1-.19.23-.31.35L.39-128.1a5.19,5.19,0,0,1-.46.36c-1.45-1.3-14.62-14.52-15.11-15.18a1,1,0,0,1,.15-.25c5-5,9.92-9.93,15-15Zm-.6,27.36a.94.94,0,0,0,.26-.14c4.15-4.13,8.29-8.27,12.39-12.37,0-.41-.24-.55-.42-.74-1.69-1.7-3.38-3.39-5.09-5.08L.75-154.92c-.24-.24-.49-.47-.7-.66H-.21l-11.86,11.83-.68.71c.52.76,11.75,12,12.68,12.8Z"/><path class="cls-4" d="M-57.13-158c.16.13.31.27.46.41l14.52,14.53a.24.24,0,0,1,.06.09.24.24,0,0,1,0,.12,1.19,1.19,0,0,1-.16.23l-14.84,14.8a.14.14,0,0,1-.09,0h-.14l-.71-.69-4-4-9.74-9.73c-.23-.23-.56-.41-.6-.78,1-1.13,14.53-14.61,15.14-15.08C-57.19-158-57.15-158-57.13-158Zm-.1,27.77a2.71,2.71,0,0,0,.35-.24l12-12c.1-.11.19-.22.28-.34a.49.49,0,0,0,0-.17v-.09l-12.2-12.22-.23-.2-.19-.07c-.8.67-12.13,12-12.63,12.65Z"/><path class="cls-4" d="M143.36-129.16l14.46,14.45a3.37,3.37,0,0,1,.29.37,2.32,2.32,0,0,1-.22.3L143.28-99.45a2.07,2.07,0,0,1-.38.28c-1.66-1.49-14.61-14.5-15.11-15.18a1.28,1.28,0,0,1,.15-.25l15-15A5.77,5.77,0,0,1,143.36-129.16Zm11.92,15.24c.12-.12.21-.26.34-.41a2.8,2.8,0,0,0-.25-.35l-12.29-12.24a.48.48,0,0,0-.52.22l-12,12c-.11.12-.22.25-.32.38a1.22,1.22,0,0,0,.17.29l12.45,12.46C143.68-102.27,152.93-111.43,155.28-113.92Z"/><path class="cls-4" d="M-86.63,71.56l-4.14-4.14-9.59-9.59c-.23-.23-.56-.41-.61-.78.9-1,14.53-14.61,15.14-15.08h.1a3.43,3.43,0,0,1,.39.34l14.6,14.62v.19c-.47.6-14.23,14.38-15.17,15.18Zm.77-1.78a.4.4,0,0,0,.26-.14l12.4-12.37c0-.41-.24-.55-.42-.74-1.91-1.92-3.83-3.83-5.74-5.74L-85,45.08c-.24-.24-.5-.46-.7-.66H-86L-97.85,56.34l-.68.74C-98,57.73-86.77,69-85.86,69.78Z"/><path class="cls-4" d="M-14.92,58.64-27.86,71.57c-.25.25-.46.58-.83.69l-14.94-14.9a1.09,1.09,0,0,1-.14-.23V57a4.69,4.69,0,0,1,.41-.46L-28.82,42h.09c5.11,5,10.15,10,15.26,15.17Zm-26.24-1.79a.79.79,0,0,0-.14.23c.46.63,11.58,11.79,12.65,12.7.17-.14.37-.28.53-.44l11.63-11.6c.19-.19.36-.4.55-.63-.13-.17-.23-.31-.34-.43-2.36-2.48-11.6-11.6-12.42-12.29Z"/><path class="cls-4" d="M27.74,71.55l-5.81-5.81-8-8c-.21-.21-.52-.36-.51-.72C14.52,55.77,27.93,42.43,28.55,42a.17.17,0,0,1,.18.09L43.64,56.94V57a1.5,1.5,0,0,1,0,.3l-15.08,15ZM15.88,57.08a2.71,2.71,0,0,0,.24.35L28.26,69.59l.25.19a.87.87,0,0,0,.27-.14l12.4-12.37c0-.41-.24-.55-.42-.74L35,50.79l-5.66-5.71c-.24-.24-.49-.47-.75-.71Z"/><path class="cls-4" d="M100.33,57.77c-.87.87-1.74,1.75-2.62,2.62L86.52,71.57a2.37,2.37,0,0,1-.91.72l-14.93-15a.27.27,0,0,0-.07-.18c-.07-.06,0-.08,0-.1.16-.18.31-.36.48-.53L85.59,42H86l15,15Zm-2-.64V57a.41.41,0,0,0,0-.09q-6.09-6.12-12.2-12.22a1.1,1.1,0,0,0-.23-.2l-.19-.08c-.78.7-12.1,12-12.58,12.64v.1a.14.14,0,0,0,0,.09L84.91,69.08l.77.75c.81-.64,12.22-12.06,12.69-12.75Z"/><path class="cls-4" d="M158.07,57.08c0,.06,0,.15-.08.19q-7.4,7.42-14.82,14.81a1.17,1.17,0,0,1-.28.17c-.13-.11-.26-.21-.38-.33L128.12,57.56c-.13-.14-.24-.3-.32-.4L143,42C144,42.84,157.6,56.48,158.07,57.08ZM142.9,44.42c-.89.77-1.69,1.65-2.54,2.48s-1.7,1.69-2.55,2.54l-2.47,2.47c-.85.85-1.7,1.69-2.54,2.54s-1.7,1.69-2.54,2.54c0,.43.37.6.6.83q5.55,5.57,11.14,11.12l.87.86c.13-.07.24-.09.3-.16q6.22-6.19,12.48-12.45C155.11,56.47,143.75,45.08,142.9,44.42Z"/><path class="cls-4" d="M86.17-129.17l14.46,14.46a4.08,4.08,0,0,1,.31.39c-.16.17-.26.3-.38.42L86.17-99.52a3.87,3.87,0,0,1-.45.35c-1.57-1.39-14.62-14.51-15.12-15.18a1.28,1.28,0,0,1,.15-.25l15-15ZM73-114.39a3.57,3.57,0,0,0,.34.43l12,12a4.35,4.35,0,0,0,.41.34c.2-.18.39-.32.56-.49,5.45-5.34,11.51-11.45,12.1-12.22a2.64,2.64,0,0,0-.7-.82L86.5-126.35c-.24-.24-.49-.46-.79-.74Z"/><path class="cls-4" d="M28.65-129.45c.16.14.32.27.46.41l14.53,14.53v.09a.24.24,0,0,1,0,.12c0,.08-.1.16-.16.24L28.64-99.26a.14.14,0,0,1-.09,0h-.13l-.72-.7-4.51-4.5L14-113.62c-.24-.23-.56-.4-.61-.77.95-1.09,14.53-14.61,15.14-15.08A.17.17,0,0,1,28.65-129.45Zm-12.8,15.11c.12.14.22.31.36.45L28.06-102c.14.15.3.27.48.43.18-.16.34-.28.49-.42,4.11-4,11.5-11.43,12.18-12.28a2.24,2.24,0,0,0-.7-.83q-4.89-4.92-9.81-9.81L29-126.63c-.14-.14-.31-.27-.45-.39C27.93-126.53,16.62-115.25,15.85-114.34Z"/><path class="cls-4" d="M.23,78.58,7,85.33a2.33,2.33,0,0,1,.26.38C6.14,87,.53,92.53-.09,93a1.88,1.88,0,0,1-.24-.18L-7.08,86a2.8,2.8,0,0,1-.25-.35L0,78.39A2.11,2.11,0,0,1,.23,78.58Zm-.22,2a.17.17,0,0,0-.1,0,.14.14,0,0,0-.09,0l-4.52,4.5c-.17.17-.32.35-.52.57a2.49,2.49,0,0,0,.29.43l4.64,4.64a1.14,1.14,0,0,0,.23.15,2.35,2.35,0,0,0,.37-.24L5,86a1.32,1.32,0,0,0,.19-.29c-1-1.1-4.56-4.58-5.19-5.1Z"/><path class="cls-4" d="M57.11,93l-.31-.25-6.68-6.64c-.1-.12-.19-.25-.28-.38.88-1,6.69-6.79,7.3-7.26.63.48,6.62,6.45,7.29,7.27C63.7,86.57,57.74,92.5,57.11,93Zm-.23-12.28-4.78,4.8c-.05,0-.05.12-.09.23a1.61,1.61,0,0,0,.21.3l4.84,4.84a60.3,60.3,0,0,0,5.24-5.12v-.1a.14.14,0,0,0,0-.09L57.82,81l-.45-.41a.9.9,0,0,0-.21-.08Z"/><path class="cls-4" d="M114.68,78.65c2.2,2.19,4.41,4.4,6.6,6.6a3,3,0,0,1,.34.46c-1,1.18-6.72,6.82-7.33,7.25a1.88,1.88,0,0,1-.24-.18L107.3,86a2,2,0,0,1-.25-.35c2.44-2.44,4.84-4.83,7.3-7.3C114.47,78.48,114.58,78.55,114.68,78.65Zm4.84,7.06a3.72,3.72,0,0,0-.33-.45l-4.35-4.35a5,5,0,0,0-.43-.37c-.12,0-.2,0-.24.07l-4.66,4.63c-.1.11-.2.22-.29.34a.49.49,0,0,0,0,.17.14.14,0,0,0,0,.09l4.55,4.59c.14.14.3.27.48.44C115,90.31,118.62,86.73,119.52,85.71Z"/><path class="cls-4" d="M-28.29-121.37l6.6,6.6a5,5,0,0,1,.34.46c-1,1.19-6.72,6.83-7.33,7.26l-.24-.19c-2.25-2.24-4.51-4.49-6.75-6.75a2,2,0,0,1-.25-.35l7.3-7.29A2.91,2.91,0,0,1-28.29-121.37Zm-5.53,7a4.52,4.52,0,0,0,.34.51c1.47,1.48,2.94,3,4.43,4.42.12.12.25.21.37.31a65.86,65.86,0,0,0,5.19-5.11v-.11a.11.11,0,0,0,0-.08l-4.78-4.8a1.38,1.38,0,0,0-.25-.17h-.18Z"/><path class="cls-4" d="M-92.54-113.66c-.16-.17-.33-.34-.49-.52a.16.16,0,0,1-.06-.08v-.28l7.26-7.17c.89.82,1.69,1.66,2.51,2.48s1.61,1.59,2.4,2.39,1.67,1.59,2.4,2.47c-.53.7-6.55,6.73-7.35,7.36C-88.13-109.26-90.34-111.45-92.54-113.66Zm6.29-5.51-4.63,4.65a.32.32,0,0,1-.06.19.4.4,0,0,0,.07.18q2.34,2.37,4.7,4.73a2.34,2.34,0,0,0,.31.24,67,67,0,0,0,5.23-5.16A28.64,28.64,0,0,0-83.17-117c-.85-.87-1.71-1.75-2.63-2.59A5.43,5.43,0,0,0-86.25-119.17Z"/><path class="cls-4" d="M114.68-92.8c2.2,2.2,4.41,4.4,6.6,6.61a3,3,0,0,1,.34.45c-1,1.19-6.72,6.83-7.33,7.26a1.88,1.88,0,0,1-.24-.18l-6.75-6.75a2,2,0,0,1-.25-.35l7.3-7.3A1.64,1.64,0,0,1,114.68-92.8Zm-.32,12.14a58.79,58.79,0,0,0,5.15-5.08,1.23,1.23,0,0,0-.19-.31q-2.31-2.33-4.64-4.64a2.35,2.35,0,0,0-.32-.23,69.24,69.24,0,0,0-5.14,5.14Z"/><path class="cls-4" d="M57.22-93c.82.72,1.6,1.58,2.43,2.39s1.61,1.58,2.39,2.39a31.1,31.1,0,0,1,2.39,2.48c-.64.81-6.66,6.8-7.29,7.28-.61-.48-6.49-6.31-7.26-7.21Zm0,2.14H57q-2.4,2.39-4.79,4.78a1.19,1.19,0,0,0-.16.23v.22c1.4,1.41,2.79,2.82,4.19,4.22.26.27.53.52.83.81a2.5,2.5,0,0,0,.35-.21l4.72-4.71a1.28,1.28,0,0,0,.15-.25c-.53-.64-4.45-4.56-5.15-5.12Z"/><path class="cls-4" d="M.23-92.86C2.49-90.61,4.74-88.37,7-86.11a2.26,2.26,0,0,1,.25.38C6.05-84.36.53-78.92-.09-78.48l-.24-.19-6.75-6.75a1.72,1.72,0,0,1-.25-.35L0-93A2.11,2.11,0,0,1,.23-92.86Zm-5.42,7.09a2.14,2.14,0,0,0,.2.32l4.72,4.71a.76.76,0,0,0,.19.12.77.77,0,0,0,.25-.1l5-5A1.43,1.43,0,0,0,5-86Q2.66-88.39.29-90.74A1.75,1.75,0,0,0,0-90.92C-.91-90.2-4.66-86.44-5.19-85.77Z"/><path class="cls-4" d="M-64.51-85.78a1.32,1.32,0,0,1,.16-.25l7-7a.11.11,0,0,1,.09,0h.19l6.9,6.9a1.66,1.66,0,0,1,.25.34,2.7,2.7,0,0,1-.25.34l-7,7C-58.59-79.64-64-85.13-64.51-85.78Zm7.57,5,4.78-4.8a.25.25,0,0,1,.08-.18,69.11,69.11,0,0,0-5.11-5.16h-.1a.14.14,0,0,0-.09,0l-4.73,4.7c-.1.11-.19.22-.28.34a1.94,1.94,0,0,0,.21.34l4.71,4.71a1,1,0,0,0,.24.15Z"/><path class="cls-4" d="M114.36-150.2l.31.25,6.68,6.67a3.28,3.28,0,0,1,.27.38c-.81,1-6.7,6.82-7.26,7.23l-7.3-7.3C108-144.08,113.72-149.71,114.36-150.2Zm5.12,7.3a.6.6,0,0,0-.06-.19l-4.71-4.72c-.09-.09-.21-.17-.28-.23h-.15a.14.14,0,0,0-.09,0l-4.59,4.55c-.14.14-.27.3-.44.49a4.41,4.41,0,0,0,.36.49l4.42,4.42c.1.1.21.18.36.31a71.76,71.76,0,0,0,5.18-5.14Z"/><path class="cls-4" d="M142.93-49.92h-.09c-.18-.16-.37-.32-.53-.48L135.71-57a.41.41,0,0,1-.05-.09h0L143-64.39c.56.41,6.4,6.2,7.27,7.22C149.61-56.44,143.58-50.42,142.93-49.92Zm-5.18-7.36a2.83,2.83,0,0,0,.34.51l4.42,4.43c.12.12.26.21.38.31a67.76,67.76,0,0,0,5.19-5.12v-.1a.41.41,0,0,0-.05-.09l-4.78-4.79a1,1,0,0,0-.25-.17h-.18Z"/><path class="cls-4" d="M85.46-50.08l-6.82-6.84a1.55,1.55,0,0,1-.2-.32c1.08-1.23,6.68-6.77,7.33-7.26l.31.25,6.68,6.68a2.33,2.33,0,0,1,.26.38c-.86,1-6.7,6.82-7.32,7.26Zm.47-2,4.73-4.7c.09-.09.17-.21.23-.28v-.24l-4.78-4.79a1.94,1.94,0,0,0-.29-.21,1.55,1.55,0,0,0-.32.2l-4.71,4.71a1.1,1.1,0,0,0-.14.21,1,1,0,0,0,.17.32l4.71,4.72a.89.89,0,0,0,.25.14.64.64,0,0,0,.15-.13Z"/><path class="cls-4" d="M-50,28.63c-.11.13-.21.27-.33.39l-6.77,6.73h-.19c-1.1-1-6.74-6.64-7.21-7.27v-.09c.13-.16.27-.31.41-.46l6.69-6.66a.11.11,0,0,1,.09-.05h.19l6.91,6.91a1.86,1.86,0,0,1,.21.28Zm-2.08-.06a.17.17,0,0,0,0-.1.22.22,0,0,0-.05-.08q-2.34-2.37-4.7-4.73a1.91,1.91,0,0,0-.32-.24.17.17,0,0,0-.1,0c-.57.44-3.84,3.64-4.91,4.8-.08.09-.15.21-.21.29a1.17,1.17,0,0,0,.09.24l4.71,4.72a2.34,2.34,0,0,0,.31.24A66.11,66.11,0,0,0-52.08,28.57Z"/><path class="cls-4" d="M0,21.28a.31.31,0,0,1,.13.06l.52.49,6.5,6.55a.14.14,0,0,1,0,.09.14.14,0,0,1,0,.09C6.65,29.27.62,35.3,0,35.8c-.61-.46-6.33-6.12-7.28-7.22Zm-5.15,7.27a.72.72,0,0,0,.15.27l4.7,4.71a1.4,1.4,0,0,0,.3.15.31.31,0,0,0,.2-.09L5,28.81a1.21,1.21,0,0,0,.2-.3c-.78-.93-1.7-1.74-2.55-2.62S.91,24.21.05,23.35Z"/><path class="cls-4" d="M57.18,21.28a.31.31,0,0,1,.13.06l.52.49,6.51,6.55a.14.14,0,0,1,0,.09.14.14,0,0,1,0,.09c-.55.71-6.58,6.74-7.24,7.24-.61-.46-6.33-6.12-7.28-7.22Zm0,12.39a69.91,69.91,0,0,0,5.17-5.16c-.78-.93-1.69-1.75-2.55-2.62s-1.69-1.68-2.48-2.47a.65.65,0,0,0-.6.29l-4.37,4.37c-.12.12-.23.26-.38.43a63.18,63.18,0,0,0,5.19,5.16Z"/><path class="cls-4" d="M114.39,21.28a2.51,2.51,0,0,1,.32.25l6.81,6.83a.14.14,0,0,1,0,.09.38.38,0,0,1,0,.15,2,2,0,0,1-.22.29l-6.75,6.74a1.94,1.94,0,0,1-.34.21l-.62-.6-6.52-6.54a.14.14,0,0,1,0-.09v-.1c.49-.61,6.33-6.47,7.23-7.26Zm-5.17,7.3a.87.87,0,0,0,.16.26l4.72,4.71a1.64,1.64,0,0,0,.22.14,1.92,1.92,0,0,0,.31-.18c1.58-1.57,3.15-3.15,4.72-4.72a1,1,0,0,0,.14-.24,68.7,68.7,0,0,0-5.11-5.13Z"/><path class="cls-4" d="M-57.21-35.92a2.34,2.34,0,0,1,.31.24L-50.22-29a2.6,2.6,0,0,1,.27.38c-.81,1-6.7,6.82-7.25,7.22l-7.31-7.29C-63.51-29.8-57.85-35.41-57.21-35.92Zm-.19,2.22L-62.13-29c-.09.09-.16.21-.22.28a.43.43,0,0,0,0,.16.14.14,0,0,0,0,.09c1.52,1.52,3,3,4.55,4.58.14.14.29.27.44.4s.18,0,.22-.06l5.08-5a2.49,2.49,0,0,0-.29-.43l-4.5-4.5a2.6,2.6,0,0,0-.36-.3c-.07.06-.15.06-.19.1Z"/><path class="cls-4" d="M-.09-21.33l-.24-.19c-2.25-2.25-4.51-4.5-6.75-6.75a3.6,3.6,0,0,1-.28-.4c.28-.29.51-.53.76-.77l6.39-6.38H0c.75.59,6.75,6.61,7.27,7.29C6.12-27.29.52-21.76-.09-21.33Zm.24-2.23,4.73-4.7a3.51,3.51,0,0,0,.29-.36A35.62,35.62,0,0,0,2.6-31.25C1.75-32.12.91-32.92,0-33.81a1.76,1.76,0,0,0-.37.23C-1.92-32-3.47-30.44-5-28.86c0,.07-.1.14-.14.21a1.3,1.3,0,0,0,.14.32l4.7,4.71a1.4,1.4,0,0,0,.3.15S.11-23.51.15-23.56Z"/><path class="cls-4" d="M50-28.92l7-7h.29l7,7a1.12,1.12,0,0,1,.16.28,2.43,2.43,0,0,1-.24.32l-6.78,6.8a1.55,1.55,0,0,1-.32.2c-1.41-1.26-6.76-6.66-7.24-7.32A1,1,0,0,1,50-28.92Zm7.16,5.4a13.86,13.86,0,0,0,1.72-1.62c.57-.54,1.11-1.11,1.67-1.67l1.77-1.76a2.12,2.12,0,0,0-.21-.36C60.57-30.48,59-32,57.47-33.57a1.7,1.7,0,0,0-.3-.23l-.23.08L52.22-29a2.51,2.51,0,0,0-.25.32Z"/><path class="cls-4" d="M-85.82,7.23h-.1c-.18-.16-.36-.32-.53-.49L-93,.08V-.26l7.15-7.16c.71.52,6.54,6.31,7.41,7.33C-79.14.71-85.17,6.73-85.82,7.23Zm0-2.17A60.45,60.45,0,0,0-80.66,0a3.18,3.18,0,0,0-.27-.37c-1.5-1.51-3-3-4.5-4.5a3.57,3.57,0,0,0-.38-.3A64,64,0,0,0-91-.06Z"/><path class="cls-4" d="M-21.48.17c-.54.64-6.7,6.71-7.15,7h-.1c-.13-.11-.26-.22-.38-.34L-35.85.08a.14.14,0,0,1,0-.09h0l7.29-7.28c.55.4,6.35,6.15,7.23,7.19A.72.72,0,0,1-21.48.17Zm-7.19-5.34a1.32,1.32,0,0,0-.25.16L-33.64-.29c0,.07-.1.14-.14.21a1.41,1.41,0,0,0,.17.32L-28.9,5a1.32,1.32,0,0,0,.25.16A69.11,69.11,0,0,0-23.49,0Z"/><path class="cls-4" d="M28,6.74,21.35.08A.41.41,0,0,1,21.3,0v-.1c.49-.61,6.3-6.45,7.23-7.26h.09a1,1,0,0,1,.25.17L35.76-.29v.18c-.47.63-6.44,6.62-7.3,7.31A1.83,1.83,0,0,1,28,6.74Zm.65-11.9h-.19L24-.8c-.22.22-.42.45-.66.7a2.36,2.36,0,0,0,.28.42l4.57,4.57a1.7,1.7,0,0,0,.3.23A72.88,72.88,0,0,0,33.7-.07c-.88-1-4.47-4.6-5.1-5.09Z"/><path class="cls-4" d="M86.14-7,92.67-.49A3.94,3.94,0,0,1,93,0c-.7.85-6.68,6.81-7.35,7.31L83.22,4.83c-.8-.8-1.61-1.59-2.39-2.4A29.55,29.55,0,0,1,78.43,0c.81-.93,6.69-6.79,7.33-7.29Zm-.45,1.83c-.12.1-.26.19-.38.31L80.69-.22a.27.27,0,0,1-.07.18.44.44,0,0,0,.07.19L85.4,4.88a2.26,2.26,0,0,0,.31.23A65.16,65.16,0,0,0,90.93,0,59.11,59.11,0,0,0,85.69-5.19Z"/><path class="cls-4" d="M135.74-.23l7-7H143l6.9,6.9a3.15,3.15,0,0,1,.22.29.92.92,0,0,1-.09.23,4.47,4.47,0,0,1-.42.45L143,7.23h-.19c-1.21-1-6.74-6.63-7.21-7.26A.37.37,0,0,1,135.74-.23Zm7.36-4.92h-.31L138.56-.92l-.82.83a3,3,0,0,0,.29.43l4.57,4.57a3.55,3.55,0,0,0,.31.23,71.68,71.68,0,0,0,5.23-5.23Z"/><path class="cls-4" d="M114.3-21.33c-.08-.06-.17-.11-.25-.18l-6.82-6.82a1.55,1.55,0,0,1-.2-.32c1.13-1.26,6.69-6.77,7.31-7.23.67.52,6.7,6.54,7.28,7.28C120.73-27.54,114.9-21.77,114.3-21.33Zm-.3-12.2-4.71,4.72a1.13,1.13,0,0,0-.08.24,1.94,1.94,0,0,0,.21.29c1,1.13,4.33,4.36,4.9,4.81a65.48,65.48,0,0,0,5.18-5.09v-.1a.14.14,0,0,0,0-.09L115-33.26a6,6,0,0,0-.46-.42.58.58,0,0,0-.22-.08Z"/><path class="cls-4" d="M35.57-56.83l-6.68,6.68a2.29,2.29,0,0,1-.41.28l-6.79-6.79L21.34-57a.41.41,0,0,1-.05-.09,1.22,1.22,0,0,1,0-.27l7.18-7.13c.68.49,6.43,6.19,7.41,7.33A2.67,2.67,0,0,1,35.57-56.83Zm-1.87-.3v-.1a.14.14,0,0,0,0-.09l-4.48-4.52a5.92,5.92,0,0,0-.45-.41.7.7,0,0,0-.2-.08,1.32,1.32,0,0,0-.25.16l-4.78,4.79a.43.43,0,0,1-.08.23,1.61,1.61,0,0,0,.21.3c1.61,1.62,3.23,3.24,4.84,4.84A59.71,59.71,0,0,0,33.7-57.13Z"/><path class="cls-4" d="M-31.15-52.31c-.8-.8-1.61-1.59-2.39-2.4s-1.68-1.59-2.37-2.42l7.31-7.31a.31.31,0,0,1,.13.06L-22-57.92l.56.6a.41.41,0,0,1,.05.09v.1c-.58.73-6.6,6.74-7.29,7.26C-29.54-50.65-30.32-51.5-31.15-52.31Zm7.65-4.92a1,1,0,0,0-.14-.24l-4.64-4.64c-.1-.09-.22-.16-.31-.23a60.52,60.52,0,0,0-5.2,5.18c.75.95,1.69,1.74,2.54,2.62s1.69,1.69,2.53,2.53Z"/><path class="cls-4" d="M-85.91-64.49l.23.1.23.2,6.81,6.83a.14.14,0,0,1,0,.09.38.38,0,0,1,0,.15,2,2,0,0,1-.22.29l-6.75,6.74a1.17,1.17,0,0,1-.28.17l-7.34-7.32Zm.12,2.18H-86l-4.8,4.78a2.11,2.11,0,0,0-.21.31,16.14,16.14,0,0,0,1.66,1.75c.55.57,1.11,1.12,1.67,1.67L-85.89-52a2.16,2.16,0,0,0,.36-.22c1.58-1.56,3.15-3.14,4.72-4.71a1.28,1.28,0,0,0,.15-.25C-81.17-57.86-85.09-61.78-85.79-62.31Z"/><path class="cls-4" d="M-64.5,85.67a1.42,1.42,0,0,1,.08-.18l7.05-7,.09,0h.19l6.9,6.91a2,2,0,0,1,.25.33,2.7,2.7,0,0,1-.25.34c-2.32,2.33-4.64,4.65-7,7C-58.57,91.82-64,86.31-64.5,85.67Zm7.27,5.15a70.93,70.93,0,0,0,5.15-5.11v-.1a.41.41,0,0,0-.05-.09l-4.78-4.79a1.94,1.94,0,0,0-.29-.21,2.07,2.07,0,0,0-.32.19l-4.71,4.72a1.07,1.07,0,0,0-.15.22A67.89,67.89,0,0,0-57.23,90.82Z"/><path class="cls-4" d="M49.88-142.92a.4.4,0,0,1,.07-.18l7-7a.14.14,0,0,1,.09,0h.19l6.91,6.91c.09.11.17.22.25.34a2.7,2.7,0,0,1-.25.34l-7,7C55.93-136.65,50.35-142.28,49.88-142.92Zm2.12,0a4.35,4.35,0,0,0,.32.43c1.47,1.48,2.94,3,4.43,4.42.09.1.2.18.33.3a1.14,1.14,0,0,0,.34-.19l4.72-4.71a1,1,0,0,0,.15-.24.86.86,0,0,0-.07-.21l-4.71-4.72-.31-.25C55.45-146.3,53.75-144.62,52-142.92Z"/><path class="cls-4" d="M7-142.56.23-135.81a1.85,1.85,0,0,1-.33.21l-.55-.53q-3.3-3.3-6.59-6.61a.15.15,0,0,1-.06-.09.17.17,0,0,1,0-.1c.48-.61,6.27-6.43,7.22-7.26.62.43,6.1,5.83,7.35,7.27A2.42,2.42,0,0,1,7-142.56Zm-1.89-.36a.62.62,0,0,0-.07-.19c-1.57-1.57-3.13-3.15-4.71-4.72a3.11,3.11,0,0,0-.28-.23H-.19l-4.59,4.55c-.14.14-.27.3-.44.49a5.6,5.6,0,0,0,.36.49q2.21,2.22,4.43,4.42c.11.11.23.21.35.31A69.65,69.65,0,0,0,5.11-142.92Z"/><path class="cls-4" d="M-56.91-150l6.75,6.75a2.11,2.11,0,0,1,.21.31c-.65.8-6.66,6.79-7.34,7.31L-59.75-138c-.8-.79-1.6-1.58-2.39-2.39s-1.68-1.59-2.35-2.42l7.32-7.32Zm-5.45,7.05a4.25,4.25,0,0,0,.31.43c1.47,1.48,2.94,3,4.43,4.42a3.17,3.17,0,0,0,.34.3,1.41,1.41,0,0,0,.34-.19l4.71-4.71.16-.24a.9.9,0,0,0-.08-.21c-1.57-1.57-3.13-3.15-4.71-4.72l-.31-.25Z"/><path class="cls-4" d="M135.68-114.43c.13-.15.26-.31.41-.46l6.69-6.66.09,0a.61.61,0,0,1,.19,0l6.91,6.91.21.28v.16a2.49,2.49,0,0,1-.33.39l-6.77,6.73h-.19c-1.09-1-6.74-6.64-7.21-7.26C135.67-114.36,135.66-114.41,135.68-114.43Zm7.29,5.22a3.08,3.08,0,0,0,.41-.3l4.43-4.42c.11-.12.21-.26.3-.37a69.78,69.78,0,0,0-5.16-5.16h-.09a.17.17,0,0,0-.1,0q-2.4,2.38-4.79,4.78a1,1,0,0,0-.17.25Z"/><path class="cls-4" d="M-85.8,49.82a3.88,3.88,0,0,1,.31.26l6.68,6.66a2.88,2.88,0,0,1,.27.34c-.87,1-6.71,6.83-7.25,7.22l-7.31-7.22C-92,55.83-86.44,50.3-85.8,49.82Zm0,12.39a56.13,56.13,0,0,0,5.16-5.07,2.07,2.07,0,0,0-.19-.32l-4.65-4.64a2.26,2.26,0,0,0-.31-.23c-.5.36-4.54,4.3-5.08,4.95a.64.64,0,0,0-.06.18Z"/><path class="cls-4" d="M-29,64.15l-6.66-6.68a3.47,3.47,0,0,1-.29-.38c.93-1.06,6.7-6.78,7.33-7.27a2.51,2.51,0,0,1,.31.26l6.68,6.65c.11.12.19.27.28.38-.76.92-6.69,6.82-7.33,7.29A3.92,3.92,0,0,1-29,64.15Zm5.44-7.22c-1.56-1.58-3.13-3.15-4.7-4.73-.1-.09-.21-.16-.28-.22h-.25l-4.66,4.67c-.12.12-.22.26-.35.41a1.25,1.25,0,0,0,.21.35l4.72,4.67a.77.77,0,0,0,.21.14,1,1,0,0,0,.31-.18q2.36-2.3,4.72-4.67a1,1,0,0,0,.15-.24C-23.51,57.08-23.51,57-23.56,56.93Z"/><path class="cls-4" d="M35.67,56.85a1.88,1.88,0,0,1,.16.23,2.43,2.43,0,0,1-.24.32l-6.76,6.8a1.27,1.27,0,0,1-.31.2c-1.35-1.19-6.77-6.66-7.24-7.32.48-.62,6.19-6.36,7.31-7.34Zm-12,.62c1.56,1.61,3.13,3.14,4.71,4.71a.32.32,0,0,1,.19.06,69.91,69.91,0,0,0,5.17-5.16c-.74-.93-1.74-1.75-2.56-2.62S29.49,52.78,28.7,52a.61.61,0,0,0-.19,0,.17.17,0,0,0-.1,0L24,56.35c-.22.22-.42.44-.69.73a2.57,2.57,0,0,0,.35.39Z"/><path class="cls-4" d="M85.45,64.2,78.7,57.45a3.81,3.81,0,0,1-.29-.41l1.5-1.49,1.45-1.47,1.45-1.45,1.45-1.45a17.61,17.61,0,0,1,1.45-1.41A2.32,2.32,0,0,1,86,50l6.76,6.76a2.5,2.5,0,0,1,.23.39c-1.14,1.32-6.71,6.83-7.33,7.25Zm.74-2.27,4.63-4.65c.05,0,.05-.12.07-.19a69.91,69.91,0,0,0-5.18-5.15,11,11,0,0,0-1.31,1.24c-.4.43-.87.9-1.31,1.31s-.82.81-1.23,1.23A13.5,13.5,0,0,0,80.63,57a.49.49,0,0,0,0,.17.14.14,0,0,0,0,.09l4.52,4.52c.16.17.34.32.59.55A3.9,3.9,0,0,0,86.19,61.93Z"/><path class="cls-4" d="M136.29,56.35l6.47-6.45.09,0H143a1.88,1.88,0,0,1,.23.16c2.25,2.25,4.51,4.5,6.75,6.75a2,2,0,0,1,.26.39c-1.08,1.25-6.72,6.82-7.32,7.24-.85-.72-6.74-6.64-7.28-7.32Zm6.64,5.89c1.8-1.61,3.52-3.32,5.15-5.1v-.06A.15.15,0,0,0,148,57l-4.77-4.8c-.07-.07-.17-.11-.29-.21a2.14,2.14,0,0,0-.32.2c-1.57,1.57-3.15,3.14-4.71,4.72a1.07,1.07,0,0,0-.15.22A65.47,65.47,0,0,0,142.93,62.24Z"/><path class="cls-4" d="M86.06-121.39l6.75,6.75a1.69,1.69,0,0,1,.21.31c-.64.8-6.66,6.79-7.34,7.3-.82-.8-1.64-1.62-2.46-2.43s-1.6-1.59-2.39-2.4-1.68-1.58-2.35-2.42l7.32-7.31A1,1,0,0,1,86.06-121.39Zm-.37,1.92c-.13,0-.25.18-.39.31l-4.36,4.35c-.12.12-.22.26-.34.39s0,.23.11.29c1.64,1.64,3.3,3.27,5,4.91h.19c.43-.31,4.64-4.57,5-5.06Z"/><path class="cls-4" d="M28.62-121.6c.82.71,1.61,1.57,2.43,2.38s1.61,1.59,2.4,2.4a32.75,32.75,0,0,1,2.39,2.47c-.64.81-6.66,6.81-7.29,7.28-.61-.47-6.49-6.31-7.26-7.21Zm0,12.39a1.94,1.94,0,0,0,.33-.23L33.52-114a1.7,1.7,0,0,0,.23-.3q-2.45-2.7-5.15-5.15h-.1a.14.14,0,0,0-.09,0l-4.8,4.78a2.2,2.2,0,0,0-.17.25Z"/></g></pattern></defs><title>triplebarAsset 1</title><g id="Layer_2" data-name="Layer 2"><g id="Layer_1-2" data-name="Layer 1"><path class="cls-5" d="M3904.75,66c-27.24,0-41.14-14.6-53.41-27.48C3839.83,26.43,3829.89,16,3809.51,16s-30.32,10.43-41.83,22.52C3755.41,51.4,3741.5,66,3714.26,66s-41.14-14.6-53.41-27.48C3649.34,26.43,3639.4,16,3619,16s-30.32,10.43-41.82,22.52C3564.93,51.4,3551,66,3523.78,66s-41.14-14.6-53.41-27.48C3458.86,26.43,3448.92,16,3428.54,16s-30.32,10.43-41.83,22.52C3374.45,51.4,3360.54,66,3333.3,66s-41.14-14.6-53.41-27.48C3268.38,26.43,3258.44,16,3238.06,16s-30.32,10.43-41.82,22.52C3184,51.4,3170.06,66,3142.82,66s-41.14-14.6-53.41-27.48C3077.9,26.43,3068,16,3047.58,16s-30.32,10.43-41.82,22.52C2993.49,51.4,2979.58,66,2952.34,66s-41.14-14.6-53.41-27.48C2887.42,26.43,2877.49,16,2857.1,16s-30.32,10.43-41.82,22.52C2803,51.4,2789.1,66,2761.86,66s-41.14-14.6-53.41-27.48C2696.94,26.43,2687,16,2666.62,16s-30.31,10.43-41.82,22.52C2612.53,51.4,2598.62,66,2571.39,66S2530.24,51.4,2518,38.52C2506.46,26.43,2496.53,16,2476.14,16s-30.31,10.43-41.82,22.52C2422.05,51.4,2408.15,66,2380.91,66s-41.15-14.6-53.41-27.48C2316,26.43,2306.05,16,2285.67,16s-30.32,10.43-41.83,22.52C2231.58,51.4,2217.67,66,2190.43,66S2149.29,51.4,2137,38.52C2125.51,26.43,2115.58,16,2095.19,16s-30.31,10.43-41.82,22.52C2041.1,51.4,2027.2,66,2000,66s-41.15-14.6-53.41-27.48C1935,26.43,1925.1,16,1904.72,16s-30.32,10.43-41.82,22.52C1850.63,51.4,1836.72,66,1809.48,66s-41.14-14.6-53.41-27.48C1744.56,26.43,1734.63,16,1714.25,16s-30.32,10.43-41.83,22.52C1660.15,51.4,1646.25,66,1619,66s-41.14-14.6-53.41-27.48C1554.09,26.43,1544.16,16,1523.78,16S1493.46,26.43,1482,38.52C1469.68,51.4,1455.78,66,1428.54,66s-41.14-14.6-53.41-27.48C1363.62,26.43,1353.68,16,1333.3,16S1303,26.43,1291.48,38.52C1279.21,51.4,1265.3,66,1238.07,66s-41.15-14.6-53.42-27.48C1173.15,26.43,1163.21,16,1142.83,16S1112.51,26.43,1101,38.52C1088.73,51.4,1074.83,66,1047.59,66s-41.14-14.6-53.41-27.48C982.67,26.43,972.74,16,952.36,16S922,26.43,910.53,38.52C898.27,51.4,884.36,66,857.12,66S816,51.4,803.72,38.52C792.21,26.43,782.27,16,761.89,16s-30.31,10.43-41.82,22.52C707.8,51.4,693.9,66,666.66,66s-41.15-14.6-53.41-27.48C601.74,26.43,591.8,16,571.42,16S541.1,26.43,529.59,38.52C517.33,51.4,503.42,66,476.18,66S435,51.4,422.77,38.52C411.26,26.43,401.33,16,381,16s-30.32,10.43-41.83,22.52C326.85,51.4,313,66,285.71,66S244.57,51.4,232.3,38.52C220.79,26.43,210.85,16,190.47,16s-30.32,10.43-41.82,22.52C136.38,51.4,122.47,66,95.24,66S54.09,51.4,41.83,38.52C30.32,26.43,20.38,16,0,16V0C27.24,0,41.14,14.6,53.41,27.48,64.92,39.57,74.86,50,95.24,50s30.31-10.43,41.82-22.52C149.33,14.6,163.24,0,190.47,0s41.15,14.6,53.41,27.48C255.39,39.57,265.33,50,285.71,50S316,39.57,327.53,27.48C339.8,14.6,353.71,0,381,0s41.14,14.6,53.41,27.48C445.86,39.57,455.8,50,476.18,50S506.5,39.57,518,27.48C530.28,14.6,544.18,0,571.42,0s41.14,14.6,53.41,27.48C636.34,39.57,646.28,50,666.66,50S697,39.57,708.48,27.48C720.75,14.6,734.66,0,761.89,0S803,14.6,815.3,27.48C826.81,39.57,836.75,50,857.12,50S887.44,39.57,899,27.48C911.22,14.6,925.12,0,952.36,0s41.14,14.6,53.41,27.48c11.5,12.09,21.44,22.52,41.82,22.52s30.32-10.43,41.83-22.52C1101.69,14.6,1115.59,0,1142.83,0s41.14,14.6,53.41,27.48C1207.75,39.57,1217.69,50,1238.07,50s30.31-10.43,41.82-22.52C1292.16,14.6,1306.07,0,1333.3,0s41.15,14.6,53.42,27.48c11.5,12.09,21.44,22.52,41.82,22.52s30.32-10.43,41.83-22.52C1482.63,14.6,1496.54,0,1523.78,0s41.14,14.6,53.41,27.48C1588.69,39.57,1598.63,50,1619,50s30.32-10.43,41.82-22.52C1673.1,14.6,1687,0,1714.25,0s41.14,14.6,53.41,27.48C1779.17,39.57,1789.1,50,1809.48,50s30.32-10.43,41.83-22.52C1863.58,14.6,1877.48,0,1904.72,0s41.14,14.6,53.41,27.48C1969.64,39.57,1979.58,50,2000,50s30.32-10.43,41.82-22.52C2054.05,14.6,2068,0,2095.19,0s41.15,14.6,53.42,27.48c11.5,12.09,21.44,22.52,41.82,22.52s30.32-10.43,41.83-22.52C2244.53,14.6,2258.43,0,2285.67,0s41.14,14.6,53.41,27.48C2350.59,39.57,2360.53,50,2380.91,50s30.32-10.43,41.82-22.52C2435,14.6,2448.91,0,2476.14,0s41.15,14.6,53.42,27.48C2541.07,39.57,2551,50,2571.39,50s30.32-10.43,41.82-22.52C2625.48,14.6,2639.39,0,2666.62,0s41.15,14.6,53.42,27.48c11.5,12.09,21.44,22.52,41.82,22.52s30.32-10.43,41.83-22.52C2816,14.6,2829.86,0,2857.1,0s41.15,14.6,53.42,27.48C2922,39.57,2932,50,2952.34,50s30.32-10.43,41.83-22.52C3006.44,14.6,3020.35,0,3047.58,0s41.15,14.6,53.42,27.48C3112.5,39.57,3122.44,50,3142.82,50s30.32-10.43,41.83-22.52C3196.92,14.6,3210.83,0,3238.06,0s41.15,14.6,53.41,27.48C3303,39.57,3312.92,50,3333.3,50s30.32-10.43,41.83-22.52C3387.4,14.6,3401.3,0,3428.54,0s41.15,14.6,53.42,27.48C3493.46,39.57,3503.4,50,3523.78,50s30.32-10.43,41.83-22.52C3577.88,14.6,3591.78,0,3619,0s41.15,14.6,53.42,27.48c11.5,12.09,21.44,22.52,41.82,22.52s30.32-10.43,41.83-22.52C3768.36,14.6,3782.27,0,3809.51,0s41.14,14.6,53.41,27.48C3874.43,39.57,3884.37,50,3904.75,50s30.33-10.43,41.83-22.52C3958.85,14.6,3972.76,0,4000,0V16c-20.38,0-30.32,10.43-41.83,22.52C3945.9,51.4,3932,66,3904.75,66Z"/><path class="cls-6" d="M3958.17,39.07C3945.9,52,3932,66.55,3904.75,66.55s-41.14-14.6-53.41-27.48c-11.51-12.08-21.45-22.52-41.83-22.52S3779.19,27,3767.68,39.07c-12.27,12.88-26.18,27.48-53.42,27.48s-41.14-14.6-53.41-27.48C3649.34,27,3639.4,16.55,3619,16.55S3588.7,27,3577.2,39.07C3564.93,52,3551,66.55,3523.78,66.55s-41.14-14.6-53.41-27.48c-11.51-12.08-21.45-22.52-41.83-22.52S3398.22,27,3386.71,39.07c-12.26,12.88-26.17,27.48-53.41,27.48s-41.14-14.6-53.41-27.48c-11.51-12.08-21.45-22.52-41.83-22.52S3207.74,27,3196.24,39.07C3184,52,3170.06,66.55,3142.82,66.55s-41.14-14.6-53.41-27.48C3077.9,27,3068,16.55,3047.58,16.55S3017.26,27,3005.76,39.07c-12.27,12.88-26.18,27.48-53.42,27.48S2911.2,52,2898.93,39.07c-11.51-12.08-21.44-22.52-41.83-22.52S2826.78,27,2815.28,39.07C2803,52,2789.1,66.55,2761.86,66.55s-41.14-14.6-53.41-27.48C2696.94,27,2687,16.55,2666.62,16.55S2636.31,27,2624.8,39.07c-12.27,12.88-26.18,27.48-53.41,27.48S2530.24,52,2518,39.07c-11.51-12.08-21.44-22.52-41.83-22.52S2445.83,27,2434.32,39.07c-12.27,12.88-26.17,27.48-53.41,27.48S2339.76,52,2327.5,39.07C2316,27,2306.05,16.55,2285.67,16.55S2255.35,27,2243.84,39.07c-12.26,12.88-26.17,27.48-53.41,27.48S2149.29,52,2137,39.07c-11.51-12.08-21.44-22.52-41.83-22.52S2064.88,27,2053.37,39.07C2041.1,52,2027.2,66.55,2000,66.55s-41.15-14.6-53.41-27.48C1935,27,1925.1,16.55,1904.72,16.55S1874.4,27,1862.9,39.07c-12.27,12.88-26.18,27.48-53.42,27.48s-41.14-14.6-53.41-27.48c-11.51-12.08-21.44-22.52-41.82-22.52S1683.93,27,1672.42,39.07C1660.15,52,1646.25,66.55,1619,66.55S1577.87,52,1565.6,39.07c-11.51-12.08-21.44-22.52-41.82-22.52S1493.46,27,1482,39.07c-12.27,12.88-26.17,27.48-53.41,27.48S1387.4,52,1375.13,39.07c-11.51-12.08-21.45-22.52-41.83-22.52S1303,27,1291.48,39.07c-12.27,12.88-26.18,27.48-53.41,27.48s-41.15-14.6-53.42-27.48c-11.5-12.08-21.44-22.52-41.82-22.52S1112.51,27,1101,39.07c-12.27,12.88-26.17,27.48-53.41,27.48S1006.45,52,994.18,39.07C982.67,27,972.74,16.55,952.36,16.55S922,27,910.53,39.07C898.27,52,884.36,66.55,857.12,66.55S816,52,803.72,39.07C792.21,27,782.27,16.55,761.89,16.55S731.58,27,720.07,39.07C707.8,52,693.9,66.55,666.66,66.55S625.51,52,613.25,39.07C601.74,27,591.8,16.55,571.42,16.55S541.1,27,529.59,39.07C517.33,52,503.42,66.55,476.18,66.55S435,52,422.77,39.07C411.26,27,401.33,16.55,381,16.55S350.63,27,339.12,39.07C326.85,52,313,66.55,285.71,66.55S244.57,52,232.3,39.07C220.79,27,210.85,16.55,190.47,16.55S160.15,27,148.65,39.07C136.38,52,122.47,66.55,95.24,66.55S54.09,52,41.83,39.07C30.32,27,20.38,16.55,0,16.55V984H4000V16.55C3979.62,16.55,3969.68,27,3958.17,39.07Z"/></g></g></svg>